<svg width="37" height="36" viewBox="0 0 37 36" fill="none" xmlns="http://www.w3.org/2000/svg">
<path d="M9.5 14.3438C9.5 14.8552 9.70319 15.3458 10.0649 15.7075C10.4265 16.0691 10.9171 16.2723 11.4286 16.2723C11.9401 16.2723 12.4306 16.0691 12.7923 15.7075C13.154 15.3458 13.3571 14.8552 13.3571 14.3438C13.3571 13.8323 13.154 13.3417 12.7923 12.98C12.4306 12.6184 11.9401 12.4152 11.4286 12.4152C10.9171 12.4152 10.4265 12.6184 10.0649 12.98C9.70319 13.3417 9.5 13.8323 9.5 14.3438ZM23.6429 14.3438C23.6429 14.8552 23.846 15.3458 24.2077 15.7075C24.5694 16.0691 25.0599 16.2723 25.5714 16.2723C26.0829 16.2723 26.5735 16.0691 26.9351 15.7075C27.2968 15.3458 27.5 14.8552 27.5 14.3438C27.5 13.8323 27.2968 13.3417 26.9351 12.98C26.5735 12.6184 26.0829 12.4152 25.5714 12.4152C25.0599 12.4152 24.5694 12.6184 24.2077 12.98C23.846 13.3417 23.6429 13.8323 23.6429 14.3438ZM18.5 0C8.55982 0 0.5 8.05982 0.5 18C0.5 27.9402 8.55982 36 18.5 36C28.4402 36 36.5 27.9402 36.5 18C36.5 8.05982 28.4402 0 18.5 0ZM29.067 28.567C27.6929 29.9411 26.0938 31.0179 24.3138 31.7732C22.4777 32.5527 20.521 32.9464 18.5 32.9464C16.479 32.9464 14.5223 32.5527 12.6821 31.7732C10.9049 31.0226 9.2906 29.9337 7.92902 28.567C6.55491 27.1929 5.47813 25.5938 4.72277 23.8138C3.94732 21.9777 3.55357 20.021 3.55357 18C3.55357 15.979 3.94732 14.0223 4.72679 12.1821C5.47735 10.4049 6.56631 8.7906 7.93304 7.42902C9.30714 6.05491 10.9062 4.97813 12.6862 4.22277C14.5223 3.44732 16.479 3.05357 18.5 3.05357C20.521 3.05357 22.4777 3.44732 24.3179 4.22679C26.0951 4.97735 27.7094 6.06631 29.071 7.43304C30.4451 8.80714 31.5219 10.4062 32.2772 12.1862C33.0527 14.0223 33.4464 15.979 33.4464 18C33.4464 20.021 33.0527 21.9777 32.2732 23.8179C31.5236 25.5944 30.4345 27.2076 29.067 28.567ZM24.6071 18.8438H22.6746C22.5058 18.8438 22.3612 18.9723 22.3491 19.1411C22.1964 21.1299 20.529 22.7009 18.5 22.7009C16.471 22.7009 14.7996 21.1299 14.6509 19.1411C14.6388 18.9723 14.4942 18.8438 14.3254 18.8438H12.3929C12.3493 18.8437 12.3061 18.8525 12.266 18.8697C12.2259 18.8868 12.1898 18.9119 12.1597 18.9435C12.1296 18.9751 12.1063 19.0124 12.0911 19.0533C12.0759 19.0942 12.0692 19.1377 12.0714 19.1813C12.2482 22.5683 15.0647 25.2723 18.5 25.2723C21.9353 25.2723 24.7518 22.5683 24.9286 19.1813C24.9308 19.1377 24.9241 19.0942 24.9089 19.0533C24.8937 19.0124 24.8704 18.9751 24.8403 18.9435C24.8102 18.9119 24.7741 18.8868 24.734 18.8697C24.6939 18.8525 24.6507 18.8437 24.6071 18.8438Z" fill="#343575"/>
</svg>
