<svg width="33" height="32" viewBox="0 0 33 32" fill="none" xmlns="http://www.w3.org/2000/svg">
<path d="M24.752 11.216C24.212 10.601 23.657 9.98602 23.072 9.40102L22.637 8.99602L22.847 8.81602C23.5805 8.18633 24.1032 7.34679 24.3446 6.41067C24.5861 5.47455 24.5345 4.48692 24.197 3.58102C23.7078 2.55947 22.9333 1.70141 21.9671 1.11049C21.0009 0.519562 19.8842 0.221052 18.752 0.251016V3.25102C19.2857 3.24359 19.8117 3.37868 20.2757 3.64236C20.7398 3.90603 21.1251 4.28875 21.392 4.75102C21.647 5.35102 21.392 6.01102 20.687 6.71602C20.582 6.83602 20.462 6.91102 20.357 7.01602C15.857 3.40102 10.922 1.36102 8.50696 3.77602C8.25399 4.03461 8.04611 4.33375 7.89196 4.66102V4.81102L7.62196 5.60602L1.00696 25.256C0.756742 25.9965 0.686552 26.786 0.802199 27.559C0.917847 28.332 1.216 29.0663 1.67198 29.7012C2.12795 30.336 2.72861 30.8531 3.42421 31.2096C4.11981 31.566 4.89033 31.7516 5.67196 31.751C6.18231 31.746 6.68863 31.66 7.17196 31.496L27.752 24.671C28.0049 24.5769 28.2277 24.4162 28.397 24.206L28.712 23.936C30.857 21.776 29.477 17.621 26.597 13.586C28.307 12.588 30.2761 12.1232 32.252 12.251V9.25101C29.608 9.10554 26.9849 9.79278 24.752 11.216ZM6.30196 28.646C5.96147 28.7587 5.59636 28.7746 5.24738 28.6918C4.89841 28.609 4.57931 28.4309 4.3257 28.1773C4.07209 27.9237 3.89396 27.6046 3.81119 27.2556C3.72842 26.9066 3.74426 26.5415 3.85696 26.201L5.89696 20.051C7.35283 22.8274 9.58989 25.1166 12.332 26.636L6.30196 28.646ZM16.802 25.151C14.535 24.5507 12.4671 23.3618 10.8076 21.7049C9.14803 20.048 7.95591 17.982 7.35196 15.716L8.85196 11.216L8.94196 11.351C9.10696 11.681 9.31696 12.026 9.52696 12.371C9.73696 12.716 9.76696 12.806 9.91695 13.031C10.067 13.256 10.412 13.751 10.682 14.126C10.952 14.501 10.967 14.546 11.132 14.756C11.297 14.966 11.777 15.581 12.122 15.986L12.557 16.511C13.067 17.096 13.607 17.666 14.177 18.251C14.747 18.836 15.197 19.211 15.677 19.751L16.172 20.171L17.342 21.116L17.897 21.536C18.317 21.836 18.722 22.136 19.142 22.406L19.607 22.706C20.147 23.036 20.687 23.351 21.212 23.621H21.287L16.802 25.151ZM26.567 21.806H26.477C25.442 22.376 21.137 20.951 16.292 16.091C15.782 15.581 15.302 15.086 14.867 14.591L14.432 14.066L13.637 13.106L13.202 12.506C13.007 12.221 12.797 11.951 12.617 11.681L12.227 11.051L11.792 10.346C11.672 10.136 11.582 9.94102 11.477 9.74601C11.372 9.55101 11.252 9.35602 11.162 9.14602C11.0815 8.97026 11.0114 8.78995 10.952 8.60602C10.877 8.41102 10.787 8.21602 10.727 8.03602C10.667 7.85602 10.652 7.75102 10.607 7.57102C10.562 7.39102 10.532 7.24102 10.502 7.09102C10.4945 6.96112 10.4945 6.83091 10.502 6.70102C10.4875 6.58145 10.4875 6.46058 10.502 6.34102L10.667 5.87602C11.207 5.33602 14.012 5.87602 17.762 8.72602C17.1263 9.01291 16.4467 9.1904 15.752 9.25101V12.251C17.3453 12.1594 18.8912 11.675 20.252 10.841L20.972 11.531C21.602 12.161 22.187 12.806 22.742 13.451C21.8833 15.0037 21.5666 16.7982 21.842 18.551L24.842 17.966C24.7536 17.4095 24.7536 16.8425 24.842 16.286C25.2998 16.9802 25.7059 17.7072 26.057 18.461C26.897 20.441 26.837 21.551 26.567 21.806Z" fill="#343575"/>
</svg>
