<svg width="29" height="29" viewBox="0 0 29 29" fill="none" xmlns="http://www.w3.org/2000/svg">
<path d="M14.5 0.75C11.7805 0.75 9.12209 1.55642 6.86091 3.06729C4.59974 4.57816 2.83737 6.72562 1.79666 9.2381C0.755958 11.7506 0.483662 14.5153 1.01421 17.1825C1.54476 19.8497 2.85432 22.2997 4.77729 24.2227C6.70026 26.1457 9.15028 27.4553 11.8175 27.9858C14.4848 28.5163 17.2494 28.244 19.7619 27.2033C22.2744 26.1626 24.4218 24.4003 25.9327 22.1391C27.4436 19.8779 28.25 17.2195 28.25 14.5C28.25 12.6943 27.8943 10.9063 27.2033 9.2381C26.5123 7.56988 25.4995 6.05409 24.2227 4.77728C22.9459 3.50048 21.4301 2.48766 19.7619 1.79666C18.0937 1.10565 16.3057 0.75 14.5 0.75ZM18.625 15.875H10.375C10.0103 15.875 9.6606 15.7301 9.40273 15.4723C9.14487 15.2144 9.00001 14.8647 9.00001 14.5C9.00001 14.1353 9.14487 13.7856 9.40273 13.5277C9.6606 13.2699 10.0103 13.125 10.375 13.125H18.625C18.9897 13.125 19.3394 13.2699 19.5973 13.5277C19.8551 13.7856 20 14.1353 20 14.5C20 14.8647 19.8551 15.2144 19.5973 15.4723C19.3394 15.7301 18.9897 15.875 18.625 15.875Z" fill="white"/>
</svg>
