<svg width="37" height="34" viewBox="0 0 37 34" fill="none" xmlns="http://www.w3.org/2000/svg">
<path d="M20.9515 13.5889C20.0234 13.5889 19.3042 14.3081 19.3042 15.196C19.3042 16.0839 20.0234 16.8031 20.9515 16.8031C21.7993 16.8031 22.5185 16.0839 22.5185 15.196C22.5185 14.3081 21.7993 13.5889 20.9515 13.5889ZM9.70149 13.5889C8.77336 13.5889 8.05417 14.3081 8.05417 15.196C8.05417 16.0839 8.77336 16.8031 9.70149 16.8031C10.5493 16.8031 11.2685 16.0839 11.2685 15.196C11.2685 14.3081 10.5493 13.5889 9.70149 13.5889Z" fill="#343575"/>
<path d="M33.8477 10.5321C31.9888 7.97334 29.3083 6.12966 26.2539 5.30893V5.31295C25.5669 4.54956 24.7914 3.84643 23.9236 3.21965C17.3463 -1.5616 8.1133 -0.10312 3.31196 6.47411C-0.557233 11.8179 -0.3925 19.0058 3.55304 24.1125L3.58518 29.4402C3.58518 29.5688 3.60527 29.6973 3.64545 29.8179C3.69598 29.9789 3.77777 30.1283 3.88612 30.2577C3.99448 30.3871 4.12728 30.4938 4.27692 30.5718C4.42656 30.6498 4.59011 30.6975 4.75822 30.7122C4.92632 30.7269 5.09568 30.7084 5.25661 30.6576L10.3432 29.0545C11.6892 29.5326 13.0794 29.8058 14.4615 29.8821L14.4414 29.8982C18.0213 32.5058 22.7142 33.2893 27.0173 31.867L32.124 33.5304C32.2526 33.5705 32.3852 33.5946 32.5218 33.5946C33.2329 33.5946 33.8075 33.0201 33.8075 32.3089V26.925C37.3472 22.1196 37.4396 15.4781 33.8477 10.5321ZM10.9057 26.2018L10.4236 26.0009L6.44589 27.2464L6.40571 23.0679L6.08429 22.7063C2.68518 18.5598 2.46018 12.5853 5.64232 8.20179C9.51554 2.89018 16.9405 1.71697 22.2361 5.55C27.5477 9.41117 28.7249 16.8241 24.8879 22.1036C21.6696 26.5192 15.9079 28.1504 10.9057 26.2018ZM31.1959 25.5188L30.8745 25.9205L30.9146 30.0991L26.9771 28.7732L26.495 28.9741C24.245 29.8098 21.8463 29.8781 19.6245 29.2554L19.6164 29.2513C22.6701 28.3149 25.3376 26.413 27.2182 23.8313C30.2879 19.6005 30.7861 14.2848 29.0021 9.75268L29.0263 9.76875C29.9504 10.4317 30.7981 11.2594 31.5173 12.2598C34.4343 16.2616 34.2696 21.7098 31.1959 25.5188Z" fill="#343575"/>
<path d="M15.3265 13.5889C14.3984 13.5889 13.6792 14.3081 13.6792 15.196C13.6792 16.0839 14.3984 16.8031 15.3265 16.8031C16.1743 16.8031 16.8935 16.0839 16.8935 15.196C16.8935 14.3081 16.1743 13.5889 15.3265 13.5889Z" fill="#343575"/>
</svg>
