<svg width="36" height="36" viewBox="0 0 36 36" fill="none" xmlns="http://www.w3.org/2000/svg">
<path d="M33.5733 8.52972L25.7546 13.3471L18.2573 3.34668C18.2271 3.30643 18.188 3.27376 18.143 3.25126C18.098 3.22876 18.0484 3.21704 17.9981 3.21704C17.9478 3.21704 17.8982 3.22876 17.8532 3.25126C17.8082 3.27376 17.7691 3.30643 17.7389 3.34668L10.2456 13.3471L2.42287 8.52972C2.19386 8.3891 1.89653 8.57793 1.9327 8.84713L5.00234 32.1748C5.04654 32.4922 5.31975 32.7373 5.6452 32.7373H30.359C30.6805 32.7373 30.9577 32.4962 30.9979 32.1748L34.0675 8.84713C34.0997 8.57793 33.8064 8.3891 33.5733 8.52972ZM28.5108 29.9891H7.48537L5.32377 13.54L10.9407 16.9994L18.0001 7.58151L25.0595 16.9994L30.6764 13.54L28.5108 29.9891ZM18.0001 17.8712C15.505 17.8712 13.476 19.9003 13.476 22.3953C13.476 24.8904 15.505 26.9195 18.0001 26.9195C20.4952 26.9195 22.5242 24.8904 22.5242 22.3953C22.5242 19.9003 20.4952 17.8712 18.0001 17.8712ZM18.0001 24.336C16.9314 24.336 16.0635 23.4681 16.0635 22.3953C16.0635 21.3266 16.9314 20.4547 18.0001 20.4547C19.0689 20.4547 19.9367 21.3226 19.9367 22.3953C19.9367 23.4641 19.0689 24.336 18.0001 24.336Z" fill="#66669A"/>
</svg>
