<svg width="36" height="36" viewBox="0 0 36 36" fill="none" xmlns="http://www.w3.org/2000/svg">
<path fill-rule="evenodd" clip-rule="evenodd" d="M15.209 2.72251C15.8808 2.52096 16.5905 2.47926 17.2813 2.60075C17.9722 2.72224 18.6251 3.00355 19.1879 3.42223C19.7507 3.8409 20.2078 4.38534 20.5228 5.0121C20.8377 5.63885 21.0018 6.33056 21.002 7.03201V28.968C21.0018 29.6695 20.8377 30.3612 20.5228 30.9879C20.2078 31.6147 19.7507 32.1591 19.1879 32.5778C18.6251 32.9965 17.9722 33.2778 17.2813 33.3993C16.5905 33.5208 15.8808 33.4791 15.209 33.2775L6.20895 30.5775C5.2821 30.2995 4.46957 29.7301 3.89188 28.9538C3.31418 28.1775 3.00211 27.2357 3.00195 26.268V9.73201C3.00211 8.76435 3.31418 7.82253 3.89188 7.04624C4.46957 6.26994 5.2821 5.70055 6.20895 5.42251L15.209 2.72251ZM22.502 6.00001C22.502 5.60218 22.66 5.22065 22.9413 4.93935C23.2226 4.65804 23.6041 4.50001 24.002 4.50001H28.502C29.6954 4.50001 30.84 4.97411 31.6839 5.81803C32.5278 6.66194 33.002 7.80653 33.002 9.00001V10.5C33.002 10.8978 32.8439 11.2794 32.5626 11.5607C32.2813 11.842 31.8998 12 31.502 12C31.1041 12 30.7226 11.842 30.4413 11.5607C30.16 11.2794 30.002 10.8978 30.002 10.5V9.00001C30.002 8.60218 29.8439 8.22065 29.5626 7.93935C29.2813 7.65804 28.8998 7.50001 28.502 7.50001H24.002C23.6041 7.50001 23.2226 7.34197 22.9413 7.06067C22.66 6.77936 22.502 6.39783 22.502 6.00001ZM31.502 24C31.8998 24 32.2813 24.158 32.5626 24.4393C32.8439 24.7207 33.002 25.1022 33.002 25.5V27C33.002 28.1935 32.5278 29.3381 31.6839 30.182C30.84 31.0259 29.6954 31.5 28.502 31.5H24.002C23.6041 31.5 23.2226 31.342 22.9413 31.0607C22.66 30.7794 22.502 30.3978 22.502 30C22.502 29.6022 22.66 29.2207 22.9413 28.9393C23.2226 28.658 23.6041 28.5 24.002 28.5H28.502C28.8998 28.5 29.2813 28.342 29.5626 28.0607C29.8439 27.7794 30.002 27.3978 30.002 27V25.5C30.002 25.1022 30.16 24.7207 30.4413 24.4393C30.7226 24.158 31.1041 24 31.502 24ZM13.502 16.5C13.1041 16.5 12.7226 16.658 12.4413 16.9393C12.16 17.2207 12.002 17.6022 12.002 18C12.002 18.3978 12.16 18.7794 12.4413 19.0607C12.7226 19.342 13.1041 19.5 13.502 19.5H13.5035C13.9013 19.5 14.2828 19.342 14.5641 19.0607C14.8454 18.7794 15.0035 18.3978 15.0035 18C15.0035 17.6022 14.8454 17.2207 14.5641 16.9393C14.2828 16.658 13.9013 16.5 13.5035 16.5H13.502Z" fill="#343575"/>
<path d="M31.502 18H24.002ZM24.002 18L27.002 15ZM24.002 18L27.002 21Z" fill="#343575"/>
<path d="M31.502 18H24.002M24.002 18L27.002 15M24.002 18L27.002 21" stroke="#343575" stroke-width="3" stroke-linecap="round" stroke-linejoin="round"/>
</svg>
