<svg width="19" height="19" viewBox="0 0 19 19" fill="none" xmlns="http://www.w3.org/2000/svg">
<path d="M6.38514 0.0786228C4.00854 0.0786228 2.07642 2.01075 2.07642 4.38735C2.07642 6.7186 3.89969 8.60537 6.27629 8.68701C6.34886 8.67793 6.42143 8.67793 6.47585 8.68701H6.52121H6.53935C8.86153 8.60537 10.6848 6.7186 10.6939 4.38735C10.6939 2.01075 8.76175 0.0786228 6.38514 0.0786228Z" fill="#343575"/>
<path d="M10.994 11.0989C8.46321 9.41171 4.33594 9.41171 1.78699 11.0989C0.63497 11.8699 0 12.9131 0 14.0288C0 15.1446 0.63497 16.1787 1.77792 16.9406C3.04786 17.7933 4.71692 18.2197 6.38599 18.2197C8.05501 18.2197 9.72408 17.7933 10.994 16.9406C12.137 16.1696 12.7719 15.1355 12.7719 14.0107C12.7629 12.895 12.137 11.8609 10.994 11.0989Z" fill="#343575"/>
<path d="M16.3535 4.92086C16.4987 6.68063 15.2469 8.22266 13.5143 8.43129C13.5052 8.43129 13.5052 8.43129 13.4962 8.43129H13.4689C13.4145 8.43129 13.3601 8.43129 13.3147 8.44943C12.4349 8.49479 11.6275 8.21359 11.0198 7.69654C11.9541 6.86205 12.4893 5.61026 12.3804 4.2496C12.3169 3.51485 12.0629 2.8436 11.682 2.27213C12.0267 2.09978 12.4258 1.99093 12.834 1.95464C14.6119 1.80043 16.1993 3.1248 16.3535 4.92086Z" fill="#343575"/>
<path d="M18.1667 13.3136C18.0941 14.1935 17.5317 14.9554 16.5884 15.4725C15.6813 15.9714 14.5383 16.2072 13.4044 16.18C14.0576 15.5904 14.4385 14.8557 14.5111 14.0756C14.6018 12.9508 14.0666 11.8713 12.9962 11.0096C12.3885 10.5288 11.6809 10.1478 10.9099 9.86661C12.9146 9.28607 15.4363 9.67612 16.9875 10.9279C17.822 11.5992 18.2484 12.4428 18.1667 13.3136Z" fill="#343575"/>
</svg>
