<svg width="37" height="36" viewBox="0 0 37 36" fill="none" xmlns="http://www.w3.org/2000/svg">
<path d="M9.5 16.5H15.5M12.5 13.5V19.5M23 18H23.015M27.5 15H27.515M26.48 7.5H10.52C9.03542 7.50035 7.60368 8.05106 6.50155 9.0457C5.39942 10.0403 4.70517 11.4082 4.553 12.885C4.544 12.963 4.538 13.0365 4.5275 13.113C4.406 14.124 3.5 21.684 3.5 24C3.5 25.1935 3.97411 26.3381 4.81802 27.182C5.66193 28.0259 6.80653 28.5 8 28.5C9.5 28.5 10.25 27.75 11 27L13.121 24.879C13.6835 24.3164 14.4464 24.0002 15.242 24H21.758C22.5536 24.0002 23.3165 24.3164 23.879 24.879L26 27C26.75 27.75 27.5 28.5 29 28.5C30.1935 28.5 31.3381 28.0259 32.182 27.182C33.0259 26.3381 33.5 25.1935 33.5 24C33.5 21.6825 32.594 14.124 32.4725 13.113C32.462 13.038 32.456 12.963 32.447 12.8865C32.2952 11.4095 31.6011 10.0412 30.4989 9.04625C29.3967 8.05131 27.9648 7.50038 26.48 7.5Z" stroke="#343575" stroke-width="3" stroke-linecap="round" stroke-linejoin="round"/>
</svg>
