<svg width="19" height="19" viewBox="0 0 19 19" fill="none" xmlns="http://www.w3.org/2000/svg">
<path d="M5.31043 17.2286C5.28317 17.2286 5.24681 17.2468 5.21955 17.2468C3.45642 16.3743 2.02048 14.9293 1.13892 13.1662C1.13892 13.1389 1.15709 13.1026 1.15709 13.0753C2.26586 13.4025 3.41098 13.6479 4.54702 13.8387C4.74696 14.9838 4.98325 16.1199 5.31043 17.2286Z" fill="#343575"/>
<path d="M17.3891 13.1753C16.4894 14.9838 14.9898 16.447 13.1631 17.3286C13.5084 16.1744 13.7993 15.0111 13.9901 13.8387C15.1352 13.6479 16.2622 13.4025 17.371 13.0753C17.3619 13.1116 17.3891 13.148 17.3891 13.1753Z" fill="#343575"/>
<path d="M17.4618 5.23273C16.3167 4.88737 15.1625 4.60563 13.9901 4.40569C13.7993 3.23331 13.5175 2.07001 13.1631 0.933973C15.0444 1.83371 16.5621 3.35145 17.4618 5.23273Z" fill="#343575"/>
<path d="M5.31209 1.03226C4.98492 2.14103 4.74862 3.26797 4.55777 4.4131C3.38538 4.59486 2.22208 4.88569 1.06787 5.23104C1.94943 3.4043 3.41264 1.90473 5.22121 1.005C5.24847 1.005 5.28483 1.03226 5.31209 1.03226Z" fill="#343575"/>
<path d="M12.4383 4.21443C10.3298 3.97813 8.20319 3.97813 6.09473 4.21443C6.32193 2.96933 6.61276 1.72424 7.02173 0.52459C7.03991 0.451884 7.03082 0.397354 7.03991 0.324648C7.75786 0.151971 8.49401 0.0429115 9.26651 0.0429115C10.0299 0.0429115 10.7752 0.151971 11.4841 0.324648C11.4931 0.397354 11.4931 0.451884 11.5113 0.52459C11.9203 1.73333 12.2111 2.96933 12.4383 4.21443Z" fill="#343575"/>
<path d="M4.34827 12.3045C3.09409 12.0773 1.85809 11.7865 0.658436 11.3775C0.58573 11.3594 0.5312 11.3684 0.458494 11.3594C0.285817 10.6414 0.176758 9.90523 0.176758 9.13273C0.176758 8.36931 0.285817 7.62407 0.458494 6.91521C0.5312 6.90612 0.58573 6.90612 0.658436 6.88794C1.86718 6.48806 3.09409 6.18814 4.34827 5.96094C4.12107 8.0694 4.12107 10.1961 4.34827 12.3045Z" fill="#343575"/>
<path d="M18.3534 9.13273C18.3534 9.90523 18.2443 10.6414 18.0717 11.3594C17.999 11.3684 17.9444 11.3594 17.8717 11.3775C16.663 11.7774 15.427 12.0773 14.1819 12.3045C14.4182 10.1961 14.4182 8.0694 14.1819 5.96094C15.427 6.18814 16.6721 6.47897 17.8717 6.88794C17.9444 6.90612 17.999 6.91521 18.0717 6.91521C18.2443 7.63316 18.3534 8.36931 18.3534 9.13273Z" fill="#343575"/>
<path d="M12.4383 14.0481C12.2111 15.3023 11.9203 16.5383 11.5113 17.738C11.4931 17.8107 11.4931 17.8652 11.4841 17.9379C10.7752 18.1106 10.0299 18.2197 9.26651 18.2197C8.49401 18.2197 7.75786 18.1106 7.03991 17.9379C7.03082 17.8652 7.03991 17.8107 7.02173 17.738C6.62185 16.5292 6.32193 15.3023 6.09473 14.0481C7.14897 14.1663 8.20319 14.2481 9.26651 14.2481C10.3298 14.2481 11.3932 14.1663 12.4383 14.0481Z" fill="#343575"/>
<path d="M12.6851 12.5514C10.4121 12.8382 8.11783 12.8382 5.84473 12.5514C5.55794 10.2783 5.55794 7.98405 5.84473 5.71096C8.11783 5.42417 10.4121 5.42417 12.6851 5.71096C12.972 7.98405 12.972 10.2783 12.6851 12.5514Z" fill="#343575"/>
</svg>
