<svg width="20" height="21" viewBox="0 0 20 21" fill="none" xmlns="http://www.w3.org/2000/svg">
<path id="Vector" d="M19.3475 10.845C19.7675 10.29 20 9.61002 20 8.90252C20 7.78002 19.3725 6.71752 18.3625 6.12502C18.1025 5.97251 17.8064 5.89224 17.505 5.89252H11.51L11.66 2.82002C11.695 2.07752 11.4325 1.37252 10.9225 0.835019C10.6722 0.570089 10.3703 0.359301 10.0353 0.215682C9.70032 0.0720622 9.33946 -0.00133753 8.975 1.84504e-05C7.675 1.84504e-05 6.525 0.875019 6.18 2.12752L4.0325 9.90252H4.025V20.6025H15.8325C16.0625 20.6025 16.2875 20.5575 16.495 20.4675C17.685 19.96 18.4525 18.7975 18.4525 17.5075C18.4525 17.1925 18.4075 16.8825 18.3175 16.5825C18.7375 16.0275 18.97 15.3475 18.97 14.64C18.97 14.325 18.925 14.015 18.835 13.715C19.255 13.16 19.4875 12.48 19.4875 11.7725C19.4825 11.4575 19.4375 11.145 19.3475 10.845ZM0 10.7025V19.8025C0 20.245 0.3575 20.6025 0.8 20.6025H2.425V9.90252H0.8C0.3575 9.90252 0 10.26 0 10.7025Z" fill="#343575" fill-opacity="0.85"/>
</svg>
