<svg width="25" height="32" viewBox="0 0 25 32" fill="none" xmlns="http://www.w3.org/2000/svg">
<path d="M23.9382 14.3785C23.2488 12.8268 22.2466 11.4342 20.9943 10.2876L19.9609 9.33944C19.9258 9.30812 19.8836 9.2859 19.8379 9.27473C19.7922 9.26355 19.7445 9.26375 19.6989 9.27532C19.6534 9.28689 19.6113 9.30947 19.5765 9.34109C19.5417 9.3727 19.5152 9.41237 19.4993 9.45662L19.0376 10.7812C18.75 11.6122 18.2209 12.4609 17.4716 13.2954C17.4219 13.3487 17.365 13.3629 17.326 13.3664C17.2869 13.37 17.2265 13.3629 17.1733 13.3132C17.1236 13.2705 17.0987 13.2066 17.1023 13.1427C17.2336 11.0049 16.5944 8.5937 15.1953 5.96941C14.0376 3.78902 12.429 2.08802 10.419 0.901945L8.95241 0.0390204C8.76064 -0.0746159 8.51562 0.0745315 8.52627 0.298253L8.60439 2.0028C8.65766 3.16757 8.52272 4.1974 8.20312 5.05322C7.81249 6.1008 7.25141 7.07381 6.53408 7.94739C6.03488 8.5545 5.46907 9.10364 4.8473 9.58446C3.3498 10.7356 2.13215 12.2106 1.28551 13.8991C0.440958 15.6023 0.0010304 17.4774 0 19.3785C0 21.0546 0.330255 22.6775 0.983664 24.208C1.61458 25.6816 2.52506 27.019 3.66477 28.1462C4.81534 29.2826 6.15056 30.1775 7.63849 30.7989C9.17968 31.4452 10.8132 31.7719 12.5 31.7719C14.1868 31.7719 15.8203 31.4452 17.3615 30.8025C18.8457 30.1847 20.1955 29.2837 21.3352 28.1498C22.4858 27.0134 23.3878 25.6853 24.0163 24.2116C24.6687 22.6852 25.0034 21.042 25 19.382C25 17.6491 24.6449 15.9658 23.9382 14.3785ZM19.6378 26.4275C17.7308 28.3167 15.1988 29.3536 12.5 29.3536C9.80113 29.3536 7.26917 28.3167 5.36221 26.4275C3.46235 24.5418 2.41477 22.0418 2.41477 19.382C2.41477 17.8373 2.76278 16.3565 3.44815 14.9786C4.11576 13.6328 5.11008 12.4289 6.31746 11.5021C7.08749 10.9133 7.7859 10.2363 8.39843 9.48503C9.28621 8.40194 9.98223 7.19455 10.4652 5.89839C10.6633 5.36372 10.8072 4.81052 10.8949 4.24711C11.7507 5.03546 12.468 5.98717 13.0682 7.10222C14.2542 9.32523 14.8011 11.3032 14.6946 12.9864C14.6691 13.3829 14.7339 13.7799 14.884 14.1477C15.034 14.5156 15.2655 14.8446 15.5611 15.11C15.8172 15.3414 16.1167 15.5195 16.4422 15.6341C16.7678 15.7487 17.1128 15.7975 17.4574 15.7776C18.1569 15.7421 18.7997 15.4332 19.2684 14.9112C19.7407 14.382 20.1491 13.8423 20.49 13.2918C20.9872 13.9275 21.4027 14.62 21.7329 15.3657C22.2976 16.637 22.5852 17.99 22.5852 19.382C22.5852 22.0418 21.5376 24.5454 19.6378 26.4275Z" fill="#343575" fill-opacity="0.85"/>
</svg>
