<svg width="30" height="24" viewBox="0 0 30 24" fill="none" xmlns="http://www.w3.org/2000/svg">
<path d="M28.9286 0H1.07143C0.478795 0 0 0.478795 0 1.07143V22.5C0 23.0926 0.478795 23.5714 1.07143 23.5714H28.9286C29.5212 23.5714 30 23.0926 30 22.5V1.07143C30 0.478795 29.5212 0 28.9286 0ZM27.5893 21.1607H2.41071V19.8248L7.04799 14.3237L12.0737 20.2835L19.8917 11.0156L27.5893 20.1429V21.1607ZM27.5893 16.8147L20.096 7.92857C19.9888 7.80134 19.7946 7.80134 19.6875 7.92857L12.0737 16.9554L7.25223 11.24C7.14509 11.1127 6.95089 11.1127 6.84375 11.24L2.41071 16.4967V2.41071H27.5893V16.8147ZM8.03571 9.91072C8.42264 9.91072 8.80579 9.8345 9.16326 9.68643C9.52074 9.53836 9.84555 9.32133 10.1192 9.04773C10.3928 8.77413 10.6098 8.44931 10.7579 8.09184C10.9059 7.73436 10.9821 7.35122 10.9821 6.96429C10.9821 6.57736 10.9059 6.19421 10.7579 5.83674C10.6098 5.47926 10.3928 5.15445 10.1192 4.88085C9.84555 4.60725 9.52074 4.39021 9.16326 4.24214C8.80579 4.09407 8.42264 4.01786 8.03571 4.01786C7.25427 4.01786 6.50484 4.32828 5.95227 4.88085C5.39971 5.43341 5.08929 6.18284 5.08929 6.96429C5.08929 7.74573 5.39971 8.49516 5.95227 9.04773C6.50484 9.60029 7.25427 9.91072 8.03571 9.91072V9.91072ZM8.03571 6.02679C8.55469 6.02679 8.97321 6.44531 8.97321 6.96429C8.97321 7.48326 8.55469 7.90179 8.03571 7.90179C7.51674 7.90179 7.09821 7.48326 7.09821 6.96429C7.09821 6.44531 7.51674 6.02679 8.03571 6.02679Z" fill="#343575"/>
</svg>
