<svg width="19" height="20" viewBox="0 0 19 20" fill="none" xmlns="http://www.w3.org/2000/svg">
<path d="M10.0345 9.44034L2.78171 0.173296C2.69648 0.0625002 2.56296 0 2.42375 0L0.227732 0C0.0373914 0 -0.0677223 0.21875 0.048755 0.366477L7.58853 10L0.048755 19.6335C0.0225243 19.667 0.00624858 19.7072 0.00178867 19.7495C-0.00267123 19.7918 0.00486493 19.8346 0.023535 19.8728C0.0422052 19.911 0.071256 19.9432 0.107366 19.9657C0.143476 19.9882 0.185188 20.0001 0.227732 20H2.42375C2.56296 20 2.69648 19.9347 2.78171 19.8267L10.0345 10.5625C10.2931 10.2301 10.2931 9.76989 10.0345 9.44034V9.44034ZM18.6709 9.44034L11.4181 0.173296C11.3328 0.0625002 11.1993 0 11.0601 0L8.86409 0C8.67375 0 8.56864 0.21875 8.68512 0.366477L16.2249 10L8.68512 19.6335C8.65889 19.667 8.64261 19.7072 8.63815 19.7495C8.63369 19.7918 8.64123 19.8346 8.6599 19.8728C8.67857 19.911 8.70762 19.9432 8.74373 19.9657C8.77984 19.9882 8.82155 20.0001 8.86409 20H11.0601C11.1993 20 11.3328 19.9347 11.4181 19.8267L18.6709 10.5625C18.9294 10.2301 18.9294 9.76989 18.6709 9.44034V9.44034Z" fill="#343575"/>
</svg>
