<svg width="36" height="36" viewBox="0 0 36 36" fill="none" xmlns="http://www.w3.org/2000/svg">
<g id="ic:round-logout">
<path id="Vector" d="M7.5 7.5H16.5C17.325 7.5 18 6.825 18 6C18 5.175 17.325 4.5 16.5 4.5H7.5C5.85 4.5 4.5 5.85 4.5 7.5V28.5C4.5 30.15 5.85 31.5 7.5 31.5H16.5C17.325 31.5 18 30.825 18 30C18 29.175 17.325 28.5 16.5 28.5H7.5V7.5Z" fill="#343575"/>
<path id="Vector_2" d="M30.975 17.475L26.79 13.29C26.6857 13.1828 26.5517 13.1092 26.4053 13.0786C26.259 13.048 26.1067 13.0617 25.9682 13.1181C25.8297 13.1745 25.7111 13.2709 25.6277 13.3951C25.5443 13.5192 25.4998 13.6654 25.5 13.815V16.5H15C14.175 16.5 13.5 17.175 13.5 18C13.5 18.825 14.175 19.5 15 19.5H25.5V22.185C25.5 22.86 26.31 23.19 26.775 22.71L30.96 18.525C31.26 18.24 31.26 17.76 30.975 17.475Z" fill="#343575"/>
</g>
</svg>
