<svg width="36" height="36" viewBox="0 0 36 36" fill="none" xmlns="http://www.w3.org/2000/svg">
<g clip-path="url(#clip0_1377_6201)">
<path d="M21.3067 21.5887C22.0615 20.7589 22.4786 19.6769 22.4759 18.5552C22.4759 16.0681 20.471 14.0552 18 14.0552C15.529 14.0552 13.5241 16.0681 13.5241 18.5552C13.5241 19.7244 13.9661 20.7851 14.6933 21.5887C13.8219 22.1286 13.0942 22.8715 12.5723 23.7537C12.0503 24.636 11.7497 25.6315 11.696 26.6552C11.6938 26.6987 11.7005 26.7423 11.7157 26.7831C11.7309 26.824 11.7542 26.8614 11.7842 26.8929C11.8143 26.9245 11.8505 26.9496 11.8906 26.9668C11.9307 26.9839 11.9738 26.9927 12.0174 26.9927H13.7812C13.95 26.9927 14.0866 26.8601 14.0987 26.6913C14.2513 24.6583 15.9469 23.0552 18.004 23.0552C20.0612 23.0552 21.7567 24.6623 21.9094 26.6913C21.9214 26.8601 22.058 26.9927 22.2268 26.9927H23.9866C24.0302 26.9927 24.0734 26.9839 24.1134 26.9668C24.1535 26.9496 24.1897 26.9245 24.2198 26.8929C24.2498 26.8614 24.2732 26.824 24.2883 26.7831C24.3035 26.7423 24.3102 26.6987 24.308 26.6552C24.1955 24.5137 23.0223 22.6494 21.3067 21.5887ZM18 20.6445C16.8549 20.6445 15.9228 19.7083 15.9228 18.5552C15.9228 17.4021 16.8549 16.4659 18 16.4659C19.1451 16.4659 20.0772 17.4021 20.0772 18.5552C20.0772 19.7083 19.1451 20.6445 18 20.6445ZM34.7143 6.42125H28.2857V4.17125C28.2857 3.99447 28.1411 3.84982 27.9643 3.84982H25.7143C25.5375 3.84982 25.3929 3.99447 25.3929 4.17125V6.42125H19.4464V4.17125C19.4464 3.99447 19.3018 3.84982 19.125 3.84982H16.875C16.6982 3.84982 16.5536 3.99447 16.5536 4.17125V6.42125H10.6071V4.17125C10.6071 3.99447 10.4625 3.84982 10.2857 3.84982H8.03571C7.85893 3.84982 7.71429 3.99447 7.71429 4.17125V6.42125H1.28571C0.574554 6.42125 0 6.99581 0 7.70697V30.8498C0 31.561 0.574554 32.1355 1.28571 32.1355H34.7143C35.4254 32.1355 36 31.561 36 30.8498V7.70697C36 6.99581 35.4254 6.42125 34.7143 6.42125ZM33.1071 29.2427H2.89286V9.31411H7.71429V11.5641C7.71429 11.7409 7.85893 11.8855 8.03571 11.8855H10.2857C10.4625 11.8855 10.6071 11.7409 10.6071 11.5641V9.31411H16.5536V11.5641C16.5536 11.7409 16.6982 11.8855 16.875 11.8855H19.125C19.3018 11.8855 19.4464 11.7409 19.4464 11.5641V9.31411H25.3929V11.5641C25.3929 11.7409 25.5375 11.8855 25.7143 11.8855H27.9643C28.1411 11.8855 28.2857 11.7409 28.2857 11.5641V9.31411H33.1071V29.2427Z" fill="#343575"/>
</g>
<defs>
<clipPath id="clip0_1377_6201">
<rect width="36" height="36" fill="white"/>
</clipPath>
</defs>
</svg>
