<svg width="20" height="20" viewBox="0 0 20 20" fill="none" xmlns="http://www.w3.org/2000/svg">
<path d="M9.96435 14.7509C10.8294 14.7509 11.5307 14.0496 11.5307 13.1845C11.5307 12.3194 10.8294 11.6181 9.96435 11.6181C9.09927 11.6181 8.39795 12.3194 8.39795 13.1845C8.39795 14.0496 9.09927 14.7509 9.96435 14.7509Z" fill="#343575"/>
<path d="M15.9983 7.23619V6.03496C15.9983 3.44031 15.3737 0 9.96333 0C4.553 0 3.92837 3.44031 3.92837 6.03496V7.23619C1.23762 7.57253 0.353516 8.93713 0.353516 12.291V14.0784C0.353516 18.0184 1.55474 19.2196 5.49477 19.2196H14.4319C18.3719 19.2196 19.5731 18.0184 19.5731 14.0784V12.291C19.5731 8.93713 18.689 7.57253 15.9983 7.23619ZM9.96333 16.0868C8.35849 16.0868 7.06117 14.7799 7.06117 13.1847C7.06117 11.5798 8.3681 10.2825 9.96333 10.2825C11.5586 10.2825 12.8655 11.5894 12.8655 13.1847C12.8655 14.7895 11.5682 16.0868 9.96333 16.0868ZM5.49477 7.1497C5.41789 7.1497 5.35062 7.1497 5.27374 7.1497V6.03496C5.27374 3.21929 6.07136 1.34537 9.96333 1.34537C13.8553 1.34537 14.6529 3.21929 14.6529 6.03496V7.15931C14.576 7.15931 14.5088 7.15931 14.4319 7.15931H5.49477V7.1497Z" fill="#343575"/>
</svg>
