<svg width="32" height="32" viewBox="0 0 32 32" fill="none" xmlns="http://www.w3.org/2000/svg">
<path d="M15.75 0C7.05234 0 0 7.05234 0 15.75C0 24.4477 7.05234 31.5 15.75 31.5C24.4477 31.5 31.5 24.4477 31.5 15.75C31.5 7.05234 24.4477 0 15.75 0ZM21.5648 21.7336L19.2445 21.723L15.75 17.557L12.259 21.7195L9.93516 21.7301C9.78047 21.7301 9.65391 21.607 9.65391 21.4488C9.65391 21.382 9.67852 21.3188 9.7207 21.266L14.2945 15.8168L9.7207 10.3711C9.67822 10.3196 9.65465 10.2551 9.65391 10.1883C9.65391 10.0336 9.78047 9.90703 9.93516 9.90703L12.259 9.91758L15.75 14.0836L19.241 9.92109L21.5613 9.91055C21.716 9.91055 21.8426 10.0336 21.8426 10.1918C21.8426 10.2586 21.818 10.3219 21.7758 10.3746L17.209 15.8203L21.7793 21.2695C21.8215 21.3223 21.8461 21.3855 21.8461 21.4523C21.8461 21.607 21.7195 21.7336 21.5648 21.7336Z" fill="#343575"/>
</svg>
