<svg width="19" height="20" viewBox="0 0 19 20" fill="none" xmlns="http://www.w3.org/2000/svg">
<path d="M8.96545 10.5597L16.2183 19.8267C16.3035 19.9375 16.437 20 16.5762 20H18.7723C18.9626 20 19.0677 19.7813 18.9512 19.6335L11.4115 10L18.9512 0.366477C18.9775 0.332981 18.9938 0.292779 18.9982 0.250469C19.0027 0.208159 18.9951 0.165447 18.9765 0.127218C18.9578 0.0889885 18.9287 0.0567837 18.8926 0.0342866C18.8565 0.0117895 18.8148 -9.21937e-05 18.7723 -5.96046e-07H16.5762C16.437 -5.96046e-07 16.3035 0.0653396 16.2183 0.173294L8.96545 9.4375C8.70693 9.76989 8.70693 10.2301 8.96545 10.5597V10.5597ZM0.329088 10.5597L7.58193 19.8267C7.66715 19.9375 7.80068 20 7.93988 20H10.1359C10.3262 20 10.4314 19.7813 10.3149 19.6335L2.77511 10L10.3149 0.366477C10.3411 0.332981 10.3574 0.292779 10.3618 0.250469C10.3663 0.208159 10.3588 0.165447 10.3401 0.127218C10.3214 0.0889885 10.2924 0.0567837 10.2563 0.0342866C10.2202 0.0117895 10.1784 -9.21937e-05 10.1359 -5.96046e-07H7.93988C7.80068 -5.96046e-07 7.66715 0.0653396 7.58193 0.173294L0.329088 9.4375C0.0705648 9.76989 0.0705648 10.2301 0.329088 10.5597V10.5597Z" fill="#343575"/>
</svg>
