<svg width="18" height="19" viewBox="0 0 18 19" fill="none" xmlns="http://www.w3.org/2000/svg">
<path d="M17.8164 9.32905L0.480136 0.637094C0.409672 0.601861 0.328846 0.593572 0.252164 0.612224C0.167059 0.633263 0.093758 0.687168 0.0483112 0.762136C0.00286449 0.837104 -0.0110248 0.927025 0.0096848 1.01221L1.79616 8.31146C1.8231 8.4213 1.90393 8.51042 2.01169 8.54565L5.07274 9.59639L2.01377 10.6471C1.906 10.6844 1.82517 10.7715 1.8003 10.8813L0.0096848 18.1909C-0.00896746 18.2676 -0.000677473 18.3484 0.0345546 18.4168C0.115381 18.5806 0.314338 18.6469 0.480136 18.5661L17.8164 9.92385C17.8806 9.89276 17.9324 9.83887 17.9656 9.7767C18.0464 9.6109 17.9801 9.41195 17.8164 9.32905ZM2.05314 16.1143L3.0956 11.8533L9.21354 9.7539C9.2612 9.73732 9.30058 9.70002 9.31716 9.65028C9.34618 9.56324 9.30058 9.46997 9.21354 9.43889L3.0956 7.34154L2.05729 3.09712L15.0724 9.62334L2.05314 16.1143Z" fill="#343575" fill-opacity="0.85"/>
</svg>
