<svg width="28" height="30" viewBox="0 0 28 30" fill="none" xmlns="http://www.w3.org/2000/svg">
<path d="M26.2535 5.55095C24.008 5.3278 21.7625 5.16043 19.5031 5.03491V5.02096L19.1963 3.20784C18.987 1.9247 18.6802 0 15.4166 0H11.7624C8.51272 0 8.20589 1.84102 7.98273 3.19389L7.68985 4.97912C6.39276 5.0628 5.09568 5.14648 3.7986 5.27201L0.953391 5.55095C0.367612 5.60674 -0.0508016 6.12278 0.00498682 6.69461C0.0607753 7.26645 0.562871 7.68486 1.14865 7.62907L3.99386 7.35013C11.3022 6.62488 18.6663 6.90382 26.0582 7.64302H26.1698C26.6998 7.64302 27.1601 7.23855 27.2158 6.69461C27.2577 6.12278 26.8393 5.60674 26.2535 5.55095Z" fill="white"/>
<path d="M23.6869 9.60986C23.3522 9.26118 22.892 9.06592 22.4178 9.06592H4.78868C4.31448 9.06592 3.84028 9.26118 3.51949 9.60986C3.19871 9.95853 3.0174 10.4327 3.04529 10.9209L3.91001 25.2306C4.06343 27.3506 4.25869 30.0005 9.12623 30.0005H18.0802C22.9478 30.0005 23.1432 27.3645 23.2964 25.2306L24.1612 10.9348C24.189 10.4327 24.0077 9.95853 23.6869 9.60986ZM15.9184 23.013H11.274C10.7023 23.013 10.2281 22.5388 10.2281 21.967C10.2281 21.3952 10.7023 20.921 11.274 20.921H15.9184C16.4902 20.921 16.9644 21.3952 16.9644 21.967C16.9644 22.5388 16.4902 23.013 15.9184 23.013ZM17.09 17.4342H10.1165C9.54465 17.4342 9.07044 16.96 9.07044 16.3882C9.07044 15.8163 9.54465 15.3421 10.1165 15.3421H17.09C17.6618 15.3421 18.136 15.8163 18.136 16.3882C18.136 16.96 17.6618 17.4342 17.09 17.4342Z" fill="white"/>
</svg>
