<svg width="460" height="443" viewBox="0 0 460 443" fill="none" xmlns="http://www.w3.org/2000/svg">
<path d="M450.377 247.965C444.797 239.835 437.035 233.005 433.786 223.627C430.363 213.739 432.595 202.602 429.743 192.535C421.435 163.075 377.811 159.405 365.411 131.576C360.451 120.541 361.592 107.824 361.021 95.6936C359.955 73.6748 352.688 51.6561 338.701 34.8617C321.985 14.6014 291.208 -0.00133562 265.514 10.1925C264.572 10.5748 263.679 10.9826 262.861 11.3903C262.039 10.3247 261.07 9.38876 259.984 8.61248C243.045 -3.0595 211.028 22.3487 202.372 34.6578C187.293 56.0649 186.525 84.99 169.164 104.817C160.087 115.164 147.389 121.943 135.163 128.773C121.225 136.418 107.337 144.803 96.0523 155.786C84.7681 166.77 76.1871 180.94 74.9719 196.231C73.8063 211.037 79.3864 226.634 73.5087 240.37C66.0685 257.47 42.9048 266.721 40.4992 285.045C39.0111 296.487 46.9721 307.624 57.3387 313.689C67.7053 319.755 80.1552 321.666 92.2827 323.017C146.716 328.987 201.74 325.445 255.024 312.543C254.627 313.18 254.205 313.486 253.784 313.435C313.321 321.059 373.356 323.777 433.315 321.564C436.647 321.682 439.967 321.083 443.061 319.806C446.018 318.132 448.511 315.711 450.303 312.772C456.639 303.223 460.034 291.937 460.047 280.38C460.06 268.823 456.691 257.529 450.377 247.965Z" fill="#F4694C"/>
<path d="M189.005 159.457C187.442 195.67 212.912 231.221 247.038 240.472C247.496 240.675 247.99 240.779 248.489 240.779C248.988 240.779 249.481 240.675 249.94 240.472C250.339 240.131 250.665 239.708 250.896 239.229C251.126 238.751 251.257 238.228 251.279 237.694C258.719 195.262 241.557 150.257 254.106 109.124C264.671 74.4397 234.588 87.4878 218.542 100.995C209.949 108.108 202.887 116.977 197.802 127.04C192.718 137.103 189.722 148.142 189.005 159.457Z" fill="#E2543D"/>
<path d="M161.674 128.851C153.49 144.142 133.674 146.945 120.828 156.706C107.981 166.466 100.987 181.859 99.4745 198.373C97.7633 218.175 101.409 239.353 87.0743 255.153C76.0133 267.233 56.3464 278.573 60.3145 298.069C60.7361 300.184 63.7122 299.573 63.8114 297.585C64.8778 276.535 85.3879 268.074 95.4569 252.35C104.98 237.288 102.624 218.302 103.666 201.329C104.856 181.655 113.363 165.651 130.227 155.814C142.454 148.653 156.466 143.632 162.765 129.616C163.113 128.775 162.071 128.112 161.674 128.851Z" fill="#E2543D"/>
<path d="M170.652 163.637C154.11 167.536 139.131 175.844 130.55 191.466C122.44 206.222 119.042 223.806 113.735 239.709C113.605 240.24 113.664 240.802 113.903 241.293C114.141 241.783 114.542 242.169 115.034 242.382C115.526 242.594 116.075 242.619 116.583 242.451C117.091 242.283 117.523 241.934 117.802 241.467C124.548 227.298 126.482 211.166 133.203 196.996C141.313 180.278 155.524 172.786 171.322 165.294C172.264 164.86 171.57 163.433 170.652 163.637Z" fill="#E2543D"/>
<path d="M434.009 255.79C410.87 247.584 409.382 221.105 403.777 200.412C398.817 181.884 383.936 161.624 362.955 163C362.697 163.006 362.449 163.107 362.256 163.284C362.062 163.461 361.937 163.703 361.901 163.966C361.865 164.229 361.922 164.497 362.06 164.722C362.199 164.946 362.411 165.113 362.658 165.192C374.587 168.632 385.152 173.092 392.121 184.331C398.42 194.525 400.255 206.783 402.76 218.327C406.282 235.122 414.168 257.395 433.364 259.944C435.695 260.122 435.869 256.503 434.009 255.79Z" fill="#E2543D"/>
<path d="M383.366 222.887C376.817 219.368 371.887 213.331 369.652 206.093C367.742 200.282 366.254 194.828 362.509 189.935C359.586 185.945 355.717 182.79 351.272 180.769C346.827 178.748 341.953 177.93 337.113 178.391C336.27 178.391 335.898 179.843 336.89 180.047C349.439 182.596 359.657 189.782 363.749 202.601C367.196 213.407 370.842 222.326 381.804 226.786C383.962 227.576 385.326 224.034 383.366 222.887Z" fill="#E2543D"/>
<path d="M441.102 339.25C441.226 344.983 439.819 350.641 437.035 355.611C427.834 370.57 406.679 369.908 391.724 368.99C331.955 365.346 271.665 382.217 212.813 383.465C174.744 384.256 143.62 376.763 105.278 373.093C77.0303 370.392 73.4094 346.029 80.4776 322.124C90.5466 288.357 108.329 258.565 137.37 239.732C156.02 227.678 177.051 221.689 198.627 218.452C217.234 216.011 235.949 214.548 254.701 214.069C260.083 213.814 269.929 213.687 275.162 213.661C289.895 213.407 304.632 213.968 319.307 215.343C336.064 216.839 352.503 220.938 368.064 227.499C387.105 236.284 403.258 250.554 414.565 268.581C427.759 288.739 441.449 314.275 441.102 339.25Z" fill="#766DE2"/>
<path d="M268.366 229.974C272.036 229.566 275.806 229.133 279.477 228.776V228.547C278.633 220.901 278.088 213.256 277.641 205.61C276.674 189.734 276.129 173.78 273.897 158.234C273.909 157.988 273.909 157.742 273.897 157.495C272.508 148.041 263.133 147.505 254.825 147.607C248.55 147.607 242.673 149.442 239.945 155.711C237.465 161.114 237.465 168.326 237.465 175.207C237.465 179.208 237.663 183.108 237.465 186.522C237.117 192.766 236.721 199.035 236.249 205.254C235.828 210.886 235.357 216.492 234.861 222.125C234.737 223.399 234.265 227.043 233.596 232.115C245.029 230.84 256.71 231.248 268.366 229.974Z" fill="#FEB59C"/>
<path d="M277.617 205.685C269.568 207.392 261.354 208.136 253.139 207.902C247.937 208.033 242.746 207.363 237.738 205.914C237.217 205.736 236.671 205.557 236.125 205.328C236.597 199.11 236.994 192.84 237.341 186.597C237.539 183.182 237.341 179.282 237.341 175.281L238.01 174.721C245.078 168.936 253.734 165.725 262.24 162.59L273.872 158.309C276.104 173.854 276.65 189.808 277.617 205.685Z" fill="#FF9578"/>
<path d="M211.87 55.1969C211.87 55.1969 203.19 120.794 211.325 156.193C211.646 157.625 212.226 158.982 213.036 160.194C217.5 166.743 233.918 189.246 252.122 193.604C255.404 194.375 258.825 194.243 262.042 193.222C271.441 190.291 295.299 179.97 308.072 159.684C308.632 158.786 309.058 157.807 309.336 156.779C311.494 148.853 320.199 112.894 312.238 50.5586C312.238 50.5586 308.865 32.0058 256.958 33.1526C257.007 33.1271 225.412 33.1271 211.87 55.1969Z" fill="#FEB59C"/>
<path d="M277.766 59.9143C284.681 70.0678 292.404 79.6148 300.855 88.4571C307.08 94.9557 314.619 101.429 323.175 100.97C324.787 88.5845 325.656 75.8422 322.927 63.7115C320.199 51.5808 313.33 40.0107 302.938 34.7099C298.049 32.4289 292.814 31.0322 287.463 30.5814C273.117 28.8642 258.591 29.7266 244.533 33.1299C234.613 35.6784 224.395 39.4756 216.806 47.0955C207.035 56.8816 202.744 71.4079 199.222 85.3225C197.313 92.815 189.625 111.776 198.602 116.133C206.464 119.931 220.179 109.507 226.627 105.634C236.473 99.7493 245.756 92.9231 254.354 85.246C256.636 83.1053 279.08 61.9021 277.766 59.9143Z" fill="#F4694C"/>
<path d="M245.525 117.228C241.755 114.861 237.485 113.463 233.077 113.152C228.669 112.842 224.253 113.628 220.204 115.444C219.997 115.568 219.836 115.759 219.745 115.986C219.654 116.214 219.638 116.466 219.7 116.703C219.762 116.941 219.898 117.151 220.088 117.301C220.278 117.451 220.51 117.533 220.749 117.534C224.52 116.907 228.34 116.659 232.158 116.795H232.455C231.782 117.525 231.266 118.394 230.942 119.343C229.38 123.803 229.653 130.862 234.836 132.748C238.482 134.048 240.243 129.741 240.689 126.81C240.881 124.008 240.622 121.192 239.92 118.477L244.483 119.828C244.819 119.969 245.195 119.969 245.53 119.825C245.865 119.682 246.131 119.408 246.269 119.063C246.407 118.718 246.406 118.331 246.267 117.987C246.127 117.643 245.861 117.37 245.525 117.228Z" fill="#2D3063"/>
<path d="M304.079 116.185C296.242 112.362 279.08 113.177 273.277 120.695C273.177 120.807 273.11 120.946 273.085 121.095C273.059 121.245 273.076 121.399 273.134 121.539C273.192 121.678 273.287 121.798 273.409 121.884C273.531 121.969 273.675 122.017 273.822 122.021C275.767 121.885 277.686 121.482 279.526 120.823C279.107 122.587 279.095 124.428 279.491 126.198C279.887 127.968 280.681 129.618 281.808 131.017C284.288 133.565 287.661 132.24 288.926 128.952C289.552 127.267 289.823 125.464 289.72 123.662C289.618 121.861 289.144 120.103 288.331 118.504C293.291 117.943 298.251 118.809 303.434 118.733C304.649 118.682 305.319 116.796 304.079 116.185Z" fill="#2D3063"/>
<path d="M267.151 145.799C264.55 146.322 261.913 146.637 259.264 146.742C256.363 146.461 256.239 146.487 257.008 143.734C258.207 140.537 259.193 137.258 259.959 133.923C260.628 129.183 260.579 120.926 254.701 119.906C254.106 119.906 253.659 120.645 254.255 121.002C259.785 124.188 257.082 134.305 255.395 138.841C254.651 140.906 251.353 145.416 252.246 147.914C253.957 152.756 264.844 149.927 267.796 148.194C267.997 148.029 268.147 147.807 268.227 147.555C268.307 147.303 268.313 147.033 268.244 146.777C268.175 146.522 268.035 146.293 267.841 146.119C267.646 145.945 267.406 145.834 267.151 145.799Z" fill="#FF9578"/>
<path d="M276.278 154.87C265.985 155.838 255.148 156.806 245.5 160.935C244.062 161.572 240.937 163.483 243.02 165.191C254.627 174.748 272.781 172.836 278.088 157.163C278.177 156.884 278.196 156.586 278.144 156.298C278.092 156.009 277.97 155.738 277.79 155.51C277.61 155.282 277.377 155.104 277.113 154.992C276.849 154.88 276.562 154.838 276.278 154.87Z" fill="white"/>
<path d="M280.816 50.3307C270.499 66.1822 259.785 80.4281 244.954 92.1765C230.337 103.46 214.039 112.239 196.692 118.171C196.508 118.251 196.359 118.397 196.272 118.582C196.186 118.768 196.168 118.979 196.223 119.177C196.278 119.375 196.402 119.545 196.57 119.655C196.739 119.766 196.941 119.809 197.139 119.776C215.423 115.568 232.553 107.189 247.261 95.2602C261.645 83.894 275.707 69.0364 283.99 52.2166C284.208 51.7858 284.256 51.2852 284.124 50.8191C283.992 50.3529 283.689 49.9572 283.28 49.7142C282.871 49.4711 282.387 49.3996 281.928 49.5145C281.469 49.6293 281.07 49.9217 280.816 50.3307Z" fill="#E2543D"/>
<path d="M319.306 215.343C306.534 230.634 291.183 243.86 272.458 248.855C257.148 252.818 240.969 251.094 226.776 243.988C215.443 238.236 205.785 229.516 198.776 218.707L198.652 218.503C217.249 216.046 235.957 214.566 254.701 214.069C260.083 213.814 269.929 213.687 275.161 213.661C289.895 213.407 304.631 213.968 319.306 215.343Z" fill="#FEB59C"/>
<path d="M403.901 301.431C398.494 299.673 391.749 301.278 386.367 302.578C379.827 304.18 373.523 306.665 367.618 309.969C356.507 316.187 344.975 325.591 339.221 337.39C338.353 339.174 340.66 341.366 342.098 339.658C350.307 329.872 357.995 320.825 369.131 314.352C374.413 311.291 380.001 308.822 385.797 306.987C391.65 305.152 398.197 305.025 403.901 302.68C404.026 302.634 404.135 302.55 404.212 302.438C404.289 302.326 404.33 302.193 404.33 302.056C404.33 301.919 404.289 301.785 404.212 301.674C404.135 301.562 404.026 301.477 403.901 301.431Z" fill="#6664D8"/>
<path d="M196.445 333.849C187.343 323.197 172.438 316.214 159.641 311.678C146.373 306.989 131.542 304.389 117.48 306.581C116.389 306.759 116.761 308.39 117.728 308.467C131.641 309.664 145.133 311.143 158.376 315.883C164.938 318.251 171.266 321.254 177.274 324.853C183.201 328.37 188.385 332.957 194.163 336.653C196.073 337.978 197.734 335.429 196.445 333.849Z" fill="#6664D8"/>
<path d="M271.59 261.064C254.627 264.963 237.713 265.396 221.568 257.802C207.555 251.201 198.875 240.472 189.054 228.851C188.888 228.677 188.67 228.565 188.435 228.533C188.2 228.501 187.961 228.55 187.756 228.673C187.551 228.796 187.392 228.985 187.304 229.211C187.215 229.437 187.203 229.687 187.268 229.921C192.501 244.652 207.258 256.477 220.898 262.491C236.77 269.525 256.263 271.181 272.483 264.402C272.896 264.264 273.241 263.969 273.447 263.576C273.652 263.184 273.703 262.725 273.588 262.295C273.473 261.865 273.201 261.497 272.829 261.268C272.457 261.039 272.013 260.965 271.59 261.064Z" fill="#6664D8"/>
<path d="M328.508 226.993C321.315 232.421 315.289 239.302 308.047 244.832C300.454 250.158 292.184 254.386 283.47 257.396C281.907 258.007 281.957 260.709 283.891 260.607C292.795 260.123 301.673 255.128 308.865 250.031C317.059 244.514 324.463 237.849 330.864 230.229C332.104 228.522 330.442 225.54 328.508 226.993Z" fill="#6664D8"/>
<path d="M266.035 337.491C278.942 338.188 291.881 337.915 304.749 336.675C320.844 334.738 336.468 329.973 351.87 325.207C342.856 339.855 334.675 355.027 327.367 370.646C289.174 373.551 250.832 370.391 212.664 367.257C211.796 357.827 205.447 350.029 199.396 342.893C195.18 337.796 188.211 332.062 185.83 326.124C189.798 323.398 198.23 328.673 202.645 329.896C209.666 331.889 216.808 333.404 224.023 334.432C237.94 336.458 251.979 337.479 266.035 337.491Z" fill="#6664D8"/>
<path d="M73.1117 393.329C72.9133 394.144 72.6653 394.985 72.4173 395.877C71.9709 397.279 71.4749 398.681 70.9044 400.057C67.0276 409.866 60.6123 418.397 52.3537 424.726C41.8878 431.913 21.601 432.779 9.57276 425.847C1.36379 421.107 -2.97631 412.748 2.30621 400.363C3.56091 397.446 5.06301 394.649 6.7951 392.004C12.5518 383.317 19.9897 375.943 28.6444 370.342C29.5372 369.756 30.4548 369.22 31.3476 368.685C33.2903 367.565 35.2942 366.561 37.3493 365.678C42.8594 363.074 48.8688 361.776 54.9329 361.881C57.9266 361.967 60.8657 362.726 63.5435 364.104C66.2214 365.482 68.573 367.446 70.4332 369.858C75.0213 376.407 75.2941 384.817 73.1117 393.329Z" fill="#2D3063"/>
<path d="M73.1117 393.327C69.8132 406.07 60.7114 418.812 52.3537 424.648C41.8878 431.835 21.601 432.701 9.57276 425.769C1.36379 421.029 -2.97631 412.67 2.30621 400.285C3.56091 397.369 5.06301 394.571 6.7951 391.926C6.78279 392.155 6.78279 392.385 6.7951 392.614C6.68578 395.155 7.06787 397.693 7.91925 400.082C8.77064 402.47 10.0744 404.661 11.7552 406.529C17.6577 413.053 26.9579 415.244 35.6381 414.786C43.0275 414.226 50.2091 412.016 56.6815 408.31C63.1539 404.604 68.7611 399.491 73.1117 393.327Z" fill="#21254F"/>
<path d="M70.9042 400.11C70.8112 396.55 69.6698 393.102 67.6305 390.222C62.9184 383.672 55.4535 382.577 48.5589 386.043C42.2066 388.895 36.8084 393.6 33.0338 399.575L31.893 401.537C30.8514 403.347 29.7601 405.131 28.6193 406.864C26.1393 410.975 23.6592 415.078 21.1792 419.173C20.9852 419.49 20.6977 419.735 20.3587 419.872C20.0197 420.01 19.6468 420.033 19.2943 419.937L18.0295 421.619C16.9135 423.148 14.731 421.237 15.8471 419.733C18.1535 416.675 20.4352 413.591 22.6424 410.457L27.4537 402.48C29.1175 399.476 30.9389 396.566 32.9098 393.764C33.2074 393.178 33.505 392.592 33.7778 392.006C36.2579 386.578 38.7379 379.264 34.8195 373.784C34.0814 372.787 33.1438 371.964 32.07 371.371C30.9962 370.777 29.8111 370.427 28.5945 370.344C29.4873 369.758 30.405 369.223 31.2978 368.688L32.1162 368.942C34.404 369.938 36.3331 371.641 37.6354 373.815C38.9377 375.989 39.5484 378.526 39.3827 381.073C39.3389 383.598 38.9121 386.1 38.1179 388.489C43.0473 384.263 49.0922 381.645 55.4783 380.971C59.5596 381.051 63.4868 382.587 66.5864 385.316C69.6861 388.046 71.765 391.798 72.4666 395.931C71.921 397.205 71.4746 398.607 70.9042 400.11Z" fill="#21254F"/>
<path d="M34.3485 400.923C33.1963 403.156 31.8162 405.258 30.2317 407.192C28.818 409.18 27.454 411.193 26.1396 413.257C25.7186 413.932 25.0859 414.439 24.3462 414.694C23.6064 414.949 22.8042 414.937 22.0723 414.659C19.5922 413.92 17.5338 411.168 19.121 408.645C21.7747 404.414 24.6267 398.986 28.7684 396.106C29.1943 395.795 29.6816 395.583 30.1958 395.486C30.7101 395.389 31.2387 395.409 31.7445 395.545C32.2857 395.68 32.7917 395.935 33.227 396.292C33.6623 396.649 34.0164 397.099 34.2645 397.611C34.5126 398.124 34.6487 398.685 34.6632 399.257C34.6777 399.829 34.5703 400.398 34.3485 400.923Z" fill="#A980F8"/>
<path d="M34.3485 400.924C33.1963 403.158 31.8162 405.259 30.2316 407.193C28.818 409.181 27.454 411.194 26.1396 413.259C25.7186 413.934 25.0859 414.441 24.3461 414.695C23.6064 414.95 22.8042 414.938 22.0723 414.66C23.4877 411.744 25.3556 409.085 27.6028 406.785C29.0605 404.924 30.2776 402.877 31.2237 400.695C31.5376 399.014 31.7118 397.309 31.7445 395.598C32.2794 395.734 32.7793 395.987 33.2098 396.341C33.6404 396.694 33.9914 397.139 34.2388 397.645C34.4862 398.151 34.6241 398.706 34.643 399.272C34.662 399.838 34.5615 400.402 34.3485 400.924Z" fill="#9471EA"/>
<path d="M60.0171 364.762C63.55 366.296 66.4465 369.056 68.2012 372.561C69.2009 374.331 69.5444 376.412 69.1685 378.422C68.954 379.415 68.4067 380.298 67.6223 380.918C66.8379 381.537 65.8665 381.854 64.878 381.812C63.0179 381.557 61.7531 379.798 60.4387 378.422C58.9453 376.89 57.1296 375.73 55.1314 375.033C53.0481 374.319 50.8161 374.115 48.8072 373.249C44.7399 371.49 43.4007 366.215 47.9144 363.896C51.0641 362.29 57.041 363.463 60.0171 364.762Z" fill="#393F72"/>
<path d="M117.058 363.666C117.058 363.666 293.142 357.855 417.144 357.855C429.552 379.535 439.765 402.463 447.624 426.282C447.624 426.282 157.582 430.92 75.2197 427.429C85.6686 403.961 99.8035 382.419 117.058 363.666Z" fill="#2D3063"/>
<path d="M75.3188 427.428V439.024C75.3188 439.024 382.275 447.153 447.723 440.196V426.281L75.3188 427.428Z" fill="#FD7EA3"/>
<path d="M209.614 370.621L320.199 369.449V383.364L209.787 382.37L209.614 370.621Z" fill="#393F72"/>
<path d="M126.085 374.472L201.405 370.802C201.405 370.802 197.188 393.738 198.329 393.738H334.807L337.287 369.375H404.248L420.542 411.119L104.658 414.687L126.085 374.472Z" fill="#393F72"/>
<path d="M311.891 352.123C309.56 354.059 305.393 357.882 306.484 360.048C308.171 363.361 316.405 360.227 318.562 359.36L330.963 354.62C322.869 363.811 316.728 374.634 312.933 386.399C312.536 387.623 312.213 389.126 312.933 390.069C314.222 391.496 316.504 390.222 317.893 388.897C325.384 381.735 332.263 373.925 338.452 365.553L331.806 386.349C331.082 388.046 330.833 389.917 331.087 391.751C331.255 392.653 331.765 393.45 332.504 393.966C333.243 394.482 334.152 394.675 335.03 394.504C335.885 394.092 336.607 393.437 337.113 392.618C342.793 384.85 347.774 376.567 351.993 367.872C350.505 374.702 349.042 381.506 347.554 388.26C347.012 390.076 346.91 392.001 347.256 393.866C347.468 394.787 347.996 395.599 348.743 396.151C349.49 396.704 350.407 396.96 351.324 396.874C352.575 396.419 353.624 395.514 354.275 394.325C359.686 386.234 364.534 377.761 368.783 368.968C368.704 374.426 369.136 379.879 370.073 385.253C370.282 386.986 370.866 388.65 371.784 390.12C372.257 390.845 372.93 391.407 373.717 391.734C374.504 392.062 375.369 392.138 376.199 391.955C378.307 391.267 379.051 388.668 379.472 386.45C381.359 376.17 382.396 365.743 382.572 355.283C382.844 351.621 382.336 347.942 381.084 344.503C379.519 341.388 377.184 338.751 374.314 336.857C369.281 333.244 363.502 330.881 357.43 329.952C351.358 329.023 345.159 329.555 339.32 331.505C334.881 333.111 331.285 337.265 327.565 340.119C322.754 343.815 317.793 347.331 313.032 351.18L311.891 352.123Z" fill="#FEB59C"/>
<path d="M159.145 378.852C161.271 380.409 163.799 381.282 166.409 381.359C169.019 381.436 171.592 380.715 173.802 379.286C176.317 382.373 179.846 384.404 183.722 384.994C184.381 385.144 185.071 385.035 185.656 384.688C186.12 384.166 186.377 383.484 186.376 382.777C186.773 378.751 186.648 374.689 186.004 370.697C186.717 372.889 187.968 374.854 189.636 376.403C191.304 377.952 193.333 379.033 195.527 379.54C195.878 379.665 196.252 379.707 196.622 379.663C196.991 379.618 197.346 379.49 197.66 379.286C198.081 378.791 198.319 378.159 198.329 377.502C198.744 373.719 198.585 369.893 197.858 366.161C199.687 369.845 202.793 372.691 206.563 374.138C207.952 374.673 209.762 374.902 210.705 373.73C211.163 373.021 211.397 372.185 211.375 371.334C211.677 366.288 211.166 361.225 209.862 356.349C212.79 360.801 217.2 364 222.262 365.346C222.59 365.484 222.946 365.54 223.3 365.509C223.653 365.478 223.995 365.361 224.296 365.167C224.866 364.683 224.816 363.765 224.717 363.001C223.492 356.179 221.347 349.565 218.343 343.352C213.631 332.419 207.927 328.724 196.42 329.998C184.137 331.393 172.573 336.654 163.311 345.06C153.763 353.826 146.149 369.525 159.145 378.852Z" fill="#FEB59C"/>
<path d="M379.225 67.2539H448.17C448.881 67.2523 449.585 67.4009 450.237 67.6906C450.89 67.9803 451.478 68.4049 451.964 68.9379C452.45 69.4709 452.824 70.101 453.063 70.789C453.302 71.477 453.401 72.2081 453.353 72.937C452.287 89.553 446.831 137.107 418.633 139.197L419.401 179.106L431.058 191.696C431.321 191.978 431.498 192.334 431.566 192.719C431.633 193.104 431.589 193.501 431.438 193.86C431.287 194.219 431.036 194.524 430.717 194.738C430.398 194.951 430.025 195.063 429.644 195.06H392.096C391.718 195.058 391.348 194.943 391.032 194.727C390.717 194.512 390.47 194.206 390.322 193.848C390.174 193.49 390.132 193.095 390.201 192.712C390.269 192.33 390.445 191.976 390.707 191.696L402.339 179.106L406.232 139.197C406.232 139.197 373.719 128.825 375.777 70.7963C375.784 69.8589 376.149 68.9617 376.794 68.2988C377.439 67.6359 378.312 67.2606 379.225 67.2539Z" fill="#FDC044"/>
<path d="M413.995 122.708C425.459 122.708 434.753 111.994 434.753 98.7778C434.753 85.5615 425.459 74.8477 413.995 74.8477C402.53 74.8477 393.237 85.5615 393.237 98.7778C393.237 111.994 402.53 122.708 413.995 122.708Z" fill="white"/>
<path d="M421.608 105.838L417.963 107.01C417.566 99.1609 418.186 91.2861 416.946 83.4878C416.599 81.2451 413.697 81.3981 412.68 82.9016L404.248 95.3127C402.512 97.8612 406.579 100.41 408.29 97.8612C410.002 95.3127 411.415 93.2484 412.953 90.9293C413.251 96.8163 412.953 102.729 413.3 108.616L408.861 110.017C406.009 110.935 407.199 115.573 410.101 114.656L416.078 112.821H416.4L417.119 112.591L421.807 111.139C422.063 111.048 422.306 110.919 422.526 110.756H422.774C425.7 109.584 424.51 104.895 421.608 105.838Z" fill="#FDC044"/>
<path d="M448.517 49.285C447.996 49.1321 447.376 49.1066 446.856 48.9792C445.993 48.6923 445.217 48.1833 444.601 47.5008C443.984 46.8182 443.548 45.9849 443.334 45.08C442.764 43.3216 442.664 41.4357 442.094 39.6518C441.747 38.556 440.804 37.7914 439.614 38.6069C439.159 38.9982 438.816 39.5091 438.622 40.085C437.382 43.3216 439.738 49.3105 435.993 51.2983C434.902 51.8844 433.24 52.1393 433.215 53.388C433.215 54.1526 433.91 54.7132 434.604 54.9171C435.299 55.121 436.043 55.0955 436.737 55.3504C437.556 55.7605 438.255 56.3875 438.76 57.1668C439.266 57.9461 439.561 58.8497 439.614 59.7847C439.812 60.957 440.259 67.7614 442.813 64.8816C443.252 64.2979 443.527 63.6015 443.607 62.8683C443.954 61.0334 444.078 59.1731 444.599 57.3637C445.014 55.5263 446.051 53.9004 447.525 52.7764C448.468 52.1393 449.807 51.3748 449.435 50.2279C449.366 50.0069 449.247 49.8059 449.088 49.6419C448.928 49.4778 448.732 49.3555 448.517 49.285Z" fill="#FD7EA3"/>
<path d="M427.437 19.4693C426.519 19.189 425.428 19.1125 424.51 18.9086C422.988 18.4047 421.616 17.5111 420.523 16.3118C419.429 15.1125 418.651 13.647 418.261 12.0533C417.269 8.91865 417.095 5.58016 416.103 2.47103C415.508 0.534194 413.821 -0.841979 411.887 0.585163C411.087 1.2561 410.479 2.13663 410.126 3.13363C407.919 8.81671 412.11 19.4183 405.488 22.9097C403.579 23.9291 400.528 24.3878 400.528 26.605C400.528 27.9302 401.744 28.9241 403.008 29.3064C404.273 29.6887 405.488 29.6122 406.803 30.0454C409.829 31.0903 411.317 34.6327 411.763 37.8947C412.085 39.959 412.904 51.9623 417.417 46.7124C418.189 45.6858 418.67 44.4599 418.806 43.17C419.402 39.9335 419.674 36.6205 420.542 33.4349C421.332 30.2258 423.204 27.4085 425.825 25.4837C427.511 24.3369 429.867 22.9352 429.247 21.0239C429.095 20.6306 428.85 20.2826 428.534 20.0112C428.217 19.7398 427.841 19.5535 427.437 19.4693Z" fill="#FD7EA3"/>
<path d="M396.61 48.1413C396.089 47.9884 395.469 47.9374 394.948 47.8355C394.087 47.5464 393.312 47.0367 392.696 46.3545C392.08 45.6723 391.643 44.8401 391.426 43.9363C390.856 42.1524 390.757 40.2665 390.186 38.5081C389.839 37.4122 388.897 36.6222 387.706 37.4377C387.243 37.8313 386.898 38.3531 386.714 38.9413C385.449 42.1779 387.83 48.1668 384.085 50.1546C382.994 50.7152 381.332 50.9701 381.308 52.2443C381.308 52.9834 381.977 53.544 382.696 53.7479C383.416 53.9518 384.135 53.9518 384.829 54.1811C385.664 54.5818 386.38 55.2038 386.903 55.9832C387.426 56.7626 387.738 57.6712 387.805 58.6155C387.979 59.7878 388.45 66.5667 391.005 63.7124C391.429 63.1204 391.702 62.428 391.798 61.6991C392.145 59.8642 392.269 57.9783 392.765 56.1944C393.179 54.3562 394.216 52.7296 395.692 51.6072C396.634 50.9701 397.998 50.18 397.626 49.0587C397.549 48.8281 397.415 48.6222 397.236 48.4613C397.058 48.3004 396.842 48.1901 396.61 48.1413Z" fill="#FD7EA3"/>
</svg>
