<svg width="20" height="20" viewBox="0 0 20 20" fill="none" xmlns="http://www.w3.org/2000/svg">
<path d="M10.0004 12C10.1981 12 10.3915 11.9414 10.5559 11.8315C10.7204 11.7216 10.8486 11.5654 10.9242 11.3827C10.9999 11.2 11.0197 10.9989 10.9812 10.8049C10.9426 10.6109 10.8473 10.4327 10.7075 10.2929C10.5676 10.153 10.3894 10.0578 10.1955 10.0192C10.0015 9.98063 9.80041 10.0004 9.61768 10.0761C9.43496 10.1518 9.27878 10.28 9.1689 10.4444C9.05902 10.6089 9.00037 10.8022 9.00037 11C9.00037 11.2652 9.10572 11.5196 9.29326 11.7071C9.4808 11.8946 9.73515 12 10.0004 12ZM15.0004 12C15.1981 12 15.3915 11.9414 15.5559 11.8315C15.7204 11.7216 15.8486 11.5654 15.9242 11.3827C15.9999 11.2 16.0197 10.9989 15.9812 10.8049C15.9426 10.6109 15.8473 10.4327 15.7075 10.2929C15.5676 10.153 15.3894 10.0578 15.1955 10.0192C15.0015 9.98063 14.8004 10.0004 14.6177 10.0761C14.435 10.1518 14.2788 10.28 14.1689 10.4444C14.059 10.6089 14.0004 10.8022 14.0004 11C14.0004 11.2652 14.1057 11.5196 14.2933 11.7071C14.4808 11.8946 14.7351 12 15.0004 12ZM10.0004 16C10.1981 16 10.3915 15.9414 10.5559 15.8315C10.7204 15.7216 10.8486 15.5654 10.9242 15.3827C10.9999 15.2 11.0197 14.9989 10.9812 14.8049C10.9426 14.6109 10.8473 14.4327 10.7075 14.2929C10.5676 14.153 10.3894 14.0578 10.1955 14.0192C10.0015 13.9806 9.80041 14.0004 9.61768 14.0761C9.43496 14.1518 9.27878 14.28 9.1689 14.4444C9.05902 14.6089 9.00037 14.8022 9.00037 15C9.00037 15.2652 9.10572 15.5196 9.29326 15.7071C9.4808 15.8946 9.73515 16 10.0004 16ZM15.0004 16C15.1981 16 15.3915 15.9414 15.5559 15.8315C15.7204 15.7216 15.8486 15.5654 15.9242 15.3827C15.9999 15.2 16.0197 14.9989 15.9812 14.8049C15.9426 14.6109 15.8473 14.4327 15.7075 14.2929C15.5676 14.153 15.3894 14.0578 15.1955 14.0192C15.0015 13.9806 14.8004 14.0004 14.6177 14.0761C14.435 14.1518 14.2788 14.28 14.1689 14.4444C14.059 14.6089 14.0004 14.8022 14.0004 15C14.0004 15.2652 14.1057 15.5196 14.2933 15.7071C14.4808 15.8946 14.7351 16 15.0004 16ZM5.00037 12C5.19815 12 5.39149 11.9414 5.55594 11.8315C5.72039 11.7216 5.84856 11.5654 5.92425 11.3827C5.99993 11.2 6.01974 10.9989 5.98115 10.8049C5.94257 10.6109 5.84733 10.4327 5.70747 10.2929C5.56762 10.153 5.38944 10.0578 5.19546 10.0192C5.00148 9.98063 4.80041 10.0004 4.61768 10.0761C4.43496 10.1518 4.27878 10.28 4.1689 10.4444C4.05902 10.6089 4.00037 10.8022 4.00037 11C4.00037 11.2652 4.10572 11.5196 4.29326 11.7071C4.4808 11.8946 4.73515 12 5.00037 12ZM17.0004 2H16.0004V1C16.0004 0.734784 15.895 0.48043 15.7075 0.292893C15.5199 0.105357 15.2656 0 15.0004 0C14.7351 0 14.4808 0.105357 14.2933 0.292893C14.1057 0.48043 14.0004 0.734784 14.0004 1V2H6.00037V1C6.00037 0.734784 5.89501 0.48043 5.70747 0.292893C5.51994 0.105357 5.26558 0 5.00037 0C4.73515 0 4.4808 0.105357 4.29326 0.292893C4.10572 0.48043 4.00037 0.734784 4.00037 1V2H3.00037C2.20472 2 1.44166 2.31607 0.879046 2.87868C0.316437 3.44129 0.000366211 4.20435 0.000366211 5V17C0.000366211 17.7956 0.316437 18.5587 0.879046 19.1213C1.44166 19.6839 2.20472 20 3.00037 20H17.0004C17.796 20 18.5591 19.6839 19.1217 19.1213C19.6843 18.5587 20.0004 17.7956 20.0004 17V5C20.0004 4.20435 19.6843 3.44129 19.1217 2.87868C18.5591 2.31607 17.796 2 17.0004 2ZM18.0004 17C18.0004 17.2652 17.895 17.5196 17.7075 17.7071C17.5199 17.8946 17.2656 18 17.0004 18H3.00037C2.73515 18 2.4808 17.8946 2.29326 17.7071C2.10572 17.5196 2.00037 17.2652 2.00037 17V8H18.0004V17ZM18.0004 6H2.00037V5C2.00037 4.73478 2.10572 4.48043 2.29326 4.29289C2.4808 4.10536 2.73515 4 3.00037 4H17.0004C17.2656 4 17.5199 4.10536 17.7075 4.29289C17.895 4.48043 18.0004 4.73478 18.0004 5V6ZM5.00037 16C5.19815 16 5.39149 15.9414 5.55594 15.8315C5.72039 15.7216 5.84856 15.5654 5.92425 15.3827C5.99993 15.2 6.01974 14.9989 5.98115 14.8049C5.94257 14.6109 5.84733 14.4327 5.70747 14.2929C5.56762 14.153 5.38944 14.0578 5.19546 14.0192C5.00148 13.9806 4.80041 14.0004 4.61768 14.0761C4.43496 14.1518 4.27878 14.28 4.1689 14.4444C4.05902 14.6089 4.00037 14.8022 4.00037 15C4.00037 15.2652 4.10572 15.5196 4.29326 15.7071C4.4808 15.8946 4.73515 16 5.00037 16Z" fill="#66669A"/>
</svg>
