<svg width="30" height="30" viewBox="0 0 30 30" fill="none" xmlns="http://www.w3.org/2000/svg">
<path d="M15 18C15.2967 18 15.5867 17.912 15.8334 17.7472C16.08 17.5824 16.2723 17.3481 16.3858 17.074C16.4994 16.7999 16.5291 16.4983 16.4712 16.2074C16.4133 15.9164 16.2704 15.6491 16.0607 15.4393C15.8509 15.2296 15.5836 15.0867 15.2926 15.0288C15.0017 14.9709 14.7001 15.0006 14.426 15.1142C14.1519 15.2277 13.9176 15.42 13.7528 15.6666C13.588 15.9133 13.5 16.2033 13.5 16.5C13.5 16.8978 13.658 17.2794 13.9393 17.5607C14.2206 17.842 14.6022 18 15 18ZM22.5 18C22.7967 18 23.0867 17.912 23.3334 17.7472C23.58 17.5824 23.7723 17.3481 23.8858 17.074C23.9994 16.7999 24.0291 16.4983 23.9712 16.2074C23.9133 15.9164 23.7704 15.6491 23.5607 15.4393C23.3509 15.2296 23.0836 15.0867 22.7926 15.0288C22.5017 14.9709 22.2001 15.0006 21.926 15.1142C21.6519 15.2277 21.4176 15.42 21.2528 15.6666C21.088 15.9133 21 16.2033 21 16.5C21 16.8978 21.158 17.2794 21.4393 17.5607C21.7206 17.842 22.1022 18 22.5 18ZM15 24C15.2967 24 15.5867 23.912 15.8334 23.7472C16.08 23.5824 16.2723 23.3481 16.3858 23.074C16.4994 22.7999 16.5291 22.4983 16.4712 22.2074C16.4133 21.9164 16.2704 21.6491 16.0607 21.4393C15.8509 21.2296 15.5836 21.0867 15.2926 21.0288C15.0017 20.9709 14.7001 21.0006 14.426 21.1142C14.1519 21.2277 13.9176 21.42 13.7528 21.6666C13.588 21.9133 13.5 22.2033 13.5 22.5C13.5 22.8978 13.658 23.2794 13.9393 23.5607C14.2206 23.842 14.6022 24 15 24ZM22.5 24C22.7967 24 23.0867 23.912 23.3334 23.7472C23.58 23.5824 23.7723 23.3481 23.8858 23.074C23.9994 22.7999 24.0291 22.4983 23.9712 22.2074C23.9133 21.9164 23.7704 21.6491 23.5607 21.4393C23.3509 21.2296 23.0836 21.0867 22.7926 21.0288C22.5017 20.9709 22.2001 21.0006 21.926 21.1142C21.6519 21.2277 21.4176 21.42 21.2528 21.6666C21.088 21.9133 21 22.2033 21 22.5C21 22.8978 21.158 23.2794 21.4393 23.5607C21.7206 23.842 22.1022 24 22.5 24ZM7.5 18C7.79667 18 8.08668 17.912 8.33335 17.7472C8.58003 17.5824 8.77229 17.3481 8.88582 17.074C8.99935 16.7999 9.02906 16.4983 8.97118 16.2074C8.9133 15.9164 8.77044 15.6491 8.56066 15.4393C8.35088 15.2296 8.08361 15.0867 7.79264 15.0288C7.50166 14.9709 7.20006 15.0006 6.92597 15.1142C6.65189 15.2277 6.41762 15.42 6.2528 15.6666C6.08797 15.9133 6 16.2033 6 16.5C6 16.8978 6.15804 17.2794 6.43934 17.5607C6.72064 17.842 7.10218 18 7.5 18ZM25.5 3H24V1.5C24 1.10218 23.842 0.720644 23.5607 0.43934C23.2794 0.158035 22.8978 0 22.5 0C22.1022 0 21.7206 0.158035 21.4393 0.43934C21.158 0.720644 21 1.10218 21 1.5V3H9V1.5C9 1.10218 8.84196 0.720644 8.56066 0.43934C8.27936 0.158035 7.89782 0 7.5 0C7.10218 0 6.72064 0.158035 6.43934 0.43934C6.15804 0.720644 6 1.10218 6 1.5V3H4.5C3.30653 3 2.16193 3.47411 1.31802 4.31802C0.474106 5.16193 0 6.30653 0 7.5V25.5C0 26.6935 0.474106 27.8381 1.31802 28.682C2.16193 29.5259 3.30653 30 4.5 30H25.5C26.6935 30 27.8381 29.5259 28.682 28.682C29.5259 27.8381 30 26.6935 30 25.5V7.5C30 6.30653 29.5259 5.16193 28.682 4.31802C27.8381 3.47411 26.6935 3 25.5 3ZM27 25.5C27 25.8978 26.842 26.2794 26.5607 26.5607C26.2794 26.842 25.8978 27 25.5 27H4.5C4.10218 27 3.72064 26.842 3.43934 26.5607C3.15804 26.2794 3 25.8978 3 25.5V12H27V25.5ZM27 9H3V7.5C3 7.10218 3.15804 6.72064 3.43934 6.43934C3.72064 6.15804 4.10218 6 4.5 6H25.5C25.8978 6 26.2794 6.15804 26.5607 6.43934C26.842 6.72064 27 7.10218 27 7.5V9ZM7.5 24C7.79667 24 8.08668 23.912 8.33335 23.7472C8.58003 23.5824 8.77229 23.3481 8.88582 23.074C8.99935 22.7999 9.02906 22.4983 8.97118 22.2074C8.9133 21.9164 8.77044 21.6491 8.56066 21.4393C8.35088 21.2296 8.08361 21.0867 7.79264 21.0288C7.50166 20.9709 7.20006 21.0006 6.92597 21.1142C6.65189 21.2277 6.41762 21.42 6.2528 21.6666C6.08797 21.9133 6 22.2033 6 22.5C6 22.8978 6.15804 23.2794 6.43934 23.5607C6.72064 23.842 7.10218 24 7.5 24Z" fill="#343575"/>
</svg>
