<svg width="18" height="30" viewBox="0 0 18 30" fill="none" xmlns="http://www.w3.org/2000/svg">
<path d="M9.65006 13.1667C5.86672 12.1833 4.65006 11.1667 4.65006 9.58333C4.65006 7.76667 6.33339 6.5 9.15006 6.5C12.1167 6.5 13.2167 7.91667 13.3167 10H17.0001C16.8834 7.13333 15.1334 4.5 11.6501 3.65V0H6.65006V3.6C3.41672 4.3 0.816723 6.4 0.816723 9.61667C0.816723 13.4667 4.00006 15.3833 8.65006 16.5C12.8167 17.5 13.6501 18.9667 13.6501 20.5167C13.6501 21.6667 12.8334 23.5 9.15006 23.5C5.71672 23.5 4.36672 21.9667 4.18339 20H0.516724C0.716724 23.65 3.45006 25.7 6.65006 26.3833V30H11.6501V26.4167C14.9001 25.8 17.4834 23.9167 17.4834 20.5C17.4834 15.7667 13.4334 14.15 9.65006 13.1667Z" fill="#343575"/>
</svg>
