<svg width="30" height="26" viewBox="0 0 30 26" fill="none" xmlns="http://www.w3.org/2000/svg">
<path d="M9 12C10.5913 12 12.1174 11.3679 13.2426 10.2426C14.3679 9.11742 15 7.5913 15 6C15 4.4087 14.3679 2.88258 13.2426 1.75736C12.1174 0.632141 10.5913 0 9 0C7.4087 0 5.88258 0.632141 4.75736 1.75736C3.63214 2.88258 3 4.4087 3 6C3 7.5913 3.63214 9.11742 4.75736 10.2426C5.88258 11.3679 7.4087 12 9 12ZM22.5 12C23.6935 12 24.8381 11.5259 25.682 10.682C26.5259 9.83807 27 8.69347 27 7.5C27 6.30653 26.5259 5.16193 25.682 4.31802C24.8381 3.47411 23.6935 3 22.5 3C21.3065 3 20.1619 3.47411 19.318 4.31802C18.4741 5.16193 18 6.30653 18 7.5C18 8.69347 18.4741 9.83807 19.318 10.682C20.1619 11.5259 21.3065 12 22.5 12ZM3.375 15C2.47989 15 1.62145 15.3556 0.988515 15.9885C0.355579 16.6215 0 17.4799 0 18.375V18.75C0 18.75 0 25.5 9 25.5C18 25.5 18 18.75 18 18.75V18.375C18 17.4799 17.6444 16.6215 17.0115 15.9885C16.3785 15.3556 15.5201 15 14.625 15H3.375ZM22.5 23.25C20.7435 23.25 19.398 22.9785 18.3675 22.563C18.9672 21.5508 19.3436 20.4221 19.4715 19.2525C19.4861 19.1104 19.4956 18.9678 19.5 18.825V18.375C19.5019 17.1183 19.017 15.9098 18.147 15.003C18.198 15.0009 18.249 14.9999 18.3 15H26.7C27.5752 15 28.4146 15.3477 29.0335 15.9665C29.6523 16.5854 30 17.4248 30 18.3C30 18.3 30 23.25 22.5 23.25Z" fill="#343575"/>
</svg>
