<svg width="21" height="18" viewBox="0 0 21 18" fill="none" xmlns="http://www.w3.org/2000/svg">
<path d="M6.50037 8.5C7.56123 8.5 8.57865 8.07857 9.32879 7.32843C10.0789 6.57828 10.5004 5.56087 10.5004 4.5C10.5004 3.43913 10.0789 2.42172 9.32879 1.67157C8.57865 0.921427 7.56123 0.5 6.50037 0.5C5.4395 0.5 4.42208 0.921427 3.67194 1.67157C2.92179 2.42172 2.50037 3.43913 2.50037 4.5C2.50037 5.56087 2.92179 6.57828 3.67194 7.32843C4.42208 8.07857 5.4395 8.5 6.50037 8.5ZM15.5004 8.5C16.296 8.5 17.0591 8.18393 17.6217 7.62132C18.1843 7.05871 18.5004 6.29565 18.5004 5.5C18.5004 4.70435 18.1843 3.94129 17.6217 3.37868C17.0591 2.81607 16.296 2.5 15.5004 2.5C14.7047 2.5 13.9417 2.81607 13.379 3.37868C12.8164 3.94129 12.5004 4.70435 12.5004 5.5C12.5004 6.29565 12.8164 7.05871 13.379 7.62132C13.9417 8.18393 14.7047 8.5 15.5004 8.5ZM2.75037 10.5C2.15363 10.5 1.58133 10.7371 1.15938 11.159C0.737419 11.581 0.500366 12.1533 0.500366 12.75V13C0.500366 13 0.500366 17.5 6.50037 17.5C12.5004 17.5 12.5004 13 12.5004 13V12.75C12.5004 12.1533 12.2633 11.581 11.8414 11.159C11.4194 10.7371 10.8471 10.5 10.2504 10.5H2.75037ZM15.5004 16C14.3294 16 13.4324 15.819 12.7454 15.542C13.1452 14.8672 13.3961 14.1147 13.4814 13.335C13.4911 13.2403 13.4974 13.1452 13.5004 13.05V12.75C13.5016 11.9122 13.1784 11.1065 12.5984 10.502C12.6323 10.5006 12.6664 10.4999 12.7004 10.5H18.3004C18.8838 10.5 19.4434 10.7318 19.856 11.1444C20.2686 11.5569 20.5004 12.1165 20.5004 12.7C20.5004 12.7 20.5004 16 15.5004 16Z" fill="#66669A"/>
</svg>
