<svg width="44" height="41" viewBox="0 0 44 41" fill="none" xmlns="http://www.w3.org/2000/svg">
<path d="M8.8 4.10001C6.36997 4.10001 4.4 5.93567 4.4 8.20002V24.6001C4.4 26.8644 6.36997 28.7001 8.8 28.7001H11C12.215 28.7001 13.2 29.6179 13.2 30.7501V35.1196L22.9797 29.0444C23.341 28.8199 23.7657 28.7001 24.2 28.7001H35.2C37.6301 28.7001 39.6 26.8644 39.6 24.6001V8.20002C39.6 5.93567 37.6301 4.10001 35.2 4.10001H8.8ZM0 8.20002C0 3.67127 3.93989 0 8.8 0H35.2C40.0602 0 44 3.67127 44 8.20002V24.6001C44 29.1288 40.0602 32.8001 35.2 32.8001H24.8661L12.2203 40.6557C11.5452 41.0752 10.6773 41.1141 9.96191 40.7574C9.24656 40.4007 8.8 39.7062 8.8 38.9501V32.8001C3.93989 32.8001 0 29.1288 0 24.6001V8.20002Z" fill="white"/>
</svg>
