<svg width="29" height="40" viewBox="0 0 29 40" fill="none" xmlns="http://www.w3.org/2000/svg">
<path d="M14.1725 19.4014C12.8301 19.4014 11.5427 18.8847 10.5935 17.9649C9.6443 17.0452 9.11104 15.7977 9.11104 14.497C9.11104 13.1963 9.6443 11.9488 10.5935 11.0291C11.5427 10.1093 12.8301 9.59259 14.1725 9.59259C15.5149 9.59259 16.8023 10.1093 17.7515 11.0291C18.7007 11.9488 19.234 13.1963 19.234 14.497C19.234 15.1411 19.1031 15.7788 18.8487 16.3738C18.5944 16.9689 18.2215 17.5095 17.7515 17.9649C17.2815 18.4204 16.7236 18.7816 16.1095 19.0281C15.4954 19.2746 14.8372 19.4014 14.1725 19.4014ZM14.1725 0.764648C10.4138 0.764648 6.80909 2.21145 4.15129 4.78676C1.4935 7.36208 0.000366211 10.855 0.000366211 14.497C0.000366211 24.7963 14.1725 39.9999 14.1725 39.9999C14.1725 39.9999 28.3447 24.7963 28.3447 14.497C28.3447 10.855 26.8515 7.36208 24.1937 4.78676C21.5359 2.21145 17.9312 0.764648 14.1725 0.764648Z" fill="white"/>
</svg>
