<svg width="36" height="37" viewBox="0 0 36 37" fill="none" xmlns="http://www.w3.org/2000/svg">
<path d="M32.3896 37L20.0971 24.05C19.1215 24.8722 17.9996 25.5231 16.7314 26.0028C15.4631 26.4824 14.1135 26.7222 12.6827 26.7222C9.13802 26.7222 6.13841 25.4286 3.68382 22.8413C1.22924 20.2541 0.00130079 17.094 0 13.3611C0 9.62685 1.22794 6.46678 3.68382 3.88089C6.13971 1.295 9.13932 0.00137037 12.6827 0C16.2273 0 19.2269 1.29363 21.6815 3.88089C24.1361 6.46815 25.364 9.62822 25.3653 13.3611C25.3653 14.8685 25.1377 16.2903 24.6824 17.6264C24.2271 18.9625 23.6093 20.1444 22.8288 21.1722L35.1212 34.1222L32.3896 37ZM12.6827 22.6111C15.1216 22.6111 17.1951 21.7115 18.903 19.9122C20.6109 18.1129 21.4643 15.9292 21.463 13.3611C21.463 10.7917 20.609 8.6073 18.9011 6.808C17.1931 5.0087 15.1203 4.10974 12.6827 4.11111C10.2437 4.11111 8.17023 5.01076 6.4623 6.81006C4.75437 8.60935 3.90106 10.793 3.90236 13.3611C3.90236 15.9306 4.75632 18.1149 6.46425 19.9142C8.17219 21.7135 10.245 22.6125 12.6827 22.6111Z" fill="#66669A"/>
</svg>
