<svg width="417" height="416" viewBox="0 0 417 416" fill="none" xmlns="http://www.w3.org/2000/svg">
<path d="M28 174C26 205.5 32 353.893 32 353.893H379C379.833 345.56 381 308.793 379 228.393C377 147.993 358.656 96.6675 341 73.3934C297 15.3934 215.5 1.22461 185.5 6C155.5 10.7754 91.8 40.6934 65 77.8934C38.2 115.093 30 142.5 28 174Z" fill="#343575"/>
<path d="M2 353.893H32M401.5 353.893H379M32 353.893C32 353.893 26 205.5 28 174C30 142.5 38.2 115.093 65 77.8934C91.8 40.6934 155.5 10.7754 185.5 6C215.5 1.22461 297 15.3934 341 73.3934C358.656 96.6675 377 147.993 379 228.393C381 308.793 379.833 345.56 379 353.893M32 353.893H379" stroke="#343575" stroke-width="3" stroke-linecap="round"/>
<path d="M74.5001 177.499C72.6928 208.193 79.5001 350.999 79.5001 350.999H376.668C377.421 342.879 378.476 306.343 376.668 227.999C374.861 149.654 359.455 103.678 343.5 80.9991C303.74 24.4818 236.109 10.3467 209 15C181.891 19.6533 130.717 44.7497 106.5 80.9987C82.2828 117.248 76.3074 146.804 74.5001 177.499Z" fill="white"/>
<path fill-rule="evenodd" clip-rule="evenodd" d="M105.573 221C104.544 223.913 101.766 226 98.5 226C94.3579 226 91 222.642 91 218.5C91 214.358 94.3579 211 98.5 211C101.766 211 104.544 213.087 105.573 216H120.5C121.881 216 123 217.119 123 218.5C123 219.881 121.881 221 120.5 221H105.573Z" fill="#343575"/>
<path d="M244.441 152.321C244.441 156.347 248.106 157.689 249.939 157.857C256.27 157.857 270.231 157.857 275.429 157.857C280.627 157.857 281.26 154.166 280.927 152.321V106.527C280.593 105.352 279.027 103.004 275.429 103.004H242.942C240.943 103.004 237.023 102.739 236.444 106.527C235.445 113.069 236.444 145.729 236.444 162" stroke="#343575" stroke-width="3" stroke-linecap="round"/>
<path d="M244.441 232.321C244.441 236.347 248.106 237.689 249.939 237.857C256.27 237.857 270.231 237.857 275.429 237.857C280.627 237.857 281.26 234.166 280.927 232.321V186.527C280.593 185.352 279.027 183.004 275.429 183.004H242.942C240.943 183.004 237.023 182.739 236.444 186.527C235.445 193.069 236.444 225.729 236.444 242" stroke="#343575" stroke-width="3" stroke-linecap="round"/>
<path d="M152.074 152.45V106.536C152.411 105.359 153.992 103.004 157.627 103.004H190.438C192.457 103.004 196.415 102.738 197 106.536V152.45C197 158 194.737 158 183.371 158H157.627C152.377 158 151.737 154.3 152.074 152.45Z" stroke="#343575" stroke-width="3" stroke-linecap="round"/>
<path d="M152.074 232.45V186.536C152.411 185.359 153.992 183.004 157.627 183.004H190.438C192.457 183.004 196.415 182.738 197 186.536V232.45C197 238 194.737 238 183.371 238H157.627C152.377 238 151.737 234.3 152.074 232.45Z" stroke="#343575" stroke-width="3" stroke-linecap="round"/>
<path d="M319.025 276.303L404.003 306C404.003 306 412.443 298.068 414.714 291.357C417.136 284.2 414.714 272.009 414.714 272.009C414.714 272.009 348.731 273.726 350.445 263.422C352.159 253.117 351.488 242.964 343.661 236.945C335.835 230.925 316.668 224.851 307.242 243.743C297.816 262.635 311.17 273.321 319.025 276.303Z" fill="white"/>
<path d="M404.003 306L319.025 276.303C311.17 273.321 297.816 262.635 307.242 243.743C316.668 224.851 335.835 230.925 343.661 236.945C351.488 242.964 352.159 253.117 350.445 263.422C348.731 273.726 414.714 272.009 414.714 272.009" stroke="#343575" stroke-width="3" stroke-linecap="round"/>
<path d="M328 203H334L331.5 219H328V203Z" fill="#343575"/>
<path d="M315.246 215.292L320 212L322.861 220.364L320.088 222.285L315.246 215.292Z" fill="#343575"/>
<path d="M97.48 402.12C97.4533 402.2 97.44 402.28 97.44 402.36C97.4667 402.413 97.4533 402.453 97.4 402.48C97.08 402.853 96.7467 403.24 96.4 403.64C96.08 404.04 95.76 404.453 95.44 404.88L95.08 405.24C94.9467 405.267 94.8 405.28 94.64 405.28C94.5067 405.28 94.36 405.293 94.2 405.32C94.0933 405.347 93.9733 405.373 93.84 405.4C93.7333 405.453 93.6267 405.507 93.52 405.56C93.28 405.48 93.0667 405.387 92.88 405.28C92.6933 405.2 92.5333 405.067 92.4 404.88C92.3733 404.773 92.2933 404.68 92.16 404.6C91.76 404.307 91.36 404.013 90.96 403.72C90.56 403.4 90.1333 403.133 89.68 402.92C89.5733 402.867 89.4667 402.813 89.36 402.76C89.2533 402.707 89.1333 402.64 89 402.56C88.8667 402.507 88.72 402.44 88.56 402.36C88.4 402.28 88.2133 402.2 88 402.12C87.8933 402.013 87.76 401.907 87.6 401.8C87.4667 401.667 87.3333 401.533 87.2 401.4C86.96 401.133 86.6533 400.907 86.28 400.72C86.12 400.667 85.9733 400.587 85.84 400.48C85.7067 400.347 85.5733 400.227 85.44 400.12C85.0933 399.933 84.76 399.787 84.44 399.68C84.2267 399.413 84.0533 399.187 83.92 399C83.7067 398.867 83.4667 398.84 83.2 398.92C83.1733 398.947 83.1467 398.987 83.12 399.04C83.0933 399.067 83.08 399.107 83.08 399.16C83 399.747 82.9067 400.36 82.8 401C82.72 401.613 82.6267 402.227 82.52 402.84C82.5733 402.893 82.6133 402.96 82.64 403.04C82.6933 403.12 82.7467 403.2 82.8 403.28C82.8533 403.52 82.8533 403.773 82.8 404.04C82.7733 404.28 82.7867 404.52 82.84 404.76C82.8667 405 82.8667 405.24 82.84 405.48C82.84 405.72 82.84 405.96 82.84 406.2C82.84 406.467 82.72 406.6 82.48 406.6C82.1867 406.573 81.9067 406.573 81.64 406.6C81.3733 406.653 81.0933 406.707 80.8 406.76C80.3733 406.787 79.9333 406.8 79.48 406.8C79.0533 406.827 78.64 406.853 78.24 406.88C77.9733 406.88 77.72 406.84 77.48 406.76C77.24 406.68 77 406.587 76.76 406.48C76.44 406.373 76.2667 406.187 76.24 405.92C76.2133 405.707 76.1867 405.48 76.16 405.24C76.16 405.027 76.1333 404.827 76.08 404.64C76.0533 404.427 76.0667 404.227 76.12 404.04C76.1733 403.853 76.2133 403.667 76.24 403.48C76.1867 403.267 76.12 403.067 76.04 402.88C75.9867 402.693 75.96 402.48 75.96 402.24C76.0133 402.133 76.0267 402.04 76 401.96C75.9733 401.88 75.9467 401.8 75.92 401.72C75.8133 401.507 75.7467 401.28 75.72 401.04C75.72 400.8 75.7333 400.573 75.76 400.36C75.7867 400.067 75.7867 399.787 75.76 399.52C75.7333 399.253 75.6667 399.013 75.56 398.8C75.5867 398.56 75.6133 398.347 75.64 398.16C75.6933 397.947 75.72 397.747 75.72 397.56C75.72 397.4 75.7467 397.24 75.8 397.08C75.8533 396.893 75.8667 396.707 75.84 396.52C75.8133 396.333 75.7867 396.147 75.76 395.96C75.76 395.773 75.76 395.587 75.76 395.4C75.76 394.707 75.7467 394.04 75.72 393.4C75.72 392.733 75.72 392.067 75.72 391.4C75.7733 390.947 75.72 390.533 75.56 390.16C75.72 389.947 75.84 389.747 75.92 389.56C76.0267 389.347 76.1867 389.16 76.4 389C76.48 388.92 76.4 388.84 76.16 388.76C76.1333 388.76 76.1067 388.76 76.08 388.76C76.08 388.733 76.0667 388.72 76.04 388.72C75.9333 388.533 75.9067 388.347 75.96 388.16C76.0133 387.947 76.0133 387.747 75.96 387.56C75.9333 387.347 75.96 387.16 76.04 387C76.1467 386.84 76.2 386.667 76.2 386.48C76.1733 386.347 76.1467 386.227 76.12 386.12C76.12 386.013 76.1067 385.907 76.08 385.8C76.1067 385.72 76.12 385.627 76.12 385.52C76.1467 385.387 76.1733 385.267 76.2 385.16C76.04 384.547 75.9467 383.933 75.92 383.32C75.92 382.707 75.92 382.093 75.92 381.48C75.92 381.32 75.96 381.16 76.04 381C76.04 380.893 76.0667 380.813 76.12 380.76C76.1733 380.68 76.2267 380.613 76.28 380.56C76.68 380.4 77.08 380.253 77.48 380.12C77.88 379.96 78.2933 379.893 78.72 379.92C78.9333 379.947 79.16 379.92 79.4 379.84C79.6933 379.707 79.9867 379.653 80.28 379.68C80.5733 379.68 80.8667 379.707 81.16 379.76C81.3733 379.813 81.5733 379.88 81.76 379.96C81.9467 380.013 82.12 380.12 82.28 380.28C82.4933 380.307 82.68 380.28 82.84 380.2C83.0267 380.093 83.2133 380.04 83.4 380.04C83.4267 380.067 83.4533 380.08 83.48 380.08C83.5333 380.08 83.56 380.107 83.56 380.16C83.7733 380.507 83.88 380.88 83.88 381.28C83.8533 381.44 83.8533 381.613 83.88 381.8C83.9333 381.96 83.9867 382.147 84.04 382.36C83.9867 382.52 83.9467 382.707 83.92 382.92C83.8933 383.107 83.8533 383.307 83.8 383.52C83.7733 383.813 83.7733 384.12 83.8 384.44C83.8267 384.653 83.84 384.88 83.84 385.12C83.84 385.36 83.84 385.587 83.84 385.8C83.84 385.88 83.8267 385.96 83.8 386.04C83.7733 386.093 83.76 386.147 83.76 386.2C83.6267 386.493 83.5467 386.733 83.52 386.92C83.52 387.08 83.52 387.24 83.52 387.4C83.52 387.533 83.5333 387.68 83.56 387.84C83.56 387.867 83.5467 387.92 83.52 388C83.4933 388.08 83.4933 388.147 83.52 388.2C83.5733 388.467 83.6 388.747 83.6 389.04C83.6 389.307 83.6133 389.587 83.64 389.88C83.64 390.067 83.72 390.2 83.88 390.28C84.04 390.253 84.1867 390.187 84.32 390.08C84.4533 389.973 84.6133 389.92 84.8 389.92C85.0933 389.68 85.3733 389.48 85.64 389.32C85.7467 389.267 85.84 389.227 85.92 389.2C86.0267 389.173 86.1333 389.147 86.24 389.12C86.4 389.04 86.5067 388.92 86.56 388.76C86.64 388.573 86.7333 388.427 86.84 388.32C87.4267 387.893 87.9467 387.44 88.4 386.96C88.5333 386.827 88.68 386.693 88.84 386.56C89.0267 386.4 89.2 386.267 89.36 386.16C89.4133 386.107 89.4667 386.067 89.52 386.04C89.5733 385.987 89.6133 385.947 89.64 385.92C89.9867 385.467 90.4 385.093 90.88 384.8C91.36 384.507 91.7867 384.2 92.16 383.88C92.4533 383.827 92.7333 383.773 93 383.72C93.2667 383.64 93.52 383.587 93.76 383.56C94.2133 383.613 94.4933 383.787 94.6 384.08C94.6533 384.187 94.7067 384.28 94.76 384.36C94.84 384.44 94.9067 384.533 94.96 384.64C95.2533 384.933 95.5467 385.24 95.84 385.56C96.1333 385.88 96.4267 386.2 96.72 386.52C96.8 386.6 96.8667 386.693 96.92 386.8C97 386.907 97.0667 387.013 97.12 387.12C97.1733 387.227 97.1733 387.32 97.12 387.4C97.0933 387.48 97.0533 387.547 97 387.6C96.84 387.76 96.6667 387.933 96.48 388.12C96.32 388.28 96.12 388.4 95.88 388.48C95.8267 388.507 95.7733 388.547 95.72 388.6C95.6667 388.627 95.6133 388.653 95.56 388.68C95.4267 388.787 95.3067 388.907 95.2 389.04C95.12 389.147 95.0933 389.293 95.12 389.48C95.04 389.587 94.96 389.667 94.88 389.72L93.92 390.56C93.92 390.56 93.8933 390.587 93.84 390.64C93.44 390.827 93.0667 391.053 92.72 391.32C92.4 391.56 92.0533 391.787 91.68 392C91.28 392.187 90.9067 392.413 90.56 392.68C90.24 392.947 89.96 393.267 89.72 393.64C89.6667 393.773 89.5733 393.88 89.44 393.96C89.3067 394.04 89.2133 394.16 89.16 394.32C89.16 394.453 89.1867 394.533 89.24 394.56C89.2933 394.587 89.36 394.627 89.44 394.68C89.52 394.733 89.6 394.787 89.68 394.84C89.92 394.947 90.1333 395.093 90.32 395.28C90.5067 395.44 90.68 395.627 90.84 395.84C91.0267 396.107 91.24 396.36 91.48 396.6C91.7467 396.813 92.0267 397.027 92.32 397.24C92.4 397.293 92.4933 397.373 92.6 397.48C92.7067 397.56 92.8133 397.64 92.92 397.72C93.1067 397.987 93.32 398.213 93.56 398.4C93.8267 398.587 94.08 398.773 94.32 398.96C94.48 399.067 94.64 399.187 94.8 399.32C94.9867 399.453 95.1733 399.587 95.36 399.72C95.4933 399.907 95.6133 400.12 95.72 400.36C95.8267 400.6 96.0267 400.747 96.32 400.8C96.48 401.093 96.6267 401.373 96.76 401.64C96.8933 401.907 97.1333 402.067 97.48 402.12ZM123.959 383.32C123.852 383.613 123.812 383.907 123.839 384.2C123.866 384.493 123.892 384.787 123.919 385.08V385.28C123.892 385.413 123.852 385.56 123.799 385.72C123.746 385.88 123.692 386.04 123.639 386.2C123.719 386.653 123.759 387.107 123.759 387.56C123.759 387.987 123.759 388.413 123.759 388.84C123.759 389.053 123.746 389.267 123.719 389.48C123.719 389.667 123.732 389.853 123.759 390.04C123.759 390.227 123.772 390.413 123.799 390.6C123.826 390.787 123.852 390.987 123.879 391.2C123.826 391.467 123.772 391.773 123.719 392.12C123.692 392.44 123.612 392.76 123.479 393.08C123.479 393.4 123.426 393.72 123.319 394.04C123.239 394.36 123.239 394.68 123.319 395C123.292 395.267 123.266 395.533 123.239 395.8C123.239 396.067 123.226 396.347 123.199 396.64C123.172 396.88 123.146 397.12 123.119 397.36C123.119 397.6 123.146 397.84 123.199 398.08C123.199 398.32 123.159 398.587 123.079 398.88C122.946 399.2 122.919 399.493 122.999 399.76C122.972 400.267 122.932 400.787 122.879 401.32C122.852 401.853 122.746 402.373 122.559 402.88C122.532 402.987 122.519 403.12 122.519 403.28C122.519 403.413 122.532 403.507 122.559 403.56L122.279 403.84C122.066 403.867 121.852 403.893 121.639 403.92C121.452 403.947 121.252 403.973 121.039 404C120.959 404.027 120.866 404.08 120.759 404.16C120.679 404.213 120.559 404.293 120.399 404.4C120.026 404.507 119.652 404.6 119.279 404.68C118.906 404.733 118.532 404.8 118.159 404.88C117.972 404.827 117.799 404.8 117.639 404.8C117.506 404.8 117.372 404.787 117.239 404.76C117.132 404.733 117.012 404.72 116.879 404.72C116.772 404.693 116.652 404.667 116.519 404.64C116.466 404.667 116.399 404.693 116.319 404.72C116.239 404.747 116.172 404.773 116.119 404.8L115.719 404.44C115.612 404.227 115.559 404.027 115.559 403.84C115.586 403.653 115.586 403.467 115.559 403.28C115.452 403.12 115.319 403.013 115.159 402.96C114.999 402.907 114.852 402.827 114.719 402.72C114.532 402.507 114.386 402.28 114.279 402.04C114.172 401.8 114.012 401.587 113.799 401.4C113.612 401.24 113.452 401.053 113.319 400.84C113.212 400.627 113.066 400.44 112.879 400.28C112.746 399.987 112.599 399.707 112.439 399.44C112.279 399.173 112.132 398.907 111.999 398.64C111.866 398.4 111.719 398.187 111.559 398C111.399 397.867 111.239 397.72 111.079 397.56C110.946 397.373 110.799 397.2 110.639 397.04C110.612 396.853 110.546 396.693 110.439 396.56C110.332 396.427 110.226 396.28 110.119 396.12C109.906 395.747 109.652 395.4 109.359 395.08C109.066 394.76 108.799 394.413 108.559 394.04C108.506 394.067 108.452 394.08 108.399 394.08C108.346 394.08 108.306 394.107 108.279 394.16C108.119 394.4 108.039 394.707 108.039 395.08C108.039 395.16 108.052 395.24 108.079 395.32C108.106 395.4 108.092 395.48 108.039 395.56C107.986 395.613 107.919 395.667 107.839 395.72C107.759 395.773 107.679 395.827 107.599 395.88C107.492 396.147 107.452 396.427 107.479 396.72C107.506 397.013 107.492 397.307 107.439 397.6C107.412 397.867 107.399 398.147 107.399 398.44C107.399 398.733 107.399 399.013 107.399 399.28L106.999 400C106.892 400.373 106.866 400.747 106.919 401.12C106.972 401.493 107.066 401.867 107.199 402.24C107.119 402.427 107.052 402.64 106.999 402.88C106.972 403.067 106.946 403.267 106.919 403.48C106.892 403.667 106.892 403.867 106.919 404.08C106.946 404.613 106.679 404.987 106.119 405.2C106.066 405.2 105.986 405.213 105.879 405.24C105.639 405.107 105.372 405.027 105.079 405C104.786 404.947 104.492 404.853 104.199 404.72C103.932 404.587 103.666 404.52 103.399 404.52C103.132 404.493 102.879 404.48 102.639 404.48C102.506 404.427 102.359 404.36 102.199 404.28C102.066 404.173 101.932 404.107 101.799 404.08C101.666 404.027 101.532 403.987 101.399 403.96C101.266 403.933 101.132 403.893 100.999 403.84C100.972 403.787 100.946 403.72 100.919 403.64C100.919 403.56 100.906 403.507 100.879 403.48C100.852 403.027 100.839 402.6 100.839 402.2C100.866 401.773 100.866 401.36 100.839 400.96C100.839 400.667 100.839 400.373 100.839 400.08C100.866 399.787 100.879 399.493 100.879 399.2V398.8C100.852 398.667 100.799 398.533 100.719 398.4C100.639 398.24 100.612 398.08 100.639 397.92C100.666 397.76 100.679 397.6 100.679 397.44C100.679 397.28 100.679 397.133 100.679 397C100.732 396.84 100.732 396.68 100.679 396.52C100.652 396.36 100.639 396.213 100.639 396.08C100.692 395.813 100.759 395.547 100.839 395.28C100.919 395.013 101.026 394.773 101.159 394.56V390.4C101.159 390.293 101.146 390.213 101.119 390.16C100.986 389.893 100.932 389.64 100.959 389.4C100.986 389.267 100.999 389.133 100.999 389C101.026 388.84 101.052 388.693 101.079 388.56C101.026 388.373 100.972 388.187 100.919 388C100.866 387.813 100.812 387.627 100.759 387.44C100.812 387.28 100.799 387.107 100.719 386.92C100.666 386.733 100.652 386.547 100.679 386.36C100.732 386.2 100.826 386.067 100.959 385.96C101.092 385.827 101.172 385.667 101.199 385.48C101.172 385.267 101.079 385.067 100.919 384.88C100.759 384.667 100.679 384.427 100.679 384.16C100.812 383.947 100.946 383.827 101.079 383.8C101.372 383.747 101.639 383.667 101.879 383.56C102.146 383.427 102.399 383.28 102.639 383.12C102.666 383.093 102.772 383.053 102.959 383C103.066 383.027 103.172 383.053 103.279 383.08C103.412 383.107 103.559 383.133 103.719 383.16C103.932 383.08 104.146 383.027 104.359 383C104.599 382.973 104.852 382.96 105.119 382.96C105.332 382.96 105.532 382.947 105.719 382.92C105.932 382.893 106.172 382.867 106.439 382.84C106.572 382.867 106.706 382.893 106.839 382.92C106.999 382.947 107.159 382.973 107.319 383C107.532 383.107 107.719 383.24 107.879 383.4C108.066 383.533 108.199 383.707 108.279 383.92C108.439 384.293 108.639 384.64 108.879 384.96C109.119 385.28 109.306 385.613 109.439 385.96C109.572 386.067 109.706 386.16 109.839 386.24C109.999 386.32 110.119 386.427 110.199 386.56C110.412 386.773 110.652 386.96 110.919 387.12C111.186 387.28 111.452 387.427 111.719 387.56C111.959 387.88 112.172 388.2 112.359 388.52C112.572 388.84 112.826 389.107 113.119 389.32C113.226 389.533 113.319 389.747 113.399 389.96C113.479 390.173 113.559 390.36 113.639 390.52C113.746 390.68 113.866 390.773 113.999 390.8C114.159 390.8 114.292 390.813 114.399 390.84C114.452 390.867 114.492 390.893 114.519 390.92C114.572 390.92 114.612 390.933 114.639 390.96C114.852 391.147 115.026 391.36 115.159 391.6C115.292 391.813 115.426 392.053 115.559 392.32C115.692 392.4 115.812 392.493 115.919 392.6C116.026 392.68 116.146 392.76 116.279 392.84C116.332 392.867 116.386 392.88 116.439 392.88C116.519 392.853 116.572 392.84 116.599 392.84C116.732 392.653 116.839 392.48 116.919 392.32C117.026 392.133 117.066 391.933 117.039 391.72C117.012 391.64 117.012 391.56 117.039 391.48C117.066 391.4 117.079 391.307 117.079 391.2C117.132 390.88 117.199 390.56 117.279 390.24C117.359 389.92 117.412 389.587 117.439 389.24C117.466 389 117.492 388.76 117.519 388.52C117.546 388.253 117.532 388.013 117.479 387.8C117.506 387.373 117.506 386.973 117.479 386.6C117.452 386.2 117.426 385.8 117.399 385.4C117.372 384.813 117.386 384.24 117.439 383.68C117.492 383.12 117.599 382.547 117.759 381.96C117.759 381.933 117.759 381.92 117.759 381.92C117.786 381.92 117.799 381.907 117.799 381.88C117.906 381.747 118.012 381.667 118.119 381.64C118.252 381.587 118.372 381.52 118.479 381.44C118.612 381.36 118.746 381.32 118.879 381.32C119.012 381.32 119.146 381.347 119.279 381.4C119.439 381.533 119.612 381.667 119.799 381.8C119.852 381.8 119.892 381.813 119.919 381.84C119.972 381.867 120.026 381.88 120.079 381.88H121.399C121.586 381.907 121.772 381.947 121.959 382C122.146 382.027 122.332 382.107 122.519 382.24C122.572 382.267 122.612 382.28 122.639 382.28C122.692 382.253 122.732 382.253 122.759 382.28C122.892 382.227 123.012 382.173 123.119 382.12C123.252 382.04 123.386 381.987 123.519 381.96C123.572 381.987 123.612 382.027 123.639 382.08C123.692 382.107 123.746 382.16 123.799 382.24C123.906 382.4 123.972 382.573 123.999 382.76C124.052 382.947 124.039 383.133 123.959 383.32ZM144.921 402.48C144.894 402.453 144.867 402.44 144.841 402.44L144.881 402.48C144.774 402.533 144.694 402.653 144.641 402.84C144.614 403.027 144.547 403.16 144.441 403.24C144.414 403.32 144.321 403.44 144.161 403.6C144.001 403.76 143.881 403.827 143.801 403.8C143.427 403.72 142.987 403.72 142.481 403.8C142.401 403.88 142.321 403.96 142.241 404.04C142.161 404.12 142.054 404.213 141.921 404.32C141.894 404.32 141.867 404.333 141.841 404.36C141.814 404.36 141.774 404.36 141.721 404.36C141.641 404.387 141.521 404.4 141.361 404.4C140.507 404.373 139.667 404.533 138.841 404.88C138.654 404.933 138.454 404.973 138.241 405C138.027 405 137.814 404.96 137.601 404.88C137.441 404.8 137.281 404.76 137.121 404.76C136.987 404.733 136.841 404.733 136.681 404.76C136.334 404.76 136.001 404.707 135.681 404.6C135.547 404.627 135.401 404.653 135.241 404.68C135.107 404.707 134.974 404.747 134.841 404.8C134.707 404.853 134.574 404.92 134.441 405C134.307 405.107 134.161 405.147 134.001 405.12C133.974 405.067 133.934 405.013 133.881 404.96C133.827 404.88 133.774 404.787 133.721 404.68C133.667 404.653 133.601 404.627 133.521 404.6C133.441 404.547 133.374 404.507 133.321 404.48C132.974 404.427 132.654 404.307 132.361 404.12C131.961 403.853 131.574 403.653 131.201 403.52C131.014 403.467 130.854 403.373 130.721 403.24C130.614 403.08 130.494 402.947 130.361 402.84C130.254 402.573 130.161 402.32 130.081 402.08C130.001 401.84 129.947 401.587 129.921 401.32C129.841 401.267 129.774 401.213 129.721 401.16C129.667 401.08 129.614 401.013 129.561 400.96C129.401 400.853 129.321 400.76 129.321 400.68C129.294 400.44 129.214 400.253 129.081 400.12C128.947 399.987 128.827 399.8 128.721 399.56C128.721 399.507 128.707 399.427 128.681 399.32C128.681 399.213 128.667 399.107 128.641 399C128.641 398.947 128.641 398.88 128.641 398.8C128.641 398.693 128.627 398.613 128.601 398.56C128.494 398.347 128.387 398.147 128.281 397.96C128.174 397.747 128.081 397.547 128.001 397.36C128.001 397.227 128.027 397.027 128.081 396.76C128.214 396.2 128.201 395.653 128.041 395.12C127.961 394.933 127.907 394.747 127.881 394.56C127.854 394.373 127.814 394.187 127.761 394C127.787 393.947 127.814 393.88 127.841 393.8C127.894 393.693 127.947 393.613 128.001 393.56L127.721 392.72C127.667 392.587 127.587 392.467 127.481 392.36C127.401 392.227 127.321 392.107 127.241 392C127.214 391.787 127.254 391.587 127.361 391.4C127.494 391.213 127.574 391.027 127.601 390.84C127.601 390.76 127.587 390.68 127.561 390.6C127.561 390.52 127.561 390.44 127.561 390.36C127.774 390.067 127.907 389.76 127.961 389.44C128.041 389.12 128.094 388.787 128.121 388.44C128.307 388.333 128.467 388.213 128.601 388.08C128.734 387.947 128.827 387.773 128.881 387.56C128.907 387.48 128.921 387.387 128.921 387.28C128.947 387.173 128.974 387.067 129.001 386.96C129.134 386.747 129.267 386.533 129.401 386.32C129.561 386.08 129.707 385.867 129.841 385.68C129.894 385.547 129.934 385.4 129.961 385.24C130.014 385.08 130.094 384.947 130.201 384.84C130.334 384.76 130.427 384.653 130.481 384.52C130.561 384.387 130.627 384.253 130.681 384.12C130.867 384.093 131.027 384.053 131.161 384C131.294 383.947 131.414 383.907 131.521 383.88C131.654 383.8 131.721 383.72 131.721 383.64C131.801 383.267 131.961 383 132.201 382.84C132.467 382.653 132.761 382.52 133.081 382.44C133.187 382.413 133.281 382.4 133.361 382.4C133.441 382.373 133.547 382.347 133.681 382.32C133.734 382.267 133.801 382.2 133.881 382.12C133.961 382.013 134.041 381.907 134.121 381.8C134.281 381.747 134.427 381.693 134.561 381.64C134.721 381.587 134.854 381.533 134.961 381.48H135.241C135.454 381.56 135.667 381.64 135.881 381.72C136.121 381.773 136.374 381.84 136.641 381.92C136.854 381.893 137.067 381.853 137.281 381.8C137.521 381.72 137.747 381.707 137.961 381.76C137.987 381.76 138.014 381.773 138.041 381.8C138.067 381.8 138.094 381.787 138.121 381.76C138.307 381.76 138.494 381.733 138.681 381.68C138.867 381.627 139.054 381.613 139.241 381.64C139.401 381.64 139.561 381.627 139.721 381.6C139.907 381.573 140.081 381.52 140.241 381.44C140.374 381.413 140.494 381.4 140.601 381.4C140.734 381.373 140.867 381.387 141.001 381.44C141.081 381.52 141.161 381.6 141.241 381.68C141.321 381.733 141.414 381.813 141.521 381.92C141.734 381.947 141.961 382 142.201 382.08C142.467 382.133 142.734 382.2 143.001 382.28C143.134 382.307 143.254 382.373 143.361 382.48C143.494 382.587 143.654 382.667 143.841 382.72C144.001 382.773 144.161 382.813 144.321 382.84C144.507 382.84 144.694 382.84 144.881 382.84C145.307 383.267 145.814 383.56 146.401 383.72C146.454 383.747 146.507 383.773 146.561 383.8C146.614 383.827 146.667 383.853 146.721 383.88C146.934 384.067 147.134 384.267 147.321 384.48C147.534 384.667 147.734 384.853 147.921 385.04C148.107 385.253 148.214 385.48 148.241 385.72C148.454 385.907 148.574 386.053 148.601 386.16C148.654 386.24 148.681 386.493 148.681 386.92C148.841 387 148.987 387.093 149.121 387.2C149.254 387.28 149.334 387.413 149.361 387.6C149.414 387.707 149.467 387.813 149.521 387.92C149.574 388 149.614 388.093 149.641 388.2C149.721 388.307 149.801 388.4 149.881 388.48C149.987 388.533 150.094 388.613 150.201 388.72C150.281 388.907 150.347 389.093 150.401 389.28C150.454 389.44 150.454 389.627 150.401 389.84C150.347 390.027 150.334 390.227 150.361 390.44C150.387 390.653 150.387 390.88 150.361 391.12C150.334 391.333 150.334 391.56 150.361 391.8C150.387 392.04 150.414 392.267 150.441 392.48C150.467 392.587 150.481 392.707 150.481 392.84C150.481 392.947 150.494 393.04 150.521 393.12C150.627 393.307 150.681 393.493 150.681 393.68C150.707 393.867 150.707 394.053 150.681 394.24C150.681 394.347 150.681 394.453 150.681 394.56C150.707 394.64 150.721 394.747 150.721 394.88C150.614 395.227 150.521 395.587 150.441 395.96C150.361 396.307 150.241 396.64 150.081 396.96C149.921 397.253 149.761 397.547 149.601 397.84C149.441 398.133 149.254 398.413 149.041 398.68V399.36C148.907 399.44 148.774 399.533 148.641 399.64C148.534 399.72 148.441 399.787 148.361 399.84C148.174 400.16 148.054 400.453 148.001 400.72C147.974 400.96 147.921 401.187 147.841 401.4C147.734 401.507 147.627 401.613 147.521 401.72C147.414 401.827 147.294 401.933 147.161 402.04C147.027 402.147 146.867 402.24 146.681 402.32C146.521 402.373 146.334 402.36 146.121 402.28C145.881 402.227 145.681 402.24 145.521 402.32C145.414 402.347 145.307 402.373 145.201 402.4C145.094 402.427 145.001 402.453 144.921 402.48ZM144.281 393.44C144.227 393.307 144.187 393.187 144.161 393.08C144.161 392.947 144.147 392.813 144.121 392.68C144.121 392.467 144.107 392.293 144.081 392.16C144.027 391.947 143.947 391.72 143.841 391.48C143.761 391.213 143.667 390.96 143.561 390.72C143.534 390.613 143.481 390.507 143.401 390.4C143.347 390.267 143.294 390.147 143.241 390.04C143.027 389.613 142.694 389.36 142.241 389.28C142.161 389.253 142.067 389.227 141.961 389.2C141.854 389.147 141.761 389.093 141.681 389.04C141.521 388.933 141.361 388.853 141.201 388.8C141.041 388.747 140.881 388.707 140.721 388.68C140.507 388.627 140.281 388.573 140.041 388.52C139.801 388.44 139.574 388.387 139.361 388.36C139.094 388.227 138.841 388.24 138.601 388.4C137.881 388.693 137.227 389.08 136.641 389.56C136.054 390.013 135.547 390.64 135.121 391.44C135.041 391.547 134.961 391.667 134.881 391.8C134.827 391.933 134.774 392.067 134.721 392.2C134.614 392.333 134.521 392.48 134.441 392.64C134.361 392.773 134.294 392.907 134.241 393.04C134.267 393.253 134.361 393.427 134.521 393.56C134.681 393.693 134.774 393.867 134.801 394.08C134.801 394.187 134.761 394.293 134.681 394.4C134.601 394.48 134.547 394.573 134.521 394.68C134.574 394.787 134.641 394.907 134.721 395.04C134.801 395.173 134.867 395.307 134.921 395.44C135.001 395.573 135.054 395.72 135.081 395.88C135.134 396.013 135.174 396.16 135.201 396.32C135.254 396.453 135.294 396.587 135.321 396.72C135.374 396.853 135.414 396.987 135.441 397.12L136.001 397.56C136.081 397.613 136.161 397.693 136.241 397.8C136.347 397.88 136.454 397.947 136.561 398C136.881 398.08 137.161 398.16 137.401 398.24C137.614 398.293 137.801 398.32 137.961 398.32C138.121 398.32 138.294 398.32 138.481 398.32C138.481 398.32 138.467 398.32 138.441 398.32C138.441 398.32 138.441 398.333 138.441 398.36H138.521C138.494 398.36 138.481 398.347 138.481 398.32C138.534 398.267 138.601 398.24 138.681 398.24C138.761 398.213 138.827 398.2 138.881 398.2C139.041 398.2 139.201 398.213 139.361 398.24C139.547 398.24 139.734 398.227 139.921 398.2C139.974 398.147 140.041 398.147 140.121 398.2C140.227 398.227 140.321 398.253 140.401 398.28C140.507 398.28 140.587 398.253 140.641 398.2C140.641 398.093 140.627 398 140.601 397.92C140.601 397.84 140.641 397.773 140.721 397.72C141.067 397.533 141.401 397.387 141.721 397.28C141.854 397.173 141.961 397.08 142.041 397C142.147 396.92 142.241 396.827 142.321 396.72C142.427 396.667 142.507 396.6 142.561 396.52C142.641 396.44 142.734 396.387 142.841 396.36C143.081 396.28 143.281 396.173 143.441 396.04C143.627 395.88 143.801 395.72 143.961 395.56C143.987 395.507 144.001 395.467 144.001 395.44C144.027 395.387 144.054 395.333 144.081 395.28C144.374 394.667 144.441 394.053 144.281 393.44ZM174.68 384.8C174.654 384.96 174.614 385.12 174.56 385.28C174.507 385.44 174.454 385.6 174.4 385.76C174.374 385.867 174.36 386.027 174.36 386.24C174.28 386.32 174.2 386.413 174.12 386.52C174.067 386.6 173.987 386.707 173.88 386.84C173.88 386.947 173.854 387.107 173.8 387.32C173.694 387.4 173.587 387.48 173.48 387.56C173.374 387.64 173.254 387.72 173.12 387.8C173.094 387.907 173.054 388.013 173 388.12C172.947 388.2 172.894 388.307 172.84 388.44C172.547 388.707 172.28 389 172.04 389.32C171.827 389.64 171.574 389.947 171.28 390.24C171.12 390.293 170.96 390.24 170.8 390.08C170.64 389.92 170.467 389.773 170.28 389.64C170.12 389.48 169.934 389.347 169.72 389.24C169.64 389.187 169.587 389.147 169.56 389.12C169.534 389.093 169.494 389.053 169.44 389C169.334 389 169.214 388.973 169.08 388.92C168.974 388.867 168.867 388.827 168.76 388.8C168.627 388.773 168.507 388.72 168.4 388.64C168.294 388.56 168.187 388.48 168.08 388.4L167.64 387.92C167.374 387.973 167.12 387.947 166.88 387.84C166.667 387.733 166.427 387.627 166.16 387.52C165.974 387.547 165.787 387.56 165.6 387.56C165.414 387.56 165.214 387.573 165 387.6C164.814 387.707 164.627 387.827 164.44 387.96C164.254 388.093 164.067 388.227 163.88 388.36C163.64 388.547 163.4 388.72 163.16 388.88C162.947 389.013 162.694 389.107 162.4 389.16C162.374 389.16 162.334 389.187 162.28 389.24C162.227 389.267 162.174 389.293 162.12 389.32C162.014 389.427 161.894 389.56 161.76 389.72C161.654 389.88 161.547 390.027 161.44 390.16C161.307 390.56 161.2 390.92 161.12 391.24C161.147 391.347 161.16 391.44 161.16 391.52C161.187 391.6 161.214 391.68 161.24 391.76C161.24 391.92 161.16 392.067 161 392.2C160.92 392.307 160.827 392.4 160.72 392.48C160.64 392.533 160.574 392.64 160.52 392.8L160.8 393.24C160.827 393.347 160.787 393.453 160.68 393.56C160.6 393.667 160.534 393.787 160.48 393.92C160.48 393.947 160.467 393.96 160.44 393.96C160.414 393.96 160.4 393.973 160.4 394C160.454 394.187 160.494 394.4 160.52 394.64C160.574 394.853 160.614 395.067 160.64 395.28C160.907 395.493 161.134 395.72 161.32 395.96C161.534 396.2 161.734 396.453 161.92 396.72C162.054 396.88 162.187 397.027 162.32 397.16C162.48 397.293 162.627 397.427 162.76 397.56C163.027 397.693 163.294 397.827 163.56 397.96C163.854 398.067 164.134 398.147 164.4 398.2C164.614 398.227 164.8 398.293 164.96 398.4C165.147 398.48 165.36 398.56 165.6 398.64C165.84 398.64 166.107 398.653 166.4 398.68C166.694 398.68 166.987 398.68 167.28 398.68C167.467 398.68 167.587 398.667 167.64 398.64C167.934 398.56 168.214 398.52 168.48 398.52C168.747 398.493 169.014 398.44 169.28 398.36C169.574 398.307 169.854 398.267 170.12 398.24C170.414 398.213 170.694 398.187 170.96 398.16C171.014 398.16 171.08 398.133 171.16 398.08C171.267 398.027 171.36 398.027 171.44 398.08C171.547 398.187 171.627 398.293 171.68 398.4C171.734 398.507 171.8 398.627 171.88 398.76C171.854 398.84 171.84 398.947 171.84 399.08C171.84 399.187 171.84 399.307 171.84 399.44C172.427 400.427 172.867 401.56 173.16 402.84C172.76 403.133 172.36 403.44 171.96 403.76C171.587 404.053 171.187 404.373 170.76 404.72C170.574 404.8 170.36 404.853 170.12 404.88C169.907 404.88 169.734 404.987 169.6 405.2C169.494 405.147 169.387 405.107 169.28 405.08C169.2 405.053 169.134 405.027 169.08 405C168.974 405.027 168.907 405.08 168.88 405.16C168.854 405.24 168.814 405.307 168.76 405.36C168.6 405.28 168.454 405.2 168.32 405.12C168.294 405.147 168.227 405.173 168.12 405.2C168.04 405.227 167.974 405.253 167.92 405.28C167.654 405.333 167.4 405.387 167.16 405.44C166.92 405.52 166.667 405.56 166.4 405.56C166.214 405.56 166 405.56 165.76 405.56C165.52 405.587 165.294 405.613 165.08 405.64C165.027 405.64 164.96 405.627 164.88 405.6C164.8 405.6 164.707 405.587 164.6 405.56C164.254 405.453 164.027 405.373 163.92 405.32C163.814 405.267 163.587 405.133 163.24 404.92C163.027 404.893 162.867 404.96 162.76 405.12C162.68 405.307 162.574 405.4 162.44 405.4H161.96C161.747 405.32 161.534 405.24 161.32 405.16C161.107 405.08 160.88 405.027 160.64 405C160.454 404.973 160.28 404.933 160.12 404.88C159.987 404.8 159.827 404.733 159.64 404.68C159.454 404.52 159.254 404.36 159.04 404.2C158.854 404.013 158.654 403.867 158.44 403.76C158.254 403.68 158.067 403.573 157.88 403.44C157.72 403.28 157.574 403.12 157.44 402.96C157.334 402.8 157.214 402.68 157.08 402.6C156.947 402.493 156.827 402.373 156.72 402.24C156.534 401.947 156.307 401.68 156.04 401.44C155.907 401.307 155.787 401.173 155.68 401.04C155.6 400.88 155.494 400.733 155.36 400.6C155.28 400.227 155.2 399.853 155.12 399.48C155.067 399.107 155.014 398.72 154.96 398.32C154.907 398.267 154.84 398.187 154.76 398.08C154.707 397.947 154.627 397.827 154.52 397.72C154.494 397.507 154.454 397.28 154.4 397.04C154.347 396.773 154.254 396.533 154.12 396.32C154.147 396.213 154.187 396.08 154.24 395.92C154.24 395.787 154.24 395.72 154.24 395.72C154.027 395.133 153.96 394.573 154.04 394.04C154.094 393.667 154.134 393.28 154.16 392.88C154.214 392.453 154.254 392.04 154.28 391.64C154.36 391.587 154.427 391.533 154.48 391.48C154.56 391.427 154.64 391.373 154.72 391.32C154.4 390.813 154.4 390.253 154.72 389.64C154.587 389.373 154.52 389.16 154.52 389C154.52 388.84 154.52 388.76 154.52 388.76C154.627 388.653 154.72 388.547 154.8 388.44C154.88 388.333 154.974 388.227 155.08 388.12C155.294 387.933 155.48 387.707 155.64 387.44C155.72 387.307 155.787 387.16 155.84 387C155.92 386.84 155.947 386.693 155.92 386.56C156.134 386.427 156.347 386.333 156.56 386.28C156.8 386.2 156.987 386.08 157.12 385.92C157.147 385.893 157.174 385.84 157.2 385.76C157.2 385.68 157.187 385.587 157.16 385.48C157.16 385.373 157.16 385.253 157.16 385.12C157.24 385.013 157.307 384.867 157.36 384.68C157.547 384.573 157.707 384.493 157.84 384.44C157.974 384.387 158.107 384.32 158.24 384.24C158.294 384.187 158.334 384.133 158.36 384.08C158.414 384.027 158.454 383.973 158.48 383.92C158.747 383.493 159.08 383.187 159.48 383C159.64 382.947 159.8 382.88 159.96 382.8C160.12 382.72 160.267 382.653 160.4 382.6C160.48 382.547 160.547 382.493 160.6 382.44C160.68 382.36 160.76 382.293 160.84 382.24C161.027 382.187 161.227 382.12 161.44 382.04C161.627 381.96 161.814 381.88 162 381.8C162.214 381.72 162.427 381.667 162.64 381.64C162.827 381.587 163 381.52 163.16 381.44C163.347 381.36 163.52 381.307 163.68 381.28C163.814 381.227 163.92 381.24 164 381.32C164.107 381.373 164.214 381.427 164.32 381.48H165.16C165.294 381.427 165.387 381.36 165.44 381.28C165.494 381.173 165.574 381.107 165.68 381.08C166.054 381 166.334 380.947 166.52 380.92C166.707 380.893 166.947 380.893 167.24 380.92C167.534 380.92 167.974 380.947 168.56 381C168.694 381.027 168.8 381.08 168.88 381.16C168.987 381.24 169.107 381.293 169.24 381.32C169.427 381.32 169.6 381.347 169.76 381.4C169.947 381.427 170.134 381.467 170.32 381.52C170.56 381.707 170.814 381.88 171.08 382.04C171.347 382.173 171.654 382.253 172 382.28C172.16 382.547 172.36 382.76 172.6 382.92C172.867 383.08 173.134 383.227 173.4 383.36C173.64 383.493 173.867 383.653 174.08 383.84C174.294 384.027 174.494 384.227 174.68 384.44C174.68 384.493 174.68 384.56 174.68 384.64C174.707 384.693 174.707 384.747 174.68 384.8ZM199.824 402.12C199.797 402.2 199.784 402.28 199.784 402.36C199.81 402.413 199.797 402.453 199.744 402.48C199.424 402.853 199.09 403.24 198.744 403.64C198.424 404.04 198.104 404.453 197.784 404.88L197.424 405.24C197.29 405.267 197.144 405.28 196.984 405.28C196.85 405.28 196.704 405.293 196.544 405.32C196.437 405.347 196.317 405.373 196.184 405.4C196.077 405.453 195.97 405.507 195.864 405.56C195.624 405.48 195.41 405.387 195.224 405.28C195.037 405.2 194.877 405.067 194.744 404.88C194.717 404.773 194.637 404.68 194.504 404.6C194.104 404.307 193.704 404.013 193.304 403.72C192.904 403.4 192.477 403.133 192.024 402.92C191.917 402.867 191.81 402.813 191.704 402.76C191.597 402.707 191.477 402.64 191.344 402.56C191.21 402.507 191.064 402.44 190.904 402.36C190.744 402.28 190.557 402.2 190.344 402.12C190.237 402.013 190.104 401.907 189.944 401.8C189.81 401.667 189.677 401.533 189.544 401.4C189.304 401.133 188.997 400.907 188.624 400.72C188.464 400.667 188.317 400.587 188.184 400.48C188.05 400.347 187.917 400.227 187.784 400.12C187.437 399.933 187.104 399.787 186.784 399.68C186.57 399.413 186.397 399.187 186.264 399C186.05 398.867 185.81 398.84 185.544 398.92C185.517 398.947 185.49 398.987 185.464 399.04C185.437 399.067 185.424 399.107 185.424 399.16C185.344 399.747 185.25 400.36 185.144 401C185.064 401.613 184.97 402.227 184.864 402.84C184.917 402.893 184.957 402.96 184.984 403.04C185.037 403.12 185.09 403.2 185.144 403.28C185.197 403.52 185.197 403.773 185.144 404.04C185.117 404.28 185.13 404.52 185.184 404.76C185.21 405 185.21 405.24 185.184 405.48C185.184 405.72 185.184 405.96 185.184 406.2C185.184 406.467 185.064 406.6 184.824 406.6C184.53 406.573 184.25 406.573 183.984 406.6C183.717 406.653 183.437 406.707 183.144 406.76C182.717 406.787 182.277 406.8 181.824 406.8C181.397 406.827 180.984 406.853 180.584 406.88C180.317 406.88 180.064 406.84 179.824 406.76C179.584 406.68 179.344 406.587 179.104 406.48C178.784 406.373 178.61 406.187 178.584 405.92C178.557 405.707 178.53 405.48 178.504 405.24C178.504 405.027 178.477 404.827 178.424 404.64C178.397 404.427 178.41 404.227 178.464 404.04C178.517 403.853 178.557 403.667 178.584 403.48C178.53 403.267 178.464 403.067 178.384 402.88C178.33 402.693 178.304 402.48 178.304 402.24C178.357 402.133 178.37 402.04 178.344 401.96C178.317 401.88 178.29 401.8 178.264 401.72C178.157 401.507 178.09 401.28 178.064 401.04C178.064 400.8 178.077 400.573 178.104 400.36C178.13 400.067 178.13 399.787 178.104 399.52C178.077 399.253 178.01 399.013 177.904 398.8C177.93 398.56 177.957 398.347 177.984 398.16C178.037 397.947 178.064 397.747 178.064 397.56C178.064 397.4 178.09 397.24 178.144 397.08C178.197 396.893 178.21 396.707 178.184 396.52C178.157 396.333 178.13 396.147 178.104 395.96C178.104 395.773 178.104 395.587 178.104 395.4C178.104 394.707 178.09 394.04 178.064 393.4C178.064 392.733 178.064 392.067 178.064 391.4C178.117 390.947 178.064 390.533 177.904 390.16C178.064 389.947 178.184 389.747 178.264 389.56C178.37 389.347 178.53 389.16 178.744 389C178.824 388.92 178.744 388.84 178.504 388.76C178.477 388.76 178.45 388.76 178.424 388.76C178.424 388.733 178.41 388.72 178.384 388.72C178.277 388.533 178.25 388.347 178.304 388.16C178.357 387.947 178.357 387.747 178.304 387.56C178.277 387.347 178.304 387.16 178.384 387C178.49 386.84 178.544 386.667 178.544 386.48C178.517 386.347 178.49 386.227 178.464 386.12C178.464 386.013 178.45 385.907 178.424 385.8C178.45 385.72 178.464 385.627 178.464 385.52C178.49 385.387 178.517 385.267 178.544 385.16C178.384 384.547 178.29 383.933 178.264 383.32C178.264 382.707 178.264 382.093 178.264 381.48C178.264 381.32 178.304 381.16 178.384 381C178.384 380.893 178.41 380.813 178.464 380.76C178.517 380.68 178.57 380.613 178.624 380.56C179.024 380.4 179.424 380.253 179.824 380.12C180.224 379.96 180.637 379.893 181.064 379.92C181.277 379.947 181.504 379.92 181.744 379.84C182.037 379.707 182.33 379.653 182.624 379.68C182.917 379.68 183.21 379.707 183.504 379.76C183.717 379.813 183.917 379.88 184.104 379.96C184.29 380.013 184.464 380.12 184.624 380.28C184.837 380.307 185.024 380.28 185.184 380.2C185.37 380.093 185.557 380.04 185.744 380.04C185.77 380.067 185.797 380.08 185.824 380.08C185.877 380.08 185.904 380.107 185.904 380.16C186.117 380.507 186.224 380.88 186.224 381.28C186.197 381.44 186.197 381.613 186.224 381.8C186.277 381.96 186.33 382.147 186.384 382.36C186.33 382.52 186.29 382.707 186.264 382.92C186.237 383.107 186.197 383.307 186.144 383.52C186.117 383.813 186.117 384.12 186.144 384.44C186.17 384.653 186.184 384.88 186.184 385.12C186.184 385.36 186.184 385.587 186.184 385.8C186.184 385.88 186.17 385.96 186.144 386.04C186.117 386.093 186.104 386.147 186.104 386.2C185.97 386.493 185.89 386.733 185.864 386.92C185.864 387.08 185.864 387.24 185.864 387.4C185.864 387.533 185.877 387.68 185.904 387.84C185.904 387.867 185.89 387.92 185.864 388C185.837 388.08 185.837 388.147 185.864 388.2C185.917 388.467 185.944 388.747 185.944 389.04C185.944 389.307 185.957 389.587 185.984 389.88C185.984 390.067 186.064 390.2 186.224 390.28C186.384 390.253 186.53 390.187 186.664 390.08C186.797 389.973 186.957 389.92 187.144 389.92C187.437 389.68 187.717 389.48 187.984 389.32C188.09 389.267 188.184 389.227 188.264 389.2C188.37 389.173 188.477 389.147 188.584 389.12C188.744 389.04 188.85 388.92 188.904 388.76C188.984 388.573 189.077 388.427 189.184 388.32C189.77 387.893 190.29 387.44 190.744 386.96C190.877 386.827 191.024 386.693 191.184 386.56C191.37 386.4 191.544 386.267 191.704 386.16C191.757 386.107 191.81 386.067 191.864 386.04C191.917 385.987 191.957 385.947 191.984 385.92C192.33 385.467 192.744 385.093 193.224 384.8C193.704 384.507 194.13 384.2 194.504 383.88C194.797 383.827 195.077 383.773 195.344 383.72C195.61 383.64 195.864 383.587 196.104 383.56C196.557 383.613 196.837 383.787 196.944 384.08C196.997 384.187 197.05 384.28 197.104 384.36C197.184 384.44 197.25 384.533 197.304 384.64C197.597 384.933 197.89 385.24 198.184 385.56C198.477 385.88 198.77 386.2 199.064 386.52C199.144 386.6 199.21 386.693 199.264 386.8C199.344 386.907 199.41 387.013 199.464 387.12C199.517 387.227 199.517 387.32 199.464 387.4C199.437 387.48 199.397 387.547 199.344 387.6C199.184 387.76 199.01 387.933 198.824 388.12C198.664 388.28 198.464 388.4 198.224 388.48C198.17 388.507 198.117 388.547 198.064 388.6C198.01 388.627 197.957 388.653 197.904 388.68C197.77 388.787 197.65 388.907 197.544 389.04C197.464 389.147 197.437 389.293 197.464 389.48C197.384 389.587 197.304 389.667 197.224 389.72L196.264 390.56C196.264 390.56 196.237 390.587 196.184 390.64C195.784 390.827 195.41 391.053 195.064 391.32C194.744 391.56 194.397 391.787 194.024 392C193.624 392.187 193.25 392.413 192.904 392.68C192.584 392.947 192.304 393.267 192.064 393.64C192.01 393.773 191.917 393.88 191.784 393.96C191.65 394.04 191.557 394.16 191.504 394.32C191.504 394.453 191.53 394.533 191.584 394.56C191.637 394.587 191.704 394.627 191.784 394.68C191.864 394.733 191.944 394.787 192.024 394.84C192.264 394.947 192.477 395.093 192.664 395.28C192.85 395.44 193.024 395.627 193.184 395.84C193.37 396.107 193.584 396.36 193.824 396.6C194.09 396.813 194.37 397.027 194.664 397.24C194.744 397.293 194.837 397.373 194.944 397.48C195.05 397.56 195.157 397.64 195.264 397.72C195.45 397.987 195.664 398.213 195.904 398.4C196.17 398.587 196.424 398.773 196.664 398.96C196.824 399.067 196.984 399.187 197.144 399.32C197.33 399.453 197.517 399.587 197.704 399.72C197.837 399.907 197.957 400.12 198.064 400.36C198.17 400.6 198.37 400.747 198.664 400.8C198.824 401.093 198.97 401.373 199.104 401.64C199.237 401.907 199.477 402.067 199.824 402.12ZM234.082 402.12C234.055 402.2 234.042 402.28 234.042 402.36C234.068 402.413 234.055 402.453 234.002 402.48C233.682 402.853 233.348 403.24 233.002 403.64C232.682 404.04 232.362 404.453 232.042 404.88L231.682 405.24C231.548 405.267 231.402 405.28 231.242 405.28C231.108 405.28 230.962 405.293 230.802 405.32C230.695 405.347 230.575 405.373 230.442 405.4C230.335 405.453 230.228 405.507 230.122 405.56C229.882 405.48 229.668 405.387 229.482 405.28C229.295 405.2 229.135 405.067 229.002 404.88C228.975 404.773 228.895 404.68 228.762 404.6C228.362 404.307 227.962 404.013 227.562 403.72C227.162 403.4 226.735 403.133 226.282 402.92C226.175 402.867 226.068 402.813 225.962 402.76C225.855 402.707 225.735 402.64 225.602 402.56C225.468 402.507 225.322 402.44 225.162 402.36C225.002 402.28 224.815 402.2 224.602 402.12C224.495 402.013 224.362 401.907 224.202 401.8C224.068 401.667 223.935 401.533 223.802 401.4C223.562 401.133 223.255 400.907 222.882 400.72C222.722 400.667 222.575 400.587 222.442 400.48C222.308 400.347 222.175 400.227 222.042 400.12C221.695 399.933 221.362 399.787 221.042 399.68C220.828 399.413 220.655 399.187 220.522 399C220.308 398.867 220.068 398.84 219.802 398.92C219.775 398.947 219.748 398.987 219.722 399.04C219.695 399.067 219.682 399.107 219.682 399.16C219.602 399.747 219.508 400.36 219.402 401C219.322 401.613 219.228 402.227 219.122 402.84C219.175 402.893 219.215 402.96 219.242 403.04C219.295 403.12 219.348 403.2 219.402 403.28C219.455 403.52 219.455 403.773 219.402 404.04C219.375 404.28 219.388 404.52 219.442 404.76C219.468 405 219.468 405.24 219.442 405.48C219.442 405.72 219.442 405.96 219.442 406.2C219.442 406.467 219.322 406.6 219.082 406.6C218.788 406.573 218.508 406.573 218.242 406.6C217.975 406.653 217.695 406.707 217.402 406.76C216.975 406.787 216.535 406.8 216.082 406.8C215.655 406.827 215.242 406.853 214.842 406.88C214.575 406.88 214.322 406.84 214.082 406.76C213.842 406.68 213.602 406.587 213.362 406.48C213.042 406.373 212.868 406.187 212.842 405.92C212.815 405.707 212.788 405.48 212.762 405.24C212.762 405.027 212.735 404.827 212.682 404.64C212.655 404.427 212.668 404.227 212.722 404.04C212.775 403.853 212.815 403.667 212.842 403.48C212.788 403.267 212.722 403.067 212.642 402.88C212.588 402.693 212.562 402.48 212.562 402.24C212.615 402.133 212.628 402.04 212.602 401.96C212.575 401.88 212.548 401.8 212.522 401.72C212.415 401.507 212.348 401.28 212.322 401.04C212.322 400.8 212.335 400.573 212.362 400.36C212.388 400.067 212.388 399.787 212.362 399.52C212.335 399.253 212.268 399.013 212.162 398.8C212.188 398.56 212.215 398.347 212.242 398.16C212.295 397.947 212.322 397.747 212.322 397.56C212.322 397.4 212.348 397.24 212.402 397.08C212.455 396.893 212.468 396.707 212.442 396.52C212.415 396.333 212.388 396.147 212.362 395.96C212.362 395.773 212.362 395.587 212.362 395.4C212.362 394.707 212.348 394.04 212.322 393.4C212.322 392.733 212.322 392.067 212.322 391.4C212.375 390.947 212.322 390.533 212.162 390.16C212.322 389.947 212.442 389.747 212.522 389.56C212.628 389.347 212.788 389.16 213.002 389C213.082 388.92 213.002 388.84 212.762 388.76C212.735 388.76 212.708 388.76 212.682 388.76C212.682 388.733 212.668 388.72 212.642 388.72C212.535 388.533 212.508 388.347 212.562 388.16C212.615 387.947 212.615 387.747 212.562 387.56C212.535 387.347 212.562 387.16 212.642 387C212.748 386.84 212.802 386.667 212.802 386.48C212.775 386.347 212.748 386.227 212.722 386.12C212.722 386.013 212.708 385.907 212.682 385.8C212.708 385.72 212.722 385.627 212.722 385.52C212.748 385.387 212.775 385.267 212.802 385.16C212.642 384.547 212.548 383.933 212.522 383.32C212.522 382.707 212.522 382.093 212.522 381.48C212.522 381.32 212.562 381.16 212.642 381C212.642 380.893 212.668 380.813 212.722 380.76C212.775 380.68 212.828 380.613 212.882 380.56C213.282 380.4 213.682 380.253 214.082 380.12C214.482 379.96 214.895 379.893 215.322 379.92C215.535 379.947 215.762 379.92 216.002 379.84C216.295 379.707 216.588 379.653 216.882 379.68C217.175 379.68 217.468 379.707 217.762 379.76C217.975 379.813 218.175 379.88 218.362 379.96C218.548 380.013 218.722 380.12 218.882 380.28C219.095 380.307 219.282 380.28 219.442 380.2C219.628 380.093 219.815 380.04 220.002 380.04C220.028 380.067 220.055 380.08 220.082 380.08C220.135 380.08 220.162 380.107 220.162 380.16C220.375 380.507 220.482 380.88 220.482 381.28C220.455 381.44 220.455 381.613 220.482 381.8C220.535 381.96 220.588 382.147 220.642 382.36C220.588 382.52 220.548 382.707 220.522 382.92C220.495 383.107 220.455 383.307 220.402 383.52C220.375 383.813 220.375 384.12 220.402 384.44C220.428 384.653 220.442 384.88 220.442 385.12C220.442 385.36 220.442 385.587 220.442 385.8C220.442 385.88 220.428 385.96 220.402 386.04C220.375 386.093 220.362 386.147 220.362 386.2C220.228 386.493 220.148 386.733 220.122 386.92C220.122 387.08 220.122 387.24 220.122 387.4C220.122 387.533 220.135 387.68 220.162 387.84C220.162 387.867 220.148 387.92 220.122 388C220.095 388.08 220.095 388.147 220.122 388.2C220.175 388.467 220.202 388.747 220.202 389.04C220.202 389.307 220.215 389.587 220.242 389.88C220.242 390.067 220.322 390.2 220.482 390.28C220.642 390.253 220.788 390.187 220.922 390.08C221.055 389.973 221.215 389.92 221.402 389.92C221.695 389.68 221.975 389.48 222.242 389.32C222.348 389.267 222.442 389.227 222.522 389.2C222.628 389.173 222.735 389.147 222.842 389.12C223.002 389.04 223.108 388.92 223.162 388.76C223.242 388.573 223.335 388.427 223.442 388.32C224.028 387.893 224.548 387.44 225.002 386.96C225.135 386.827 225.282 386.693 225.442 386.56C225.628 386.4 225.802 386.267 225.962 386.16C226.015 386.107 226.068 386.067 226.122 386.04C226.175 385.987 226.215 385.947 226.242 385.92C226.588 385.467 227.002 385.093 227.482 384.8C227.962 384.507 228.388 384.2 228.762 383.88C229.055 383.827 229.335 383.773 229.602 383.72C229.868 383.64 230.122 383.587 230.362 383.56C230.815 383.613 231.095 383.787 231.202 384.08C231.255 384.187 231.308 384.28 231.362 384.36C231.442 384.44 231.508 384.533 231.562 384.64C231.855 384.933 232.148 385.24 232.442 385.56C232.735 385.88 233.028 386.2 233.322 386.52C233.402 386.6 233.468 386.693 233.522 386.8C233.602 386.907 233.668 387.013 233.722 387.12C233.775 387.227 233.775 387.32 233.722 387.4C233.695 387.48 233.655 387.547 233.602 387.6C233.442 387.76 233.268 387.933 233.082 388.12C232.922 388.28 232.722 388.4 232.482 388.48C232.428 388.507 232.375 388.547 232.322 388.6C232.268 388.627 232.215 388.653 232.162 388.68C232.028 388.787 231.908 388.907 231.802 389.04C231.722 389.147 231.695 389.293 231.722 389.48C231.642 389.587 231.562 389.667 231.482 389.72L230.522 390.56C230.522 390.56 230.495 390.587 230.442 390.64C230.042 390.827 229.668 391.053 229.322 391.32C229.002 391.56 228.655 391.787 228.282 392C227.882 392.187 227.508 392.413 227.162 392.68C226.842 392.947 226.562 393.267 226.322 393.64C226.268 393.773 226.175 393.88 226.042 393.96C225.908 394.04 225.815 394.16 225.762 394.32C225.762 394.453 225.788 394.533 225.842 394.56C225.895 394.587 225.962 394.627 226.042 394.68C226.122 394.733 226.202 394.787 226.282 394.84C226.522 394.947 226.735 395.093 226.922 395.28C227.108 395.44 227.282 395.627 227.442 395.84C227.628 396.107 227.842 396.36 228.082 396.6C228.348 396.813 228.628 397.027 228.922 397.24C229.002 397.293 229.095 397.373 229.202 397.48C229.308 397.56 229.415 397.64 229.522 397.72C229.708 397.987 229.922 398.213 230.162 398.4C230.428 398.587 230.682 398.773 230.922 398.96C231.082 399.067 231.242 399.187 231.402 399.32C231.588 399.453 231.775 399.587 231.962 399.72C232.095 399.907 232.215 400.12 232.322 400.36C232.428 400.6 232.628 400.747 232.922 400.8C233.082 401.093 233.228 401.373 233.362 401.64C233.495 401.907 233.735 402.067 234.082 402.12ZM260.561 383.32C260.454 383.613 260.414 383.907 260.441 384.2C260.467 384.493 260.494 384.787 260.521 385.08V385.28C260.494 385.413 260.454 385.56 260.401 385.72C260.347 385.88 260.294 386.04 260.241 386.2C260.321 386.653 260.361 387.107 260.361 387.56C260.361 387.987 260.361 388.413 260.361 388.84C260.361 389.053 260.347 389.267 260.321 389.48C260.321 389.667 260.334 389.853 260.361 390.04C260.361 390.227 260.374 390.413 260.401 390.6C260.427 390.787 260.454 390.987 260.481 391.2C260.427 391.467 260.374 391.773 260.321 392.12C260.294 392.44 260.214 392.76 260.081 393.08C260.081 393.4 260.027 393.72 259.921 394.04C259.841 394.36 259.841 394.68 259.921 395C259.894 395.267 259.867 395.533 259.841 395.8C259.841 396.067 259.827 396.347 259.801 396.64C259.774 396.88 259.747 397.12 259.721 397.36C259.721 397.6 259.747 397.84 259.801 398.08C259.801 398.32 259.761 398.587 259.681 398.88C259.547 399.2 259.521 399.493 259.601 399.76C259.574 400.267 259.534 400.787 259.481 401.32C259.454 401.853 259.347 402.373 259.161 402.88C259.134 402.987 259.121 403.12 259.121 403.28C259.121 403.413 259.134 403.507 259.161 403.56L258.881 403.84C258.667 403.867 258.454 403.893 258.241 403.92C258.054 403.947 257.854 403.973 257.641 404C257.561 404.027 257.467 404.08 257.361 404.16C257.281 404.213 257.161 404.293 257.001 404.4C256.627 404.507 256.254 404.6 255.881 404.68C255.507 404.733 255.134 404.8 254.761 404.88C254.574 404.827 254.401 404.8 254.241 404.8C254.107 404.8 253.974 404.787 253.841 404.76C253.734 404.733 253.614 404.72 253.481 404.72C253.374 404.693 253.254 404.667 253.121 404.64C253.067 404.667 253.001 404.693 252.921 404.72C252.841 404.747 252.774 404.773 252.721 404.8L252.321 404.44C252.214 404.227 252.161 404.027 252.161 403.84C252.187 403.653 252.187 403.467 252.161 403.28C252.054 403.12 251.921 403.013 251.761 402.96C251.601 402.907 251.454 402.827 251.321 402.72C251.134 402.507 250.987 402.28 250.881 402.04C250.774 401.8 250.614 401.587 250.401 401.4C250.214 401.24 250.054 401.053 249.921 400.84C249.814 400.627 249.667 400.44 249.481 400.28C249.347 399.987 249.201 399.707 249.041 399.44C248.881 399.173 248.734 398.907 248.601 398.64C248.467 398.4 248.321 398.187 248.161 398C248.001 397.867 247.841 397.72 247.681 397.56C247.547 397.373 247.401 397.2 247.241 397.04C247.214 396.853 247.147 396.693 247.041 396.56C246.934 396.427 246.827 396.28 246.721 396.12C246.507 395.747 246.254 395.4 245.961 395.08C245.667 394.76 245.401 394.413 245.161 394.04C245.107 394.067 245.054 394.08 245.001 394.08C244.947 394.08 244.907 394.107 244.881 394.16C244.721 394.4 244.641 394.707 244.641 395.08C244.641 395.16 244.654 395.24 244.681 395.32C244.707 395.4 244.694 395.48 244.641 395.56C244.587 395.613 244.521 395.667 244.441 395.72C244.361 395.773 244.281 395.827 244.201 395.88C244.094 396.147 244.054 396.427 244.081 396.72C244.107 397.013 244.094 397.307 244.041 397.6C244.014 397.867 244.001 398.147 244.001 398.44C244.001 398.733 244.001 399.013 244.001 399.28L243.601 400C243.494 400.373 243.467 400.747 243.521 401.12C243.574 401.493 243.667 401.867 243.801 402.24C243.721 402.427 243.654 402.64 243.601 402.88C243.574 403.067 243.547 403.267 243.521 403.48C243.494 403.667 243.494 403.867 243.521 404.08C243.547 404.613 243.281 404.987 242.721 405.2C242.667 405.2 242.587 405.213 242.481 405.24C242.241 405.107 241.974 405.027 241.681 405C241.387 404.947 241.094 404.853 240.801 404.72C240.534 404.587 240.267 404.52 240.001 404.52C239.734 404.493 239.481 404.48 239.241 404.48C239.107 404.427 238.961 404.36 238.801 404.28C238.667 404.173 238.534 404.107 238.401 404.08C238.267 404.027 238.134 403.987 238.001 403.96C237.867 403.933 237.734 403.893 237.601 403.84C237.574 403.787 237.547 403.72 237.521 403.64C237.521 403.56 237.507 403.507 237.481 403.48C237.454 403.027 237.441 402.6 237.441 402.2C237.467 401.773 237.467 401.36 237.441 400.96C237.441 400.667 237.441 400.373 237.441 400.08C237.467 399.787 237.481 399.493 237.481 399.2V398.8C237.454 398.667 237.401 398.533 237.321 398.4C237.241 398.24 237.214 398.08 237.241 397.92C237.267 397.76 237.281 397.6 237.281 397.44C237.281 397.28 237.281 397.133 237.281 397C237.334 396.84 237.334 396.68 237.281 396.52C237.254 396.36 237.241 396.213 237.241 396.08C237.294 395.813 237.361 395.547 237.441 395.28C237.521 395.013 237.627 394.773 237.761 394.56V390.4C237.761 390.293 237.747 390.213 237.721 390.16C237.587 389.893 237.534 389.64 237.561 389.4C237.587 389.267 237.601 389.133 237.601 389C237.627 388.84 237.654 388.693 237.681 388.56C237.627 388.373 237.574 388.187 237.521 388C237.467 387.813 237.414 387.627 237.361 387.44C237.414 387.28 237.401 387.107 237.321 386.92C237.267 386.733 237.254 386.547 237.281 386.36C237.334 386.2 237.427 386.067 237.561 385.96C237.694 385.827 237.774 385.667 237.801 385.48C237.774 385.267 237.681 385.067 237.521 384.88C237.361 384.667 237.281 384.427 237.281 384.16C237.414 383.947 237.547 383.827 237.681 383.8C237.974 383.747 238.241 383.667 238.481 383.56C238.747 383.427 239.001 383.28 239.241 383.12C239.267 383.093 239.374 383.053 239.561 383C239.667 383.027 239.774 383.053 239.881 383.08C240.014 383.107 240.161 383.133 240.321 383.16C240.534 383.08 240.747 383.027 240.961 383C241.201 382.973 241.454 382.96 241.721 382.96C241.934 382.96 242.134 382.947 242.321 382.92C242.534 382.893 242.774 382.867 243.041 382.84C243.174 382.867 243.307 382.893 243.441 382.92C243.601 382.947 243.761 382.973 243.921 383C244.134 383.107 244.321 383.24 244.481 383.4C244.667 383.533 244.801 383.707 244.881 383.92C245.041 384.293 245.241 384.64 245.481 384.96C245.721 385.28 245.907 385.613 246.041 385.96C246.174 386.067 246.307 386.16 246.441 386.24C246.601 386.32 246.721 386.427 246.801 386.56C247.014 386.773 247.254 386.96 247.521 387.12C247.787 387.28 248.054 387.427 248.321 387.56C248.561 387.88 248.774 388.2 248.961 388.52C249.174 388.84 249.427 389.107 249.721 389.32C249.827 389.533 249.921 389.747 250.001 389.96C250.081 390.173 250.161 390.36 250.241 390.52C250.347 390.68 250.467 390.773 250.601 390.8C250.761 390.8 250.894 390.813 251.001 390.84C251.054 390.867 251.094 390.893 251.121 390.92C251.174 390.92 251.214 390.933 251.241 390.96C251.454 391.147 251.627 391.36 251.761 391.6C251.894 391.813 252.027 392.053 252.161 392.32C252.294 392.4 252.414 392.493 252.521 392.6C252.627 392.68 252.747 392.76 252.881 392.84C252.934 392.867 252.987 392.88 253.041 392.88C253.121 392.853 253.174 392.84 253.201 392.84C253.334 392.653 253.441 392.48 253.521 392.32C253.627 392.133 253.667 391.933 253.641 391.72C253.614 391.64 253.614 391.56 253.641 391.48C253.667 391.4 253.681 391.307 253.681 391.2C253.734 390.88 253.801 390.56 253.881 390.24C253.961 389.92 254.014 389.587 254.041 389.24C254.067 389 254.094 388.76 254.121 388.52C254.147 388.253 254.134 388.013 254.081 387.8C254.107 387.373 254.107 386.973 254.081 386.6C254.054 386.2 254.027 385.8 254.001 385.4C253.974 384.813 253.987 384.24 254.041 383.68C254.094 383.12 254.201 382.547 254.361 381.96C254.361 381.933 254.361 381.92 254.361 381.92C254.387 381.92 254.401 381.907 254.401 381.88C254.507 381.747 254.614 381.667 254.721 381.64C254.854 381.587 254.974 381.52 255.081 381.44C255.214 381.36 255.347 381.32 255.481 381.32C255.614 381.32 255.747 381.347 255.881 381.4C256.041 381.533 256.214 381.667 256.401 381.8C256.454 381.8 256.494 381.813 256.521 381.84C256.574 381.867 256.627 381.88 256.681 381.88H258.001C258.187 381.907 258.374 381.947 258.561 382C258.747 382.027 258.934 382.107 259.121 382.24C259.174 382.267 259.214 382.28 259.241 382.28C259.294 382.253 259.334 382.253 259.361 382.28C259.494 382.227 259.614 382.173 259.721 382.12C259.854 382.04 259.987 381.987 260.121 381.96C260.174 381.987 260.214 382.027 260.241 382.08C260.294 382.107 260.347 382.16 260.401 382.24C260.507 382.4 260.574 382.573 260.601 382.76C260.654 382.947 260.641 383.133 260.561 383.32ZM281.522 402.48C281.496 402.453 281.469 402.44 281.442 402.44L281.482 402.48C281.376 402.533 281.296 402.653 281.242 402.84C281.216 403.027 281.149 403.16 281.042 403.24C281.016 403.32 280.922 403.44 280.762 403.6C280.602 403.76 280.482 403.827 280.402 403.8C280.029 403.72 279.589 403.72 279.082 403.8C279.002 403.88 278.922 403.96 278.842 404.04C278.762 404.12 278.656 404.213 278.522 404.32C278.496 404.32 278.469 404.333 278.442 404.36C278.416 404.36 278.376 404.36 278.322 404.36C278.242 404.387 278.122 404.4 277.962 404.4C277.109 404.373 276.269 404.533 275.442 404.88C275.256 404.933 275.056 404.973 274.842 405C274.629 405 274.416 404.96 274.202 404.88C274.042 404.8 273.882 404.76 273.722 404.76C273.589 404.733 273.442 404.733 273.282 404.76C272.936 404.76 272.602 404.707 272.282 404.6C272.149 404.627 272.002 404.653 271.842 404.68C271.709 404.707 271.576 404.747 271.442 404.8C271.309 404.853 271.176 404.92 271.042 405C270.909 405.107 270.762 405.147 270.602 405.12C270.576 405.067 270.536 405.013 270.482 404.96C270.429 404.88 270.376 404.787 270.322 404.68C270.269 404.653 270.202 404.627 270.122 404.6C270.042 404.547 269.976 404.507 269.922 404.48C269.576 404.427 269.256 404.307 268.962 404.12C268.562 403.853 268.176 403.653 267.802 403.52C267.616 403.467 267.456 403.373 267.322 403.24C267.216 403.08 267.096 402.947 266.962 402.84C266.856 402.573 266.762 402.32 266.682 402.08C266.602 401.84 266.549 401.587 266.522 401.32C266.442 401.267 266.376 401.213 266.322 401.16C266.269 401.08 266.216 401.013 266.162 400.96C266.002 400.853 265.922 400.76 265.922 400.68C265.896 400.44 265.816 400.253 265.682 400.12C265.549 399.987 265.429 399.8 265.322 399.56C265.322 399.507 265.309 399.427 265.282 399.32C265.282 399.213 265.269 399.107 265.242 399C265.242 398.947 265.242 398.88 265.242 398.8C265.242 398.693 265.229 398.613 265.202 398.56C265.096 398.347 264.989 398.147 264.882 397.96C264.776 397.747 264.682 397.547 264.602 397.36C264.602 397.227 264.629 397.027 264.682 396.76C264.816 396.2 264.802 395.653 264.642 395.12C264.562 394.933 264.509 394.747 264.482 394.56C264.456 394.373 264.416 394.187 264.362 394C264.389 393.947 264.416 393.88 264.442 393.8C264.496 393.693 264.549 393.613 264.602 393.56L264.322 392.72C264.269 392.587 264.189 392.467 264.082 392.36C264.002 392.227 263.922 392.107 263.842 392C263.816 391.787 263.856 391.587 263.962 391.4C264.096 391.213 264.176 391.027 264.202 390.84C264.202 390.76 264.189 390.68 264.162 390.6C264.162 390.52 264.162 390.44 264.162 390.36C264.376 390.067 264.509 389.76 264.562 389.44C264.642 389.12 264.696 388.787 264.722 388.44C264.909 388.333 265.069 388.213 265.202 388.08C265.336 387.947 265.429 387.773 265.482 387.56C265.509 387.48 265.522 387.387 265.522 387.28C265.549 387.173 265.576 387.067 265.602 386.96C265.736 386.747 265.869 386.533 266.002 386.32C266.162 386.08 266.309 385.867 266.442 385.68C266.496 385.547 266.536 385.4 266.562 385.24C266.616 385.08 266.696 384.947 266.802 384.84C266.936 384.76 267.029 384.653 267.082 384.52C267.162 384.387 267.229 384.253 267.282 384.12C267.469 384.093 267.629 384.053 267.762 384C267.896 383.947 268.016 383.907 268.122 383.88C268.256 383.8 268.322 383.72 268.322 383.64C268.402 383.267 268.562 383 268.802 382.84C269.069 382.653 269.362 382.52 269.682 382.44C269.789 382.413 269.882 382.4 269.962 382.4C270.042 382.373 270.149 382.347 270.282 382.32C270.336 382.267 270.402 382.2 270.482 382.12C270.562 382.013 270.642 381.907 270.722 381.8C270.882 381.747 271.029 381.693 271.162 381.64C271.322 381.587 271.456 381.533 271.562 381.48H271.842C272.056 381.56 272.269 381.64 272.482 381.72C272.722 381.773 272.976 381.84 273.242 381.92C273.456 381.893 273.669 381.853 273.882 381.8C274.122 381.72 274.349 381.707 274.562 381.76C274.589 381.76 274.616 381.773 274.642 381.8C274.669 381.8 274.696 381.787 274.722 381.76C274.909 381.76 275.096 381.733 275.282 381.68C275.469 381.627 275.656 381.613 275.842 381.64C276.002 381.64 276.162 381.627 276.322 381.6C276.509 381.573 276.682 381.52 276.842 381.44C276.976 381.413 277.096 381.4 277.202 381.4C277.336 381.373 277.469 381.387 277.602 381.44C277.682 381.52 277.762 381.6 277.842 381.68C277.922 381.733 278.016 381.813 278.122 381.92C278.336 381.947 278.562 382 278.802 382.08C279.069 382.133 279.336 382.2 279.602 382.28C279.736 382.307 279.856 382.373 279.962 382.48C280.096 382.587 280.256 382.667 280.442 382.72C280.602 382.773 280.762 382.813 280.922 382.84C281.109 382.84 281.296 382.84 281.482 382.84C281.909 383.267 282.416 383.56 283.002 383.72C283.056 383.747 283.109 383.773 283.162 383.8C283.216 383.827 283.269 383.853 283.322 383.88C283.536 384.067 283.736 384.267 283.922 384.48C284.136 384.667 284.336 384.853 284.522 385.04C284.709 385.253 284.816 385.48 284.842 385.72C285.056 385.907 285.176 386.053 285.202 386.16C285.256 386.24 285.282 386.493 285.282 386.92C285.442 387 285.589 387.093 285.722 387.2C285.856 387.28 285.936 387.413 285.962 387.6C286.016 387.707 286.069 387.813 286.122 387.92C286.176 388 286.216 388.093 286.242 388.2C286.322 388.307 286.402 388.4 286.482 388.48C286.589 388.533 286.696 388.613 286.802 388.72C286.882 388.907 286.949 389.093 287.002 389.28C287.056 389.44 287.056 389.627 287.002 389.84C286.949 390.027 286.936 390.227 286.962 390.44C286.989 390.653 286.989 390.88 286.962 391.12C286.936 391.333 286.936 391.56 286.962 391.8C286.989 392.04 287.016 392.267 287.042 392.48C287.069 392.587 287.082 392.707 287.082 392.84C287.082 392.947 287.096 393.04 287.122 393.12C287.229 393.307 287.282 393.493 287.282 393.68C287.309 393.867 287.309 394.053 287.282 394.24C287.282 394.347 287.282 394.453 287.282 394.56C287.309 394.64 287.322 394.747 287.322 394.88C287.216 395.227 287.122 395.587 287.042 395.96C286.962 396.307 286.842 396.64 286.682 396.96C286.522 397.253 286.362 397.547 286.202 397.84C286.042 398.133 285.856 398.413 285.642 398.68V399.36C285.509 399.44 285.376 399.533 285.242 399.64C285.136 399.72 285.042 399.787 284.962 399.84C284.776 400.16 284.656 400.453 284.602 400.72C284.576 400.96 284.522 401.187 284.442 401.4C284.336 401.507 284.229 401.613 284.122 401.72C284.016 401.827 283.896 401.933 283.762 402.04C283.629 402.147 283.469 402.24 283.282 402.32C283.122 402.373 282.936 402.36 282.722 402.28C282.482 402.227 282.282 402.24 282.122 402.32C282.016 402.347 281.909 402.373 281.802 402.4C281.696 402.427 281.602 402.453 281.522 402.48ZM280.882 393.44C280.829 393.307 280.789 393.187 280.762 393.08C280.762 392.947 280.749 392.813 280.722 392.68C280.722 392.467 280.709 392.293 280.682 392.16C280.629 391.947 280.549 391.72 280.442 391.48C280.362 391.213 280.269 390.96 280.162 390.72C280.136 390.613 280.082 390.507 280.002 390.4C279.949 390.267 279.896 390.147 279.842 390.04C279.629 389.613 279.296 389.36 278.842 389.28C278.762 389.253 278.669 389.227 278.562 389.2C278.456 389.147 278.362 389.093 278.282 389.04C278.122 388.933 277.962 388.853 277.802 388.8C277.642 388.747 277.482 388.707 277.322 388.68C277.109 388.627 276.882 388.573 276.642 388.52C276.402 388.44 276.176 388.387 275.962 388.36C275.696 388.227 275.442 388.24 275.202 388.4C274.482 388.693 273.829 389.08 273.242 389.56C272.656 390.013 272.149 390.64 271.722 391.44C271.642 391.547 271.562 391.667 271.482 391.8C271.429 391.933 271.376 392.067 271.322 392.2C271.216 392.333 271.122 392.48 271.042 392.64C270.962 392.773 270.896 392.907 270.842 393.04C270.869 393.253 270.962 393.427 271.122 393.56C271.282 393.693 271.376 393.867 271.402 394.08C271.402 394.187 271.362 394.293 271.282 394.4C271.202 394.48 271.149 394.573 271.122 394.68C271.176 394.787 271.242 394.907 271.322 395.04C271.402 395.173 271.469 395.307 271.522 395.44C271.602 395.573 271.656 395.72 271.682 395.88C271.736 396.013 271.776 396.16 271.802 396.32C271.856 396.453 271.896 396.587 271.922 396.72C271.976 396.853 272.016 396.987 272.042 397.12L272.602 397.56C272.682 397.613 272.762 397.693 272.842 397.8C272.949 397.88 273.056 397.947 273.162 398C273.482 398.08 273.762 398.16 274.002 398.24C274.216 398.293 274.402 398.32 274.562 398.32C274.722 398.32 274.896 398.32 275.082 398.32C275.082 398.32 275.069 398.32 275.042 398.32C275.042 398.32 275.042 398.333 275.042 398.36H275.122C275.096 398.36 275.082 398.347 275.082 398.32C275.136 398.267 275.202 398.24 275.282 398.24C275.362 398.213 275.429 398.2 275.482 398.2C275.642 398.2 275.802 398.213 275.962 398.24C276.149 398.24 276.336 398.227 276.522 398.2C276.576 398.147 276.642 398.147 276.722 398.2C276.829 398.227 276.922 398.253 277.002 398.28C277.109 398.28 277.189 398.253 277.242 398.2C277.242 398.093 277.229 398 277.202 397.92C277.202 397.84 277.242 397.773 277.322 397.72C277.669 397.533 278.002 397.387 278.322 397.28C278.456 397.173 278.562 397.08 278.642 397C278.749 396.92 278.842 396.827 278.922 396.72C279.029 396.667 279.109 396.6 279.162 396.52C279.242 396.44 279.336 396.387 279.442 396.36C279.682 396.28 279.882 396.173 280.042 396.04C280.229 395.88 280.402 395.72 280.562 395.56C280.589 395.507 280.602 395.467 280.602 395.44C280.629 395.387 280.656 395.333 280.682 395.28C280.976 394.667 281.042 394.053 280.882 393.44ZM311.282 384.8C311.255 384.96 311.215 385.12 311.162 385.28C311.109 385.44 311.055 385.6 311.002 385.76C310.975 385.867 310.962 386.027 310.962 386.24C310.882 386.32 310.802 386.413 310.722 386.52C310.669 386.6 310.589 386.707 310.482 386.84C310.482 386.947 310.455 387.107 310.402 387.32C310.295 387.4 310.189 387.48 310.082 387.56C309.975 387.64 309.855 387.72 309.722 387.8C309.695 387.907 309.655 388.013 309.602 388.12C309.549 388.2 309.495 388.307 309.442 388.44C309.149 388.707 308.882 389 308.642 389.32C308.429 389.64 308.175 389.947 307.882 390.24C307.722 390.293 307.562 390.24 307.402 390.08C307.242 389.92 307.069 389.773 306.882 389.64C306.722 389.48 306.535 389.347 306.322 389.24C306.242 389.187 306.189 389.147 306.162 389.12C306.135 389.093 306.095 389.053 306.042 389C305.935 389 305.815 388.973 305.682 388.92C305.575 388.867 305.469 388.827 305.362 388.8C305.229 388.773 305.109 388.72 305.002 388.64C304.895 388.56 304.789 388.48 304.682 388.4L304.242 387.92C303.975 387.973 303.722 387.947 303.482 387.84C303.269 387.733 303.029 387.627 302.762 387.52C302.575 387.547 302.389 387.56 302.202 387.56C302.015 387.56 301.815 387.573 301.602 387.6C301.415 387.707 301.229 387.827 301.042 387.96C300.855 388.093 300.669 388.227 300.482 388.36C300.242 388.547 300.002 388.72 299.762 388.88C299.549 389.013 299.295 389.107 299.002 389.16C298.975 389.16 298.935 389.187 298.882 389.24C298.829 389.267 298.775 389.293 298.722 389.32C298.615 389.427 298.495 389.56 298.362 389.72C298.255 389.88 298.149 390.027 298.042 390.16C297.909 390.56 297.802 390.92 297.722 391.24C297.749 391.347 297.762 391.44 297.762 391.52C297.789 391.6 297.815 391.68 297.842 391.76C297.842 391.92 297.762 392.067 297.602 392.2C297.522 392.307 297.429 392.4 297.322 392.48C297.242 392.533 297.175 392.64 297.122 392.8L297.402 393.24C297.429 393.347 297.389 393.453 297.282 393.56C297.202 393.667 297.135 393.787 297.082 393.92C297.082 393.947 297.069 393.96 297.042 393.96C297.015 393.96 297.002 393.973 297.002 394C297.055 394.187 297.095 394.4 297.122 394.64C297.175 394.853 297.215 395.067 297.242 395.28C297.509 395.493 297.735 395.72 297.922 395.96C298.135 396.2 298.335 396.453 298.522 396.72C298.655 396.88 298.789 397.027 298.922 397.16C299.082 397.293 299.229 397.427 299.362 397.56C299.629 397.693 299.895 397.827 300.162 397.96C300.455 398.067 300.735 398.147 301.002 398.2C301.215 398.227 301.402 398.293 301.562 398.4C301.749 398.48 301.962 398.56 302.202 398.64C302.442 398.64 302.709 398.653 303.002 398.68C303.295 398.68 303.589 398.68 303.882 398.68C304.069 398.68 304.189 398.667 304.242 398.64C304.535 398.56 304.815 398.52 305.082 398.52C305.349 398.493 305.615 398.44 305.882 398.36C306.175 398.307 306.455 398.267 306.722 398.24C307.015 398.213 307.295 398.187 307.562 398.16C307.615 398.16 307.682 398.133 307.762 398.08C307.869 398.027 307.962 398.027 308.042 398.08C308.149 398.187 308.229 398.293 308.282 398.4C308.335 398.507 308.402 398.627 308.482 398.76C308.455 398.84 308.442 398.947 308.442 399.08C308.442 399.187 308.442 399.307 308.442 399.44C309.029 400.427 309.469 401.56 309.762 402.84C309.362 403.133 308.962 403.44 308.562 403.76C308.189 404.053 307.789 404.373 307.362 404.72C307.175 404.8 306.962 404.853 306.722 404.88C306.509 404.88 306.335 404.987 306.202 405.2C306.095 405.147 305.989 405.107 305.882 405.08C305.802 405.053 305.735 405.027 305.682 405C305.575 405.027 305.509 405.08 305.482 405.16C305.455 405.24 305.415 405.307 305.362 405.36C305.202 405.28 305.055 405.2 304.922 405.12C304.895 405.147 304.829 405.173 304.722 405.2C304.642 405.227 304.575 405.253 304.522 405.28C304.255 405.333 304.002 405.387 303.762 405.44C303.522 405.52 303.269 405.56 303.002 405.56C302.815 405.56 302.602 405.56 302.362 405.56C302.122 405.587 301.895 405.613 301.682 405.64C301.629 405.64 301.562 405.627 301.482 405.6C301.402 405.6 301.309 405.587 301.202 405.56C300.855 405.453 300.629 405.373 300.522 405.32C300.415 405.267 300.189 405.133 299.842 404.92C299.629 404.893 299.469 404.96 299.362 405.12C299.282 405.307 299.175 405.4 299.042 405.4H298.562C298.349 405.32 298.135 405.24 297.922 405.16C297.709 405.08 297.482 405.027 297.242 405C297.055 404.973 296.882 404.933 296.722 404.88C296.589 404.8 296.429 404.733 296.242 404.68C296.055 404.52 295.855 404.36 295.642 404.2C295.455 404.013 295.255 403.867 295.042 403.76C294.855 403.68 294.669 403.573 294.482 403.44C294.322 403.28 294.175 403.12 294.042 402.96C293.935 402.8 293.815 402.68 293.682 402.6C293.549 402.493 293.429 402.373 293.322 402.24C293.135 401.947 292.909 401.68 292.642 401.44C292.509 401.307 292.389 401.173 292.282 401.04C292.202 400.88 292.095 400.733 291.962 400.6C291.882 400.227 291.802 399.853 291.722 399.48C291.669 399.107 291.615 398.72 291.562 398.32C291.509 398.267 291.442 398.187 291.362 398.08C291.309 397.947 291.229 397.827 291.122 397.72C291.095 397.507 291.055 397.28 291.002 397.04C290.949 396.773 290.855 396.533 290.722 396.32C290.749 396.213 290.789 396.08 290.842 395.92C290.842 395.787 290.842 395.72 290.842 395.72C290.629 395.133 290.562 394.573 290.642 394.04C290.695 393.667 290.735 393.28 290.762 392.88C290.815 392.453 290.855 392.04 290.882 391.64C290.962 391.587 291.029 391.533 291.082 391.48C291.162 391.427 291.242 391.373 291.322 391.32C291.002 390.813 291.002 390.253 291.322 389.64C291.189 389.373 291.122 389.16 291.122 389C291.122 388.84 291.122 388.76 291.122 388.76C291.229 388.653 291.322 388.547 291.402 388.44C291.482 388.333 291.575 388.227 291.682 388.12C291.895 387.933 292.082 387.707 292.242 387.44C292.322 387.307 292.389 387.16 292.442 387C292.522 386.84 292.549 386.693 292.522 386.56C292.735 386.427 292.949 386.333 293.162 386.28C293.402 386.2 293.589 386.08 293.722 385.92C293.749 385.893 293.775 385.84 293.802 385.76C293.802 385.68 293.789 385.587 293.762 385.48C293.762 385.373 293.762 385.253 293.762 385.12C293.842 385.013 293.909 384.867 293.962 384.68C294.149 384.573 294.309 384.493 294.442 384.44C294.575 384.387 294.709 384.32 294.842 384.24C294.895 384.187 294.935 384.133 294.962 384.08C295.015 384.027 295.055 383.973 295.082 383.92C295.349 383.493 295.682 383.187 296.082 383C296.242 382.947 296.402 382.88 296.562 382.8C296.722 382.72 296.869 382.653 297.002 382.6C297.082 382.547 297.149 382.493 297.202 382.44C297.282 382.36 297.362 382.293 297.442 382.24C297.629 382.187 297.829 382.12 298.042 382.04C298.229 381.96 298.415 381.88 298.602 381.8C298.815 381.72 299.029 381.667 299.242 381.64C299.429 381.587 299.602 381.52 299.762 381.44C299.949 381.36 300.122 381.307 300.282 381.28C300.415 381.227 300.522 381.24 300.602 381.32C300.709 381.373 300.815 381.427 300.922 381.48H301.762C301.895 381.427 301.989 381.36 302.042 381.28C302.095 381.173 302.175 381.107 302.282 381.08C302.655 381 302.935 380.947 303.122 380.92C303.309 380.893 303.549 380.893 303.842 380.92C304.135 380.92 304.575 380.947 305.162 381C305.295 381.027 305.402 381.08 305.482 381.16C305.589 381.24 305.709 381.293 305.842 381.32C306.029 381.32 306.202 381.347 306.362 381.4C306.549 381.427 306.735 381.467 306.922 381.52C307.162 381.707 307.415 381.88 307.682 382.04C307.949 382.173 308.255 382.253 308.602 382.28C308.762 382.547 308.962 382.76 309.202 382.92C309.469 383.08 309.735 383.227 310.002 383.36C310.242 383.493 310.469 383.653 310.682 383.84C310.895 384.027 311.095 384.227 311.282 384.44C311.282 384.493 311.282 384.56 311.282 384.64C311.309 384.693 311.309 384.747 311.282 384.8ZM336.425 402.12C336.399 402.2 336.385 402.28 336.385 402.36C336.412 402.413 336.399 402.453 336.345 402.48C336.025 402.853 335.692 403.24 335.345 403.64C335.025 404.04 334.705 404.453 334.385 404.88L334.025 405.24C333.892 405.267 333.745 405.28 333.585 405.28C333.452 405.28 333.305 405.293 333.145 405.32C333.039 405.347 332.919 405.373 332.785 405.4C332.679 405.453 332.572 405.507 332.465 405.56C332.225 405.48 332.012 405.387 331.825 405.28C331.639 405.2 331.479 405.067 331.345 404.88C331.319 404.773 331.239 404.68 331.105 404.6C330.705 404.307 330.305 404.013 329.905 403.72C329.505 403.4 329.079 403.133 328.625 402.92C328.519 402.867 328.412 402.813 328.305 402.76C328.199 402.707 328.079 402.64 327.945 402.56C327.812 402.507 327.665 402.44 327.505 402.36C327.345 402.28 327.159 402.2 326.945 402.12C326.839 402.013 326.705 401.907 326.545 401.8C326.412 401.667 326.279 401.533 326.145 401.4C325.905 401.133 325.599 400.907 325.225 400.72C325.065 400.667 324.919 400.587 324.785 400.48C324.652 400.347 324.519 400.227 324.385 400.12C324.039 399.933 323.705 399.787 323.385 399.68C323.172 399.413 322.999 399.187 322.865 399C322.652 398.867 322.412 398.84 322.145 398.92C322.119 398.947 322.092 398.987 322.065 399.04C322.039 399.067 322.025 399.107 322.025 399.16C321.945 399.747 321.852 400.36 321.745 401C321.665 401.613 321.572 402.227 321.465 402.84C321.519 402.893 321.559 402.96 321.585 403.04C321.639 403.12 321.692 403.2 321.745 403.28C321.799 403.52 321.799 403.773 321.745 404.04C321.719 404.28 321.732 404.52 321.785 404.76C321.812 405 321.812 405.24 321.785 405.48C321.785 405.72 321.785 405.96 321.785 406.2C321.785 406.467 321.665 406.6 321.425 406.6C321.132 406.573 320.852 406.573 320.585 406.6C320.319 406.653 320.039 406.707 319.745 406.76C319.319 406.787 318.879 406.8 318.425 406.8C317.999 406.827 317.585 406.853 317.185 406.88C316.919 406.88 316.665 406.84 316.425 406.76C316.185 406.68 315.945 406.587 315.705 406.48C315.385 406.373 315.212 406.187 315.185 405.92C315.159 405.707 315.132 405.48 315.105 405.24C315.105 405.027 315.079 404.827 315.025 404.64C314.999 404.427 315.012 404.227 315.065 404.04C315.119 403.853 315.159 403.667 315.185 403.48C315.132 403.267 315.065 403.067 314.985 402.88C314.932 402.693 314.905 402.48 314.905 402.24C314.959 402.133 314.972 402.04 314.945 401.96C314.919 401.88 314.892 401.8 314.865 401.72C314.759 401.507 314.692 401.28 314.665 401.04C314.665 400.8 314.679 400.573 314.705 400.36C314.732 400.067 314.732 399.787 314.705 399.52C314.679 399.253 314.612 399.013 314.505 398.8C314.532 398.56 314.559 398.347 314.585 398.16C314.639 397.947 314.665 397.747 314.665 397.56C314.665 397.4 314.692 397.24 314.745 397.08C314.799 396.893 314.812 396.707 314.785 396.52C314.759 396.333 314.732 396.147 314.705 395.96C314.705 395.773 314.705 395.587 314.705 395.4C314.705 394.707 314.692 394.04 314.665 393.4C314.665 392.733 314.665 392.067 314.665 391.4C314.719 390.947 314.665 390.533 314.505 390.16C314.665 389.947 314.785 389.747 314.865 389.56C314.972 389.347 315.132 389.16 315.345 389C315.425 388.92 315.345 388.84 315.105 388.76C315.079 388.76 315.052 388.76 315.025 388.76C315.025 388.733 315.012 388.72 314.985 388.72C314.879 388.533 314.852 388.347 314.905 388.16C314.959 387.947 314.959 387.747 314.905 387.56C314.879 387.347 314.905 387.16 314.985 387C315.092 386.84 315.145 386.667 315.145 386.48C315.119 386.347 315.092 386.227 315.065 386.12C315.065 386.013 315.052 385.907 315.025 385.8C315.052 385.72 315.065 385.627 315.065 385.52C315.092 385.387 315.119 385.267 315.145 385.16C314.985 384.547 314.892 383.933 314.865 383.32C314.865 382.707 314.865 382.093 314.865 381.48C314.865 381.32 314.905 381.16 314.985 381C314.985 380.893 315.012 380.813 315.065 380.76C315.119 380.68 315.172 380.613 315.225 380.56C315.625 380.4 316.025 380.253 316.425 380.12C316.825 379.96 317.239 379.893 317.665 379.92C317.879 379.947 318.105 379.92 318.345 379.84C318.639 379.707 318.932 379.653 319.225 379.68C319.519 379.68 319.812 379.707 320.105 379.76C320.319 379.813 320.519 379.88 320.705 379.96C320.892 380.013 321.065 380.12 321.225 380.28C321.439 380.307 321.625 380.28 321.785 380.2C321.972 380.093 322.159 380.04 322.345 380.04C322.372 380.067 322.399 380.08 322.425 380.08C322.479 380.08 322.505 380.107 322.505 380.16C322.719 380.507 322.825 380.88 322.825 381.28C322.799 381.44 322.799 381.613 322.825 381.8C322.879 381.96 322.932 382.147 322.985 382.36C322.932 382.52 322.892 382.707 322.865 382.92C322.839 383.107 322.799 383.307 322.745 383.52C322.719 383.813 322.719 384.12 322.745 384.44C322.772 384.653 322.785 384.88 322.785 385.12C322.785 385.36 322.785 385.587 322.785 385.8C322.785 385.88 322.772 385.96 322.745 386.04C322.719 386.093 322.705 386.147 322.705 386.2C322.572 386.493 322.492 386.733 322.465 386.92C322.465 387.08 322.465 387.24 322.465 387.4C322.465 387.533 322.479 387.68 322.505 387.84C322.505 387.867 322.492 387.92 322.465 388C322.439 388.08 322.439 388.147 322.465 388.2C322.519 388.467 322.545 388.747 322.545 389.04C322.545 389.307 322.559 389.587 322.585 389.88C322.585 390.067 322.665 390.2 322.825 390.28C322.985 390.253 323.132 390.187 323.265 390.08C323.399 389.973 323.559 389.92 323.745 389.92C324.039 389.68 324.319 389.48 324.585 389.32C324.692 389.267 324.785 389.227 324.865 389.2C324.972 389.173 325.079 389.147 325.185 389.12C325.345 389.04 325.452 388.92 325.505 388.76C325.585 388.573 325.679 388.427 325.785 388.32C326.372 387.893 326.892 387.44 327.345 386.96C327.479 386.827 327.625 386.693 327.785 386.56C327.972 386.4 328.145 386.267 328.305 386.16C328.359 386.107 328.412 386.067 328.465 386.04C328.519 385.987 328.559 385.947 328.585 385.92C328.932 385.467 329.345 385.093 329.825 384.8C330.305 384.507 330.732 384.2 331.105 383.88C331.399 383.827 331.679 383.773 331.945 383.72C332.212 383.64 332.465 383.587 332.705 383.56C333.159 383.613 333.439 383.787 333.545 384.08C333.599 384.187 333.652 384.28 333.705 384.36C333.785 384.44 333.852 384.533 333.905 384.64C334.199 384.933 334.492 385.24 334.785 385.56C335.079 385.88 335.372 386.2 335.665 386.52C335.745 386.6 335.812 386.693 335.865 386.8C335.945 386.907 336.012 387.013 336.065 387.12C336.119 387.227 336.119 387.32 336.065 387.4C336.039 387.48 335.999 387.547 335.945 387.6C335.785 387.76 335.612 387.933 335.425 388.12C335.265 388.28 335.065 388.4 334.825 388.48C334.772 388.507 334.719 388.547 334.665 388.6C334.612 388.627 334.559 388.653 334.505 388.68C334.372 388.787 334.252 388.907 334.145 389.04C334.065 389.147 334.039 389.293 334.065 389.48C333.985 389.587 333.905 389.667 333.825 389.72L332.865 390.56C332.865 390.56 332.839 390.587 332.785 390.64C332.385 390.827 332.012 391.053 331.665 391.32C331.345 391.56 330.999 391.787 330.625 392C330.225 392.187 329.852 392.413 329.505 392.68C329.185 392.947 328.905 393.267 328.665 393.64C328.612 393.773 328.519 393.88 328.385 393.96C328.252 394.04 328.159 394.16 328.105 394.32C328.105 394.453 328.132 394.533 328.185 394.56C328.239 394.587 328.305 394.627 328.385 394.68C328.465 394.733 328.545 394.787 328.625 394.84C328.865 394.947 329.079 395.093 329.265 395.28C329.452 395.44 329.625 395.627 329.785 395.84C329.972 396.107 330.185 396.36 330.425 396.6C330.692 396.813 330.972 397.027 331.265 397.24C331.345 397.293 331.439 397.373 331.545 397.48C331.652 397.56 331.759 397.64 331.865 397.72C332.052 397.987 332.265 398.213 332.505 398.4C332.772 398.587 333.025 398.773 333.265 398.96C333.425 399.067 333.585 399.187 333.745 399.32C333.932 399.453 334.119 399.587 334.305 399.72C334.439 399.907 334.559 400.12 334.665 400.36C334.772 400.6 334.972 400.747 335.265 400.8C335.425 401.093 335.572 401.373 335.705 401.64C335.839 401.907 336.079 402.067 336.425 402.12Z" fill="#343575"/>
</svg>
