<svg width="727" height="317" viewBox="0 0 727 317" fill="none" xmlns="http://www.w3.org/2000/svg">
<path d="M36.3467 162.317C34.7046 189.052 39.6308 315 39.6308 315H324.527C325.211 307.927 326.169 276.722 324.527 208.483C322.885 140.244 307.824 96.6818 293.328 76.9281C257.203 27.7011 190.289 15.6755 165.658 19.7286C141.028 23.7816 88.7282 49.1743 66.7247 80.7474C44.7212 112.321 37.9887 135.582 36.3467 162.317Z" fill="#343575"/>
<path d="M15 315H39.6308M343 315H324.527M39.6308 315C39.6308 315 34.7046 189.052 36.3467 162.317C37.9887 135.582 44.7212 112.321 66.7247 80.7474C88.7282 49.1743 141.028 23.7816 165.658 19.7286C190.289 15.6755 257.203 27.7011 293.328 76.9281C307.824 96.6818 322.885 140.244 324.527 208.483C326.169 276.722 325.211 307.927 324.527 315M39.6308 315H324.527" stroke="#343575" stroke-width="3" stroke-linecap="round"/>
<path d="M74.2505 165.194C72.7676 191.166 78.353 312 78.353 312H322.181C322.799 305.129 323.664 274.215 322.181 207.924C320.698 141.634 308.057 102.732 294.966 83.542C262.343 35.7204 206.851 23.76 184.608 27.6974C162.365 31.6348 120.377 52.8698 100.507 83.5417C80.6363 114.213 75.7333 139.222 74.2505 165.194Z" fill="white"/>
<path fill-rule="evenodd" clip-rule="evenodd" d="M96.5732 220.858C95.5436 223.771 92.7655 225.858 89.5 225.858C85.3579 225.858 82 222.501 82 218.358C82 214.216 85.3579 210.858 89.5 210.858C92.7655 210.858 95.5436 212.945 96.5732 215.858H111.5C112.881 215.858 114 216.978 114 218.358C114 219.739 112.881 220.858 111.5 220.858H96.5732Z" fill="#343575"/>
<g opacity="0.8">
<path d="M134.074 154.45V108.536C134.411 107.359 135.992 105.004 139.627 105.004H172.438C174.457 105.004 178.415 104.738 179 108.536V154.45C179 160 176.737 160 165.371 160H139.627C134.377 160 133.737 156.3 134.074 154.45Z" stroke="#343575" stroke-width="3" stroke-linecap="round"/>
<path d="M215.441 154.321C215.441 158.347 219.106 159.689 220.939 159.857C227.27 159.857 241.231 159.857 246.429 159.857C251.627 159.857 252.26 156.166 251.927 154.321V108.527C251.593 107.352 250.027 105.004 246.429 105.004H213.942C211.943 105.004 208.023 104.739 207.444 108.527C206.445 115.069 207.444 147.729 207.444 164" stroke="#343575" stroke-width="3" stroke-linecap="round"/>
</g>
<path d="M134.074 225.45V179.536C134.411 178.359 135.992 176.004 139.627 176.004H172.438C174.457 176.004 178.415 175.738 179 179.536V225.45C179 231 176.737 231 165.371 231H139.627C134.377 231 133.737 227.3 134.074 225.45Z" stroke="#343575" stroke-width="3" stroke-linecap="round"/>
<path d="M215.441 225.321C215.441 229.347 219.106 230.689 220.939 230.857C227.27 230.857 241.231 230.857 246.429 230.857C251.627 230.857 252.26 227.166 251.927 225.321V179.527C251.593 178.352 250.027 176.004 246.429 176.004H213.942C211.943 176.004 208.023 175.739 207.444 179.527C206.445 186.069 207.444 218.729 207.444 235" stroke="#343575" stroke-width="3" stroke-linecap="round"/>
<path d="M253.531 253.845L347.03 286.52C347.03 286.52 356.317 277.793 358.816 270.409C361.48 262.534 358.816 249.121 358.816 249.121C358.816 249.121 286.217 251.011 288.102 239.673C289.988 228.335 289.249 217.164 280.638 210.541C272.027 203.917 250.938 197.235 240.567 218.021C230.196 238.807 244.889 250.565 253.531 253.845Z" fill="white"/>
<path d="M347.03 286.52L253.531 253.845C244.889 250.565 230.196 238.807 240.567 218.021C250.938 197.235 272.027 203.917 280.638 210.541C289.249 217.164 289.988 228.335 288.102 239.673C286.217 251.011 358.816 249.121 358.816 249.121" stroke="#343575" stroke-width="3" stroke-linecap="round"/>
<path d="M293.115 183L298.362 185.91L288.417 198.69L285.356 196.993L293.115 183Z" fill="#343575"/>
<path d="M276 187.566L281.754 186.992L280.201 195.694L276.844 196.029L276 187.566Z" fill="#343575"/>
<path d="M440.352 149.088C440.288 149.28 440.256 149.472 440.256 149.664C440.32 149.792 440.288 149.888 440.16 149.952C439.392 150.848 438.592 151.776 437.76 152.736C436.992 153.696 436.224 154.688 435.456 155.712L434.592 156.576C434.272 156.64 433.92 156.672 433.536 156.672C433.216 156.672 432.864 156.704 432.48 156.768C432.224 156.832 431.936 156.896 431.616 156.96C431.36 157.088 431.104 157.216 430.848 157.344C430.272 157.152 429.76 156.928 429.312 156.672C428.864 156.48 428.48 156.16 428.16 155.712C428.096 155.456 427.904 155.232 427.584 155.04C426.624 154.336 425.664 153.632 424.704 152.928C423.744 152.16 422.72 151.52 421.632 151.008C421.376 150.88 421.12 150.752 420.864 150.624C420.608 150.496 420.32 150.336 420 150.144C419.68 150.016 419.328 149.856 418.944 149.664C418.56 149.472 418.112 149.28 417.6 149.088C417.344 148.832 417.024 148.576 416.64 148.32C416.32 148 416 147.68 415.68 147.36C415.104 146.72 414.368 146.176 413.472 145.728C413.088 145.6 412.736 145.408 412.416 145.152C412.096 144.832 411.776 144.544 411.456 144.288C410.624 143.84 409.824 143.488 409.056 143.232C408.544 142.592 408.128 142.048 407.808 141.6C407.296 141.28 406.72 141.216 406.08 141.408C406.016 141.472 405.952 141.568 405.888 141.696C405.824 141.76 405.792 141.856 405.792 141.984C405.6 143.392 405.376 144.864 405.12 146.4C404.928 147.872 404.704 149.344 404.448 150.816C404.576 150.944 404.672 151.104 404.736 151.296C404.864 151.488 404.992 151.68 405.12 151.872C405.248 152.448 405.248 153.056 405.12 153.696C405.056 154.272 405.088 154.848 405.216 155.424C405.28 156 405.28 156.576 405.216 157.152C405.216 157.728 405.216 158.304 405.216 158.88C405.216 159.52 404.928 159.84 404.352 159.84C403.648 159.776 402.976 159.776 402.336 159.84C401.696 159.968 401.024 160.096 400.32 160.224C399.296 160.288 398.24 160.32 397.152 160.32C396.128 160.384 395.136 160.448 394.176 160.512C393.536 160.512 392.928 160.416 392.352 160.224C391.776 160.032 391.2 159.808 390.624 159.552C389.856 159.296 389.44 158.848 389.376 158.208C389.312 157.696 389.248 157.152 389.184 156.576C389.184 156.064 389.12 155.584 388.992 155.136C388.928 154.624 388.96 154.144 389.088 153.696C389.216 153.248 389.312 152.8 389.376 152.352C389.248 151.84 389.088 151.36 388.896 150.912C388.768 150.464 388.704 149.952 388.704 149.376C388.832 149.12 388.864 148.896 388.8 148.704C388.736 148.512 388.672 148.32 388.608 148.128C388.352 147.616 388.192 147.072 388.128 146.496C388.128 145.92 388.16 145.376 388.224 144.864C388.288 144.16 388.288 143.488 388.224 142.848C388.16 142.208 388 141.632 387.744 141.12C387.808 140.544 387.872 140.032 387.936 139.584C388.064 139.072 388.128 138.592 388.128 138.144C388.128 137.76 388.192 137.376 388.32 136.992C388.448 136.544 388.48 136.096 388.416 135.648C388.352 135.2 388.288 134.752 388.224 134.304C388.224 133.856 388.224 133.408 388.224 132.96C388.224 131.296 388.192 129.696 388.128 128.16C388.128 126.56 388.128 124.96 388.128 123.36C388.256 122.272 388.128 121.28 387.744 120.384C388.128 119.872 388.416 119.392 388.608 118.944C388.864 118.432 389.248 117.984 389.76 117.6C389.952 117.408 389.76 117.216 389.184 117.024C389.12 117.024 389.056 117.024 388.992 117.024C388.992 116.96 388.96 116.928 388.896 116.928C388.64 116.48 388.576 116.032 388.704 115.584C388.832 115.072 388.832 114.592 388.704 114.144C388.64 113.632 388.704 113.184 388.896 112.8C389.152 112.416 389.28 112 389.28 111.552C389.216 111.232 389.152 110.944 389.088 110.688C389.088 110.432 389.056 110.176 388.992 109.92C389.056 109.728 389.088 109.504 389.088 109.248C389.152 108.928 389.216 108.64 389.28 108.384C388.896 106.912 388.672 105.44 388.608 103.968C388.608 102.496 388.608 101.024 388.608 99.552C388.608 99.168 388.704 98.784 388.896 98.4C388.896 98.144 388.96 97.952 389.088 97.824C389.216 97.632 389.344 97.472 389.472 97.344C390.432 96.96 391.392 96.608 392.352 96.288C393.312 95.904 394.304 95.744 395.328 95.808C395.84 95.872 396.384 95.808 396.96 95.616C397.664 95.296 398.368 95.168 399.072 95.232C399.776 95.232 400.48 95.296 401.184 95.424C401.696 95.552 402.176 95.712 402.624 95.904C403.072 96.032 403.488 96.288 403.872 96.672C404.384 96.736 404.832 96.672 405.216 96.48C405.664 96.224 406.112 96.096 406.56 96.096C406.624 96.16 406.688 96.192 406.752 96.192C406.88 96.192 406.944 96.256 406.944 96.384C407.456 97.216 407.712 98.112 407.712 99.072C407.648 99.456 407.648 99.872 407.712 100.32C407.84 100.704 407.968 101.152 408.096 101.664C407.968 102.048 407.872 102.496 407.808 103.008C407.744 103.456 407.648 103.936 407.52 104.448C407.456 105.152 407.456 105.888 407.52 106.656C407.584 107.168 407.616 107.712 407.616 108.288C407.616 108.864 407.616 109.408 407.616 109.92C407.616 110.112 407.584 110.304 407.52 110.496C407.456 110.624 407.424 110.752 407.424 110.88C407.104 111.584 406.912 112.16 406.848 112.608C406.848 112.992 406.848 113.376 406.848 113.76C406.848 114.08 406.88 114.432 406.944 114.816C406.944 114.88 406.912 115.008 406.848 115.2C406.784 115.392 406.784 115.552 406.848 115.68C406.976 116.32 407.04 116.992 407.04 117.696C407.04 118.336 407.072 119.008 407.136 119.712C407.136 120.16 407.328 120.48 407.712 120.672C408.096 120.608 408.448 120.448 408.768 120.192C409.088 119.936 409.472 119.808 409.92 119.808C410.624 119.232 411.296 118.752 411.936 118.368C412.192 118.24 412.416 118.144 412.608 118.08C412.864 118.016 413.12 117.952 413.376 117.888C413.76 117.696 414.016 117.408 414.144 117.024C414.336 116.576 414.56 116.224 414.816 115.968C416.224 114.944 417.472 113.856 418.56 112.704C418.88 112.384 419.232 112.064 419.616 111.744C420.064 111.36 420.48 111.04 420.864 110.784C420.992 110.656 421.12 110.56 421.248 110.496C421.376 110.368 421.472 110.272 421.536 110.208C422.368 109.12 423.36 108.224 424.512 107.52C425.664 106.816 426.688 106.08 427.584 105.312C428.288 105.184 428.96 105.056 429.6 104.928C430.24 104.736 430.848 104.608 431.424 104.544C432.512 104.672 433.184 105.088 433.44 105.792C433.568 106.048 433.696 106.272 433.824 106.464C434.016 106.656 434.176 106.88 434.304 107.136C435.008 107.84 435.712 108.576 436.416 109.344C437.12 110.112 437.824 110.88 438.528 111.648C438.72 111.84 438.88 112.064 439.008 112.32C439.2 112.576 439.36 112.832 439.488 113.088C439.616 113.344 439.616 113.568 439.488 113.76C439.424 113.952 439.328 114.112 439.2 114.24C438.816 114.624 438.4 115.04 437.952 115.488C437.568 115.872 437.088 116.16 436.512 116.352C436.384 116.416 436.256 116.512 436.128 116.64C436 116.704 435.872 116.768 435.744 116.832C435.424 117.088 435.136 117.376 434.88 117.696C434.688 117.952 434.624 118.304 434.688 118.752C434.496 119.008 434.304 119.2 434.112 119.328L431.808 121.344C431.808 121.344 431.744 121.408 431.616 121.536C430.656 121.984 429.76 122.528 428.928 123.168C428.16 123.744 427.328 124.288 426.432 124.8C425.472 125.248 424.576 125.792 423.744 126.432C422.976 127.072 422.304 127.84 421.728 128.736C421.6 129.056 421.376 129.312 421.056 129.504C420.736 129.696 420.512 129.984 420.384 130.368C420.384 130.688 420.448 130.88 420.576 130.944C420.704 131.008 420.864 131.104 421.056 131.232C421.248 131.36 421.44 131.488 421.632 131.616C422.208 131.872 422.72 132.224 423.168 132.672C423.616 133.056 424.032 133.504 424.416 134.016C424.864 134.656 425.376 135.264 425.952 135.84C426.592 136.352 427.264 136.864 427.968 137.376C428.16 137.504 428.384 137.696 428.64 137.952C428.896 138.144 429.152 138.336 429.408 138.528C429.856 139.168 430.368 139.712 430.944 140.16C431.584 140.608 432.192 141.056 432.768 141.504C433.152 141.76 433.536 142.048 433.92 142.368C434.368 142.688 434.816 143.008 435.264 143.328C435.584 143.776 435.872 144.288 436.128 144.864C436.384 145.44 436.864 145.792 437.568 145.92C437.952 146.624 438.304 147.296 438.624 147.936C438.944 148.576 439.52 148.96 440.352 149.088ZM503.902 103.968C503.646 104.672 503.55 105.376 503.614 106.08C503.678 106.784 503.742 107.488 503.806 108.192V108.672C503.742 108.992 503.646 109.344 503.518 109.728C503.39 110.112 503.262 110.496 503.134 110.88C503.326 111.968 503.422 113.056 503.422 114.144C503.422 115.168 503.422 116.192 503.422 117.216C503.422 117.728 503.39 118.24 503.326 118.752C503.326 119.2 503.358 119.648 503.422 120.096C503.422 120.544 503.454 120.992 503.518 121.44C503.582 121.888 503.646 122.368 503.71 122.88C503.582 123.52 503.454 124.256 503.326 125.088C503.262 125.856 503.07 126.624 502.75 127.392C502.75 128.16 502.622 128.928 502.366 129.696C502.174 130.464 502.174 131.232 502.366 132C502.302 132.64 502.238 133.28 502.174 133.92C502.174 134.56 502.142 135.232 502.078 135.936C502.014 136.512 501.95 137.088 501.886 137.664C501.886 138.24 501.95 138.816 502.078 139.392C502.078 139.968 501.982 140.608 501.79 141.312C501.47 142.08 501.406 142.784 501.598 143.424C501.534 144.64 501.438 145.888 501.31 147.168C501.246 148.448 500.99 149.696 500.542 150.912C500.478 151.168 500.446 151.488 500.446 151.872C500.446 152.192 500.478 152.416 500.542 152.544L499.87 153.216C499.358 153.28 498.846 153.344 498.334 153.408C497.886 153.472 497.406 153.536 496.894 153.6C496.702 153.664 496.478 153.792 496.222 153.984C496.03 154.112 495.742 154.304 495.358 154.56C494.462 154.816 493.566 155.04 492.67 155.232C491.774 155.36 490.878 155.52 489.982 155.712C489.534 155.584 489.118 155.52 488.734 155.52C488.414 155.52 488.094 155.488 487.774 155.424C487.518 155.36 487.23 155.328 486.91 155.328C486.654 155.264 486.366 155.2 486.046 155.136C485.918 155.2 485.758 155.264 485.566 155.328C485.374 155.392 485.214 155.456 485.086 155.52L484.126 154.656C483.87 154.144 483.742 153.664 483.742 153.216C483.806 152.768 483.806 152.32 483.742 151.872C483.486 151.488 483.166 151.232 482.782 151.104C482.398 150.976 482.046 150.784 481.726 150.528C481.278 150.016 480.926 149.472 480.67 148.896C480.414 148.32 480.03 147.808 479.518 147.36C479.07 146.976 478.686 146.528 478.366 146.016C478.11 145.504 477.758 145.056 477.31 144.672C476.99 143.968 476.638 143.296 476.254 142.656C475.87 142.016 475.518 141.376 475.198 140.736C474.878 140.16 474.526 139.648 474.142 139.2C473.758 138.88 473.374 138.528 472.99 138.144C472.67 137.696 472.318 137.28 471.934 136.896C471.87 136.448 471.71 136.064 471.454 135.744C471.198 135.424 470.942 135.072 470.686 134.688C470.174 133.792 469.566 132.96 468.862 132.192C468.158 131.424 467.518 130.592 466.942 129.696C466.814 129.76 466.686 129.792 466.558 129.792C466.43 129.792 466.334 129.856 466.27 129.984C465.886 130.56 465.694 131.296 465.694 132.192C465.694 132.384 465.726 132.576 465.79 132.768C465.854 132.96 465.822 133.152 465.694 133.344C465.566 133.472 465.406 133.6 465.214 133.728C465.022 133.856 464.83 133.984 464.638 134.112C464.382 134.752 464.286 135.424 464.35 136.128C464.414 136.832 464.382 137.536 464.254 138.24C464.19 138.88 464.158 139.552 464.158 140.256C464.158 140.96 464.158 141.632 464.158 142.272L463.198 144C462.942 144.896 462.878 145.792 463.006 146.688C463.134 147.584 463.358 148.48 463.678 149.376C463.486 149.824 463.326 150.336 463.198 150.912C463.134 151.36 463.07 151.84 463.006 152.352C462.942 152.8 462.942 153.28 463.006 153.792C463.07 155.072 462.43 155.968 461.086 156.48C460.958 156.48 460.766 156.512 460.51 156.576C459.934 156.256 459.294 156.064 458.59 156C457.886 155.872 457.182 155.648 456.478 155.328C455.838 155.008 455.198 154.848 454.558 154.848C453.918 154.784 453.31 154.752 452.734 154.752C452.414 154.624 452.062 154.464 451.678 154.272C451.358 154.016 451.038 153.856 450.718 153.792C450.398 153.664 450.078 153.568 449.758 153.504C449.438 153.44 449.118 153.344 448.798 153.216C448.734 153.088 448.67 152.928 448.606 152.736C448.606 152.544 448.574 152.416 448.51 152.352C448.446 151.264 448.414 150.24 448.414 149.28C448.478 148.256 448.478 147.264 448.414 146.304C448.414 145.6 448.414 144.896 448.414 144.192C448.478 143.488 448.51 142.784 448.51 142.08V141.12C448.446 140.8 448.318 140.48 448.126 140.16C447.934 139.776 447.87 139.392 447.934 139.008C447.998 138.624 448.03 138.24 448.03 137.856C448.03 137.472 448.03 137.12 448.03 136.8C448.158 136.416 448.158 136.032 448.03 135.648C447.966 135.264 447.934 134.912 447.934 134.592C448.062 133.952 448.222 133.312 448.414 132.672C448.606 132.032 448.862 131.456 449.182 130.944V120.96C449.182 120.704 449.15 120.512 449.086 120.384C448.766 119.744 448.638 119.136 448.702 118.56C448.766 118.24 448.798 117.92 448.798 117.6C448.862 117.216 448.926 116.864 448.99 116.544C448.862 116.096 448.734 115.648 448.606 115.2C448.478 114.752 448.35 114.304 448.222 113.856C448.35 113.472 448.318 113.056 448.126 112.608C447.998 112.16 447.966 111.712 448.03 111.264C448.158 110.88 448.382 110.56 448.702 110.304C449.022 109.984 449.214 109.6 449.278 109.152C449.214 108.64 448.99 108.16 448.606 107.712C448.222 107.2 448.03 106.624 448.03 105.984C448.35 105.472 448.67 105.184 448.99 105.12C449.694 104.992 450.334 104.8 450.91 104.544C451.55 104.224 452.158 103.872 452.734 103.488C452.798 103.424 453.054 103.328 453.502 103.2C453.758 103.264 454.014 103.328 454.27 103.392C454.59 103.456 454.942 103.52 455.326 103.584C455.838 103.392 456.35 103.264 456.862 103.2C457.438 103.136 458.046 103.104 458.686 103.104C459.198 103.104 459.678 103.072 460.126 103.008C460.638 102.944 461.214 102.88 461.854 102.816C462.174 102.88 462.494 102.944 462.814 103.008C463.198 103.072 463.582 103.136 463.966 103.2C464.478 103.456 464.926 103.776 465.31 104.16C465.758 104.48 466.078 104.896 466.27 105.408C466.654 106.304 467.134 107.136 467.71 107.904C468.286 108.672 468.734 109.472 469.054 110.304C469.374 110.56 469.694 110.784 470.014 110.976C470.398 111.168 470.686 111.424 470.878 111.744C471.39 112.256 471.966 112.704 472.606 113.088C473.246 113.472 473.886 113.824 474.526 114.144C475.102 114.912 475.614 115.68 476.062 116.448C476.574 117.216 477.182 117.856 477.886 118.368C478.142 118.88 478.366 119.392 478.558 119.904C478.75 120.416 478.942 120.864 479.134 121.248C479.39 121.632 479.678 121.856 479.998 121.92C480.382 121.92 480.702 121.952 480.958 122.016C481.086 122.08 481.182 122.144 481.246 122.208C481.374 122.208 481.47 122.24 481.534 122.304C482.046 122.752 482.462 123.264 482.782 123.84C483.102 124.352 483.422 124.928 483.742 125.568C484.062 125.76 484.35 125.984 484.606 126.24C484.862 126.432 485.15 126.624 485.47 126.816C485.598 126.88 485.726 126.912 485.854 126.912C486.046 126.848 486.174 126.816 486.238 126.816C486.558 126.368 486.814 125.952 487.006 125.568C487.262 125.12 487.358 124.64 487.294 124.128C487.23 123.936 487.23 123.744 487.294 123.552C487.358 123.36 487.39 123.136 487.39 122.88C487.518 122.112 487.678 121.344 487.87 120.576C488.062 119.808 488.19 119.008 488.254 118.176C488.318 117.6 488.382 117.024 488.446 116.448C488.51 115.808 488.478 115.232 488.35 114.72C488.414 113.696 488.414 112.736 488.35 111.84C488.286 110.88 488.222 109.92 488.158 108.96C488.094 107.552 488.126 106.176 488.254 104.832C488.382 103.488 488.638 102.112 489.022 100.704C489.022 100.64 489.022 100.608 489.022 100.608C489.086 100.608 489.118 100.576 489.118 100.512C489.374 100.192 489.63 100 489.886 99.936C490.206 99.808 490.494 99.648 490.75 99.456C491.07 99.264 491.39 99.168 491.71 99.168C492.03 99.168 492.35 99.232 492.67 99.36C493.054 99.68 493.47 100 493.918 100.32C494.046 100.32 494.142 100.352 494.206 100.416C494.334 100.48 494.462 100.512 494.59 100.512H497.758C498.206 100.576 498.654 100.672 499.102 100.8C499.55 100.864 499.998 101.056 500.446 101.376C500.574 101.44 500.67 101.472 500.734 101.472C500.862 101.408 500.958 101.408 501.022 101.472C501.342 101.344 501.63 101.216 501.886 101.088C502.206 100.896 502.526 100.768 502.846 100.704C502.974 100.768 503.07 100.864 503.134 100.992C503.262 101.056 503.39 101.184 503.518 101.376C503.774 101.76 503.934 102.176 503.998 102.624C504.126 103.072 504.094 103.52 503.902 103.968ZM554.21 149.952C554.146 149.888 554.082 149.856 554.018 149.856L554.114 149.952C553.858 150.08 553.666 150.368 553.538 150.816C553.474 151.264 553.314 151.584 553.058 151.776C552.994 151.968 552.77 152.256 552.386 152.64C552.002 153.024 551.714 153.184 551.522 153.12C550.626 152.928 549.57 152.928 548.354 153.12C548.162 153.312 547.97 153.504 547.778 153.696C547.586 153.888 547.33 154.112 547.01 154.368C546.946 154.368 546.882 154.4 546.818 154.464C546.754 154.464 546.658 154.464 546.53 154.464C546.338 154.528 546.05 154.56 545.666 154.56C543.618 154.496 541.602 154.88 539.618 155.712C539.17 155.84 538.69 155.936 538.178 156C537.666 156 537.154 155.904 536.642 155.712C536.258 155.52 535.874 155.424 535.49 155.424C535.17 155.36 534.818 155.36 534.434 155.424C533.602 155.424 532.802 155.296 532.034 155.04C531.714 155.104 531.362 155.168 530.978 155.232C530.658 155.296 530.338 155.392 530.018 155.52C529.698 155.648 529.378 155.808 529.058 156C528.738 156.256 528.386 156.352 528.002 156.288C527.938 156.16 527.842 156.032 527.714 155.904C527.586 155.712 527.458 155.488 527.33 155.232C527.202 155.168 527.042 155.104 526.85 155.04C526.658 154.912 526.498 154.816 526.37 154.752C525.538 154.624 524.77 154.336 524.066 153.888C523.106 153.248 522.178 152.768 521.282 152.448C520.834 152.32 520.45 152.096 520.13 151.776C519.874 151.392 519.586 151.072 519.266 150.816C519.01 150.176 518.786 149.568 518.594 148.992C518.402 148.416 518.274 147.808 518.21 147.168C518.018 147.04 517.858 146.912 517.73 146.784C517.602 146.592 517.474 146.432 517.346 146.304C516.962 146.048 516.77 145.824 516.77 145.632C516.706 145.056 516.514 144.608 516.194 144.288C515.874 143.968 515.586 143.52 515.33 142.944C515.33 142.816 515.298 142.624 515.234 142.368C515.234 142.112 515.202 141.856 515.138 141.6C515.138 141.472 515.138 141.312 515.138 141.12C515.138 140.864 515.106 140.672 515.042 140.544C514.786 140.032 514.53 139.552 514.273 139.104C514.018 138.592 513.794 138.112 513.602 137.664C513.602 137.344 513.666 136.864 513.794 136.224C514.114 134.88 514.082 133.568 513.698 132.288C513.506 131.84 513.378 131.392 513.314 130.944C513.25 130.496 513.154 130.048 513.026 129.6C513.09 129.472 513.154 129.312 513.218 129.12C513.346 128.864 513.474 128.672 513.602 128.544L512.93 126.528C512.802 126.208 512.61 125.92 512.354 125.664C512.162 125.344 511.97 125.056 511.778 124.8C511.714 124.288 511.81 123.808 512.066 123.36C512.386 122.912 512.578 122.464 512.642 122.016C512.642 121.824 512.61 121.632 512.546 121.44C512.546 121.248 512.546 121.056 512.546 120.864C513.058 120.16 513.378 119.424 513.506 118.656C513.698 117.888 513.826 117.088 513.89 116.256C514.338 116 514.722 115.712 515.042 115.392C515.362 115.072 515.586 114.656 515.714 114.144C515.778 113.952 515.81 113.728 515.81 113.472C515.874 113.216 515.938 112.96 516.002 112.704C516.322 112.192 516.642 111.68 516.962 111.168C517.346 110.592 517.698 110.08 518.018 109.632C518.146 109.312 518.242 108.96 518.306 108.576C518.434 108.192 518.626 107.872 518.882 107.616C519.202 107.424 519.426 107.168 519.554 106.848C519.746 106.528 519.906 106.208 520.034 105.888C520.482 105.824 520.866 105.728 521.186 105.6C521.506 105.472 521.794 105.376 522.049 105.312C522.37 105.12 522.53 104.928 522.53 104.736C522.722 103.84 523.106 103.2 523.682 102.816C524.322 102.368 525.026 102.048 525.794 101.856C526.05 101.792 526.274 101.76 526.466 101.76C526.658 101.696 526.914 101.632 527.234 101.568C527.362 101.44 527.522 101.28 527.714 101.088C527.906 100.832 528.098 100.576 528.29 100.32C528.674 100.192 529.026 100.064 529.346 99.936C529.73 99.808 530.05 99.68 530.306 99.552H530.978C531.49 99.744 532.002 99.936 532.514 100.128C533.09 100.256 533.698 100.416 534.338 100.608C534.85 100.544 535.362 100.448 535.874 100.32C536.45 100.128 536.994 100.096 537.506 100.224C537.57 100.224 537.634 100.256 537.698 100.32C537.762 100.32 537.826 100.288 537.89 100.224C538.338 100.224 538.786 100.16 539.234 100.032C539.682 99.904 540.13 99.872 540.578 99.936C540.962 99.936 541.346 99.904 541.73 99.84C542.178 99.776 542.594 99.648 542.978 99.456C543.298 99.392 543.586 99.36 543.842 99.36C544.162 99.296 544.482 99.328 544.802 99.456C544.994 99.648 545.186 99.84 545.378 100.032C545.57 100.16 545.794 100.352 546.05 100.608C546.562 100.672 547.106 100.8 547.682 100.992C548.322 101.12 548.962 101.28 549.602 101.472C549.922 101.536 550.21 101.696 550.466 101.952C550.786 102.208 551.17 102.4 551.618 102.528C552.002 102.656 552.386 102.752 552.77 102.816C553.218 102.816 553.666 102.816 554.114 102.816C555.138 103.84 556.354 104.544 557.762 104.928C557.89 104.992 558.018 105.056 558.146 105.12C558.274 105.184 558.402 105.248 558.53 105.312C559.042 105.76 559.522 106.24 559.97 106.752C560.482 107.2 560.962 107.648 561.41 108.096C561.858 108.608 562.114 109.152 562.177 109.728C562.69 110.176 562.978 110.528 563.042 110.784C563.17 110.976 563.234 111.584 563.234 112.608C563.618 112.8 563.97 113.024 564.29 113.28C564.61 113.472 564.802 113.792 564.866 114.24C564.994 114.496 565.122 114.752 565.25 115.008C565.378 115.2 565.474 115.424 565.538 115.68C565.73 115.936 565.922 116.16 566.114 116.352C566.37 116.48 566.626 116.672 566.882 116.928C567.074 117.376 567.234 117.824 567.362 118.272C567.49 118.656 567.49 119.104 567.362 119.616C567.234 120.064 567.202 120.544 567.266 121.056C567.33 121.568 567.33 122.112 567.266 122.688C567.202 123.2 567.202 123.744 567.266 124.32C567.33 124.896 567.394 125.44 567.458 125.952C567.522 126.208 567.554 126.496 567.554 126.816C567.554 127.072 567.586 127.296 567.65 127.488C567.906 127.936 568.034 128.384 568.034 128.832C568.098 129.28 568.098 129.728 568.034 130.176C568.034 130.432 568.034 130.688 568.034 130.944C568.098 131.136 568.13 131.392 568.13 131.712C567.874 132.544 567.65 133.408 567.458 134.304C567.266 135.136 566.978 135.936 566.594 136.704C566.21 137.408 565.826 138.112 565.442 138.816C565.058 139.52 564.61 140.192 564.098 140.832V142.464C563.778 142.656 563.458 142.88 563.138 143.136C562.882 143.328 562.658 143.488 562.466 143.616C562.018 144.384 561.73 145.088 561.602 145.728C561.538 146.304 561.41 146.848 561.218 147.36C560.962 147.616 560.706 147.872 560.45 148.128C560.194 148.384 559.906 148.64 559.586 148.896C559.266 149.152 558.882 149.376 558.434 149.568C558.05 149.696 557.602 149.664 557.09 149.472C556.514 149.344 556.034 149.376 555.65 149.568C555.394 149.632 555.138 149.696 554.882 149.76C554.626 149.824 554.402 149.888 554.21 149.952ZM552.674 128.256C552.546 127.936 552.45 127.648 552.386 127.392C552.386 127.072 552.354 126.752 552.29 126.432C552.29 125.92 552.258 125.504 552.194 125.184C552.066 124.672 551.874 124.128 551.618 123.552C551.426 122.912 551.202 122.304 550.946 121.728C550.882 121.472 550.754 121.216 550.562 120.96C550.434 120.64 550.306 120.352 550.178 120.096C549.666 119.072 548.866 118.464 547.778 118.272C547.586 118.208 547.362 118.144 547.106 118.08C546.85 117.952 546.626 117.824 546.434 117.696C546.05 117.44 545.666 117.248 545.282 117.12C544.898 116.992 544.514 116.896 544.13 116.832C543.618 116.704 543.074 116.576 542.498 116.448C541.922 116.256 541.378 116.128 540.866 116.064C540.226 115.744 539.618 115.776 539.042 116.16C537.314 116.864 535.746 117.792 534.338 118.944C532.93 120.032 531.714 121.536 530.69 123.456C530.498 123.712 530.306 124 530.114 124.32C529.986 124.64 529.858 124.96 529.73 125.28C529.474 125.6 529.25 125.952 529.058 126.336C528.866 126.656 528.706 126.976 528.578 127.296C528.642 127.808 528.866 128.224 529.25 128.544C529.634 128.864 529.858 129.28 529.922 129.792C529.922 130.048 529.826 130.304 529.634 130.56C529.442 130.752 529.314 130.976 529.25 131.232C529.378 131.488 529.538 131.776 529.73 132.096C529.922 132.416 530.082 132.736 530.21 133.056C530.402 133.376 530.53 133.728 530.594 134.112C530.722 134.432 530.818 134.784 530.882 135.168C531.01 135.488 531.106 135.808 531.17 136.128C531.298 136.448 531.394 136.768 531.458 137.088L532.802 138.144C532.994 138.272 533.186 138.464 533.378 138.72C533.634 138.912 533.89 139.072 534.146 139.2C534.914 139.392 535.586 139.584 536.161 139.776C536.674 139.904 537.122 139.968 537.506 139.968C537.89 139.968 538.306 139.968 538.754 139.968C538.754 139.968 538.722 139.968 538.658 139.968C538.658 139.968 538.658 140 538.658 140.064H538.85C538.786 140.064 538.754 140.032 538.754 139.968C538.882 139.84 539.042 139.776 539.234 139.776C539.426 139.712 539.586 139.68 539.714 139.68C540.098 139.68 540.482 139.712 540.866 139.776C541.314 139.776 541.762 139.744 542.21 139.68C542.338 139.552 542.498 139.552 542.69 139.68C542.946 139.744 543.17 139.808 543.362 139.872C543.618 139.872 543.81 139.808 543.938 139.68C543.938 139.424 543.906 139.2 543.842 139.008C543.842 138.816 543.938 138.656 544.13 138.528C544.962 138.08 545.762 137.728 546.53 137.472C546.85 137.216 547.106 136.992 547.298 136.8C547.554 136.608 547.778 136.384 547.97 136.128C548.226 136 548.418 135.84 548.546 135.648C548.738 135.456 548.962 135.328 549.218 135.264C549.794 135.072 550.274 134.816 550.658 134.496C551.106 134.112 551.522 133.728 551.906 133.344C551.97 133.216 552.002 133.12 552.002 133.056C552.066 132.928 552.13 132.8 552.194 132.672C552.898 131.2 553.058 129.728 552.674 128.256ZM625.633 107.52C625.569 107.904 625.473 108.288 625.345 108.672C625.217 109.056 625.089 109.44 624.961 109.824C624.897 110.08 624.865 110.464 624.865 110.976C624.673 111.168 624.481 111.392 624.289 111.648C624.161 111.84 623.969 112.096 623.713 112.416C623.713 112.672 623.649 113.056 623.521 113.568C623.265 113.76 623.009 113.952 622.753 114.144C622.497 114.336 622.209 114.528 621.889 114.72C621.825 114.976 621.729 115.232 621.601 115.488C621.473 115.68 621.345 115.936 621.217 116.256C620.513 116.896 619.873 117.6 619.297 118.368C618.785 119.136 618.177 119.872 617.473 120.576C617.089 120.704 616.705 120.576 616.321 120.192C615.937 119.808 615.521 119.456 615.073 119.136C614.689 118.752 614.241 118.432 613.729 118.176C613.537 118.048 613.409 117.952 613.345 117.888C613.281 117.824 613.185 117.728 613.057 117.6C612.801 117.6 612.513 117.536 612.193 117.408C611.937 117.28 611.681 117.184 611.425 117.12C611.105 117.056 610.817 116.928 610.561 116.736C610.305 116.544 610.049 116.352 609.793 116.16L608.737 115.008C608.097 115.136 607.489 115.072 606.913 114.816C606.401 114.56 605.825 114.304 605.185 114.048C604.737 114.112 604.289 114.144 603.841 114.144C603.393 114.144 602.913 114.176 602.401 114.24C601.953 114.496 601.505 114.784 601.057 115.104C600.609 115.424 600.161 115.744 599.713 116.064C599.137 116.512 598.561 116.928 597.985 117.312C597.473 117.632 596.865 117.856 596.161 117.984C596.097 117.984 596.001 118.048 595.873 118.176C595.745 118.24 595.617 118.304 595.489 118.368C595.233 118.624 594.945 118.944 594.625 119.328C594.369 119.712 594.113 120.064 593.857 120.384C593.537 121.344 593.281 122.208 593.089 122.976C593.153 123.232 593.185 123.456 593.185 123.648C593.249 123.84 593.313 124.032 593.377 124.224C593.377 124.608 593.185 124.96 592.801 125.28C592.609 125.536 592.385 125.76 592.129 125.952C591.937 126.08 591.777 126.336 591.649 126.72L592.321 127.776C592.385 128.032 592.289 128.288 592.033 128.544C591.841 128.8 591.681 129.088 591.553 129.408C591.553 129.472 591.521 129.504 591.457 129.504C591.393 129.504 591.361 129.536 591.361 129.6C591.489 130.048 591.585 130.56 591.649 131.136C591.777 131.648 591.873 132.16 591.937 132.672C592.577 133.184 593.121 133.728 593.569 134.304C594.081 134.88 594.561 135.488 595.009 136.128C595.329 136.512 595.649 136.864 595.969 137.184C596.353 137.504 596.705 137.824 597.025 138.144C597.665 138.464 598.305 138.784 598.945 139.104C599.649 139.36 600.321 139.552 600.961 139.68C601.473 139.744 601.921 139.904 602.305 140.16C602.753 140.352 603.265 140.544 603.841 140.736C604.417 140.736 605.057 140.768 605.761 140.832C606.465 140.832 607.169 140.832 607.873 140.832C608.321 140.832 608.609 140.8 608.737 140.736C609.441 140.544 610.113 140.448 610.753 140.448C611.393 140.384 612.033 140.256 612.673 140.064C613.377 139.936 614.049 139.84 614.689 139.776C615.393 139.712 616.065 139.648 616.705 139.584C616.833 139.584 616.993 139.52 617.185 139.392C617.441 139.264 617.665 139.264 617.857 139.392C618.113 139.648 618.305 139.904 618.433 140.16C618.561 140.416 618.721 140.704 618.913 141.024C618.849 141.216 618.817 141.472 618.817 141.792C618.817 142.048 618.817 142.336 618.817 142.656C620.225 145.024 621.281 147.744 621.985 150.816C621.025 151.52 620.065 152.256 619.105 153.024C618.209 153.728 617.249 154.496 616.225 155.328C615.777 155.52 615.265 155.648 614.689 155.712C614.177 155.712 613.761 155.968 613.441 156.48C613.185 156.352 612.929 156.256 612.673 156.192C612.481 156.128 612.321 156.064 612.193 156C611.937 156.064 611.777 156.192 611.713 156.384C611.649 156.576 611.553 156.736 611.425 156.864C611.041 156.672 610.689 156.48 610.369 156.288C610.305 156.352 610.145 156.416 609.889 156.48C609.697 156.544 609.537 156.608 609.409 156.672C608.769 156.8 608.161 156.928 607.585 157.056C607.009 157.248 606.401 157.344 605.761 157.344C605.313 157.344 604.801 157.344 604.225 157.344C603.649 157.408 603.105 157.472 602.593 157.536C602.465 157.536 602.305 157.504 602.113 157.44C601.921 157.44 601.697 157.408 601.441 157.344C600.609 157.088 600.065 156.896 599.809 156.768C599.553 156.64 599.009 156.32 598.177 155.808C597.665 155.744 597.281 155.904 597.025 156.288C596.833 156.736 596.577 156.96 596.257 156.96H595.105C594.593 156.768 594.081 156.576 593.569 156.384C593.057 156.192 592.513 156.064 591.937 156C591.489 155.936 591.073 155.84 590.689 155.712C590.369 155.52 589.985 155.36 589.537 155.232C589.089 154.848 588.609 154.464 588.097 154.08C587.649 153.632 587.169 153.28 586.657 153.024C586.209 152.832 585.761 152.576 585.313 152.256C584.929 151.872 584.577 151.488 584.257 151.104C584.001 150.72 583.713 150.432 583.393 150.24C583.073 149.984 582.785 149.696 582.529 149.376C582.081 148.672 581.537 148.032 580.897 147.456C580.577 147.136 580.289 146.816 580.033 146.496C579.841 146.112 579.585 145.76 579.265 145.44C579.073 144.544 578.881 143.648 578.689 142.752C578.561 141.856 578.433 140.928 578.305 139.968C578.177 139.84 578.017 139.648 577.825 139.392C577.697 139.072 577.505 138.784 577.249 138.528C577.185 138.016 577.089 137.472 576.961 136.896C576.833 136.256 576.609 135.68 576.289 135.168C576.353 134.912 576.449 134.592 576.577 134.208C576.577 133.888 576.577 133.728 576.577 133.728C576.065 132.32 575.905 130.976 576.097 129.696C576.225 128.8 576.321 127.872 576.385 126.912C576.513 125.888 576.609 124.896 576.673 123.936C576.865 123.808 577.025 123.68 577.153 123.552C577.345 123.424 577.537 123.296 577.729 123.168C576.961 121.952 576.961 120.608 577.729 119.136C577.409 118.496 577.249 117.984 577.249 117.6C577.249 117.216 577.249 117.024 577.249 117.024C577.505 116.768 577.729 116.512 577.921 116.256C578.113 116 578.337 115.744 578.593 115.488C579.105 115.04 579.553 114.496 579.937 113.856C580.129 113.536 580.289 113.184 580.417 112.8C580.609 112.416 580.673 112.064 580.609 111.744C581.121 111.424 581.633 111.2 582.145 111.072C582.721 110.88 583.169 110.592 583.489 110.208C583.553 110.144 583.617 110.016 583.681 109.824C583.681 109.632 583.649 109.408 583.585 109.152C583.585 108.896 583.585 108.608 583.585 108.288C583.777 108.032 583.937 107.68 584.065 107.232C584.513 106.976 584.897 106.784 585.217 106.656C585.537 106.528 585.857 106.368 586.177 106.176C586.305 106.048 586.401 105.92 586.465 105.792C586.593 105.664 586.689 105.536 586.753 105.408C587.393 104.384 588.193 103.648 589.153 103.2C589.537 103.072 589.921 102.912 590.305 102.72C590.689 102.528 591.041 102.368 591.361 102.24C591.553 102.112 591.713 101.984 591.841 101.856C592.033 101.664 592.225 101.504 592.417 101.376C592.865 101.248 593.345 101.088 593.857 100.896C594.305 100.704 594.753 100.512 595.201 100.32C595.713 100.128 596.225 100 596.737 99.936C597.185 99.808 597.601 99.648 597.985 99.456C598.433 99.264 598.849 99.136 599.233 99.072C599.553 98.944 599.809 98.976 600.001 99.168C600.257 99.296 600.513 99.424 600.769 99.552H602.785C603.105 99.424 603.329 99.264 603.457 99.072C603.585 98.816 603.777 98.656 604.033 98.592C604.929 98.4 605.601 98.272 606.049 98.208C606.497 98.144 607.073 98.144 607.777 98.208C608.481 98.208 609.537 98.272 610.945 98.4C611.265 98.464 611.521 98.592 611.713 98.784C611.969 98.976 612.257 99.104 612.577 99.168C613.025 99.168 613.441 99.232 613.825 99.36C614.273 99.424 614.721 99.52 615.169 99.648C615.745 100.096 616.353 100.512 616.993 100.896C617.633 101.216 618.369 101.408 619.201 101.472C619.585 102.112 620.065 102.624 620.641 103.008C621.281 103.392 621.921 103.744 622.561 104.064C623.137 104.384 623.681 104.768 624.193 105.216C624.705 105.664 625.185 106.144 625.633 106.656C625.633 106.784 625.633 106.944 625.633 107.136C625.697 107.264 625.697 107.392 625.633 107.52ZM685.977 149.088C685.913 149.28 685.881 149.472 685.881 149.664C685.945 149.792 685.913 149.888 685.785 149.952C685.017 150.848 684.217 151.776 683.385 152.736C682.617 153.696 681.849 154.688 681.081 155.712L680.217 156.576C679.897 156.64 679.545 156.672 679.161 156.672C678.841 156.672 678.489 156.704 678.105 156.768C677.849 156.832 677.561 156.896 677.241 156.96C676.985 157.088 676.729 157.216 676.473 157.344C675.897 157.152 675.385 156.928 674.937 156.672C674.489 156.48 674.105 156.16 673.785 155.712C673.721 155.456 673.529 155.232 673.209 155.04C672.249 154.336 671.289 153.632 670.329 152.928C669.369 152.16 668.345 151.52 667.257 151.008C667.001 150.88 666.745 150.752 666.489 150.624C666.233 150.496 665.945 150.336 665.625 150.144C665.305 150.016 664.953 149.856 664.569 149.664C664.185 149.472 663.737 149.28 663.225 149.088C662.969 148.832 662.649 148.576 662.265 148.32C661.945 148 661.625 147.68 661.305 147.36C660.729 146.72 659.993 146.176 659.097 145.728C658.713 145.6 658.361 145.408 658.041 145.152C657.721 144.832 657.401 144.544 657.081 144.288C656.249 143.84 655.449 143.488 654.681 143.232C654.169 142.592 653.753 142.048 653.433 141.6C652.921 141.28 652.345 141.216 651.705 141.408C651.641 141.472 651.577 141.568 651.513 141.696C651.449 141.76 651.417 141.856 651.417 141.984C651.225 143.392 651.001 144.864 650.745 146.4C650.553 147.872 650.329 149.344 650.073 150.816C650.201 150.944 650.297 151.104 650.361 151.296C650.489 151.488 650.617 151.68 650.745 151.872C650.873 152.448 650.873 153.056 650.745 153.696C650.681 154.272 650.713 154.848 650.841 155.424C650.905 156 650.905 156.576 650.841 157.152C650.841 157.728 650.841 158.304 650.841 158.88C650.841 159.52 650.553 159.84 649.977 159.84C649.273 159.776 648.601 159.776 647.961 159.84C647.321 159.968 646.649 160.096 645.945 160.224C644.921 160.288 643.865 160.32 642.777 160.32C641.753 160.384 640.761 160.448 639.801 160.512C639.161 160.512 638.553 160.416 637.977 160.224C637.401 160.032 636.825 159.808 636.249 159.552C635.481 159.296 635.065 158.848 635.001 158.208C634.937 157.696 634.873 157.152 634.809 156.576C634.809 156.064 634.745 155.584 634.617 155.136C634.553 154.624 634.585 154.144 634.713 153.696C634.841 153.248 634.937 152.8 635.001 152.352C634.873 151.84 634.713 151.36 634.521 150.912C634.393 150.464 634.329 149.952 634.329 149.376C634.457 149.12 634.489 148.896 634.425 148.704C634.361 148.512 634.297 148.32 634.233 148.128C633.977 147.616 633.817 147.072 633.753 146.496C633.753 145.92 633.785 145.376 633.849 144.864C633.913 144.16 633.913 143.488 633.849 142.848C633.785 142.208 633.625 141.632 633.369 141.12C633.433 140.544 633.497 140.032 633.561 139.584C633.689 139.072 633.753 138.592 633.753 138.144C633.753 137.76 633.817 137.376 633.945 136.992C634.073 136.544 634.105 136.096 634.041 135.648C633.977 135.2 633.913 134.752 633.849 134.304C633.849 133.856 633.849 133.408 633.849 132.96C633.849 131.296 633.817 129.696 633.753 128.16C633.753 126.56 633.753 124.96 633.753 123.36C633.881 122.272 633.753 121.28 633.369 120.384C633.753 119.872 634.041 119.392 634.233 118.944C634.489 118.432 634.873 117.984 635.385 117.6C635.577 117.408 635.385 117.216 634.809 117.024C634.745 117.024 634.681 117.024 634.617 117.024C634.617 116.96 634.585 116.928 634.521 116.928C634.265 116.48 634.201 116.032 634.329 115.584C634.457 115.072 634.457 114.592 634.329 114.144C634.265 113.632 634.329 113.184 634.521 112.8C634.777 112.416 634.905 112 634.905 111.552C634.841 111.232 634.777 110.944 634.713 110.688C634.713 110.432 634.681 110.176 634.617 109.92C634.681 109.728 634.713 109.504 634.713 109.248C634.777 108.928 634.841 108.64 634.905 108.384C634.521 106.912 634.297 105.44 634.233 103.968C634.233 102.496 634.233 101.024 634.233 99.552C634.233 99.168 634.329 98.784 634.521 98.4C634.521 98.144 634.585 97.952 634.713 97.824C634.841 97.632 634.969 97.472 635.097 97.344C636.057 96.96 637.017 96.608 637.977 96.288C638.937 95.904 639.929 95.744 640.953 95.808C641.465 95.872 642.009 95.808 642.585 95.616C643.289 95.296 643.993 95.168 644.697 95.232C645.401 95.232 646.105 95.296 646.809 95.424C647.321 95.552 647.801 95.712 648.249 95.904C648.697 96.032 649.113 96.288 649.497 96.672C650.009 96.736 650.457 96.672 650.841 96.48C651.289 96.224 651.737 96.096 652.185 96.096C652.249 96.16 652.313 96.192 652.377 96.192C652.505 96.192 652.569 96.256 652.569 96.384C653.081 97.216 653.337 98.112 653.337 99.072C653.273 99.456 653.273 99.872 653.337 100.32C653.465 100.704 653.593 101.152 653.721 101.664C653.593 102.048 653.497 102.496 653.433 103.008C653.369 103.456 653.273 103.936 653.145 104.448C653.081 105.152 653.081 105.888 653.145 106.656C653.209 107.168 653.241 107.712 653.241 108.288C653.241 108.864 653.241 109.408 653.241 109.92C653.241 110.112 653.209 110.304 653.145 110.496C653.081 110.624 653.049 110.752 653.049 110.88C652.729 111.584 652.537 112.16 652.473 112.608C652.473 112.992 652.473 113.376 652.473 113.76C652.473 114.08 652.505 114.432 652.569 114.816C652.569 114.88 652.537 115.008 652.473 115.2C652.409 115.392 652.409 115.552 652.473 115.68C652.601 116.32 652.665 116.992 652.665 117.696C652.665 118.336 652.697 119.008 652.761 119.712C652.761 120.16 652.953 120.48 653.337 120.672C653.721 120.608 654.073 120.448 654.393 120.192C654.713 119.936 655.097 119.808 655.545 119.808C656.249 119.232 656.921 118.752 657.561 118.368C657.817 118.24 658.041 118.144 658.233 118.08C658.489 118.016 658.745 117.952 659.001 117.888C659.385 117.696 659.641 117.408 659.769 117.024C659.961 116.576 660.185 116.224 660.441 115.968C661.849 114.944 663.097 113.856 664.185 112.704C664.505 112.384 664.857 112.064 665.241 111.744C665.689 111.36 666.105 111.04 666.489 110.784C666.617 110.656 666.745 110.56 666.873 110.496C667.001 110.368 667.097 110.272 667.161 110.208C667.993 109.12 668.985 108.224 670.137 107.52C671.289 106.816 672.313 106.08 673.209 105.312C673.913 105.184 674.585 105.056 675.225 104.928C675.865 104.736 676.473 104.608 677.049 104.544C678.137 104.672 678.809 105.088 679.065 105.792C679.193 106.048 679.321 106.272 679.449 106.464C679.641 106.656 679.801 106.88 679.929 107.136C680.633 107.84 681.337 108.576 682.041 109.344C682.745 110.112 683.449 110.88 684.153 111.648C684.345 111.84 684.505 112.064 684.633 112.32C684.825 112.576 684.985 112.832 685.113 113.088C685.241 113.344 685.241 113.568 685.113 113.76C685.049 113.952 684.953 114.112 684.825 114.24C684.441 114.624 684.025 115.04 683.577 115.488C683.193 115.872 682.713 116.16 682.137 116.352C682.009 116.416 681.881 116.512 681.753 116.64C681.625 116.704 681.497 116.768 681.369 116.832C681.049 117.088 680.761 117.376 680.505 117.696C680.313 117.952 680.249 118.304 680.313 118.752C680.121 119.008 679.929 119.2 679.737 119.328L677.433 121.344C677.433 121.344 677.369 121.408 677.241 121.536C676.281 121.984 675.385 122.528 674.553 123.168C673.785 123.744 672.953 124.288 672.057 124.8C671.097 125.248 670.201 125.792 669.369 126.432C668.601 127.072 667.929 127.84 667.353 128.736C667.225 129.056 667.001 129.312 666.681 129.504C666.361 129.696 666.137 129.984 666.009 130.368C666.009 130.688 666.073 130.88 666.201 130.944C666.329 131.008 666.489 131.104 666.681 131.232C666.873 131.36 667.065 131.488 667.257 131.616C667.833 131.872 668.345 132.224 668.793 132.672C669.241 133.056 669.657 133.504 670.041 134.016C670.489 134.656 671.001 135.264 671.577 135.84C672.217 136.352 672.889 136.864 673.593 137.376C673.785 137.504 674.009 137.696 674.265 137.952C674.521 138.144 674.777 138.336 675.033 138.528C675.481 139.168 675.993 139.712 676.569 140.16C677.209 140.608 677.817 141.056 678.393 141.504C678.777 141.76 679.161 142.048 679.545 142.368C679.993 142.688 680.441 143.008 680.889 143.328C681.209 143.776 681.497 144.288 681.753 144.864C682.009 145.44 682.489 145.792 683.193 145.92C683.577 146.624 683.929 147.296 684.249 147.936C684.569 148.576 685.145 148.96 685.977 149.088ZM440.352 264.088C440.288 264.28 440.256 264.472 440.256 264.664C440.32 264.792 440.288 264.888 440.16 264.952C439.392 265.848 438.592 266.776 437.76 267.736C436.992 268.696 436.224 269.688 435.456 270.712L434.592 271.576C434.272 271.64 433.92 271.672 433.536 271.672C433.216 271.672 432.864 271.704 432.48 271.768C432.224 271.832 431.936 271.896 431.616 271.96C431.36 272.088 431.104 272.216 430.848 272.344C430.272 272.152 429.76 271.928 429.312 271.672C428.864 271.48 428.48 271.16 428.16 270.712C428.096 270.456 427.904 270.232 427.584 270.04C426.624 269.336 425.664 268.632 424.704 267.928C423.744 267.16 422.72 266.52 421.632 266.008C421.376 265.88 421.12 265.752 420.864 265.624C420.608 265.496 420.32 265.336 420 265.144C419.68 265.016 419.328 264.856 418.944 264.664C418.56 264.472 418.112 264.28 417.6 264.088C417.344 263.832 417.024 263.576 416.64 263.32C416.32 263 416 262.68 415.68 262.36C415.104 261.72 414.368 261.176 413.472 260.728C413.088 260.6 412.736 260.408 412.416 260.152C412.096 259.832 411.776 259.544 411.456 259.288C410.624 258.84 409.824 258.488 409.056 258.232C408.544 257.592 408.128 257.048 407.808 256.6C407.296 256.28 406.72 256.216 406.08 256.408C406.016 256.472 405.952 256.568 405.888 256.696C405.824 256.76 405.792 256.856 405.792 256.984C405.6 258.392 405.376 259.864 405.12 261.4C404.928 262.872 404.704 264.344 404.448 265.816C404.576 265.944 404.672 266.104 404.736 266.296C404.864 266.488 404.992 266.68 405.12 266.872C405.248 267.448 405.248 268.056 405.12 268.696C405.056 269.272 405.088 269.848 405.216 270.424C405.28 271 405.28 271.576 405.216 272.152C405.216 272.728 405.216 273.304 405.216 273.88C405.216 274.52 404.928 274.84 404.352 274.84C403.648 274.776 402.976 274.776 402.336 274.84C401.696 274.968 401.024 275.096 400.32 275.224C399.296 275.288 398.24 275.32 397.152 275.32C396.128 275.384 395.136 275.448 394.176 275.512C393.536 275.512 392.928 275.416 392.352 275.224C391.776 275.032 391.2 274.808 390.624 274.552C389.856 274.296 389.44 273.848 389.376 273.208C389.312 272.696 389.248 272.152 389.184 271.576C389.184 271.064 389.12 270.584 388.992 270.136C388.928 269.624 388.96 269.144 389.088 268.696C389.216 268.248 389.312 267.8 389.376 267.352C389.248 266.84 389.088 266.36 388.896 265.912C388.768 265.464 388.704 264.952 388.704 264.376C388.832 264.12 388.864 263.896 388.8 263.704C388.736 263.512 388.672 263.32 388.608 263.128C388.352 262.616 388.192 262.072 388.128 261.496C388.128 260.92 388.16 260.376 388.224 259.864C388.288 259.16 388.288 258.488 388.224 257.848C388.16 257.208 388 256.632 387.744 256.12C387.808 255.544 387.872 255.032 387.936 254.584C388.064 254.072 388.128 253.592 388.128 253.144C388.128 252.76 388.192 252.376 388.32 251.992C388.448 251.544 388.48 251.096 388.416 250.648C388.352 250.2 388.288 249.752 388.224 249.304C388.224 248.856 388.224 248.408 388.224 247.96C388.224 246.296 388.192 244.696 388.128 243.16C388.128 241.56 388.128 239.96 388.128 238.36C388.256 237.272 388.128 236.28 387.744 235.384C388.128 234.872 388.416 234.392 388.608 233.944C388.864 233.432 389.248 232.984 389.76 232.6C389.952 232.408 389.76 232.216 389.184 232.024C389.12 232.024 389.056 232.024 388.992 232.024C388.992 231.96 388.96 231.928 388.896 231.928C388.64 231.48 388.576 231.032 388.704 230.584C388.832 230.072 388.832 229.592 388.704 229.144C388.64 228.632 388.704 228.184 388.896 227.8C389.152 227.416 389.28 227 389.28 226.552C389.216 226.232 389.152 225.944 389.088 225.688C389.088 225.432 389.056 225.176 388.992 224.92C389.056 224.728 389.088 224.504 389.088 224.248C389.152 223.928 389.216 223.64 389.28 223.384C388.896 221.912 388.672 220.44 388.608 218.968C388.608 217.496 388.608 216.024 388.608 214.552C388.608 214.168 388.704 213.784 388.896 213.4C388.896 213.144 388.96 212.952 389.088 212.824C389.216 212.632 389.344 212.472 389.472 212.344C390.432 211.96 391.392 211.608 392.352 211.288C393.312 210.904 394.304 210.744 395.328 210.808C395.84 210.872 396.384 210.808 396.96 210.616C397.664 210.296 398.368 210.168 399.072 210.232C399.776 210.232 400.48 210.296 401.184 210.424C401.696 210.552 402.176 210.712 402.624 210.904C403.072 211.032 403.488 211.288 403.872 211.672C404.384 211.736 404.832 211.672 405.216 211.48C405.664 211.224 406.112 211.096 406.56 211.096C406.624 211.16 406.688 211.192 406.752 211.192C406.88 211.192 406.944 211.256 406.944 211.384C407.456 212.216 407.712 213.112 407.712 214.072C407.648 214.456 407.648 214.872 407.712 215.32C407.84 215.704 407.968 216.152 408.096 216.664C407.968 217.048 407.872 217.496 407.808 218.008C407.744 218.456 407.648 218.936 407.52 219.448C407.456 220.152 407.456 220.888 407.52 221.656C407.584 222.168 407.616 222.712 407.616 223.288C407.616 223.864 407.616 224.408 407.616 224.92C407.616 225.112 407.584 225.304 407.52 225.496C407.456 225.624 407.424 225.752 407.424 225.88C407.104 226.584 406.912 227.16 406.848 227.608C406.848 227.992 406.848 228.376 406.848 228.76C406.848 229.08 406.88 229.432 406.944 229.816C406.944 229.88 406.912 230.008 406.848 230.2C406.784 230.392 406.784 230.552 406.848 230.68C406.976 231.32 407.04 231.992 407.04 232.696C407.04 233.336 407.072 234.008 407.136 234.712C407.136 235.16 407.328 235.48 407.712 235.672C408.096 235.608 408.448 235.448 408.768 235.192C409.088 234.936 409.472 234.808 409.92 234.808C410.624 234.232 411.296 233.752 411.936 233.368C412.192 233.24 412.416 233.144 412.608 233.08C412.864 233.016 413.12 232.952 413.376 232.888C413.76 232.696 414.016 232.408 414.144 232.024C414.336 231.576 414.56 231.224 414.816 230.968C416.224 229.944 417.472 228.856 418.56 227.704C418.88 227.384 419.232 227.064 419.616 226.744C420.064 226.36 420.48 226.04 420.864 225.784C420.992 225.656 421.12 225.56 421.248 225.496C421.376 225.368 421.472 225.272 421.536 225.208C422.368 224.12 423.36 223.224 424.512 222.52C425.664 221.816 426.688 221.08 427.584 220.312C428.288 220.184 428.96 220.056 429.6 219.928C430.24 219.736 430.848 219.608 431.424 219.544C432.512 219.672 433.184 220.088 433.44 220.792C433.568 221.048 433.696 221.272 433.824 221.464C434.016 221.656 434.176 221.88 434.304 222.136C435.008 222.84 435.712 223.576 436.416 224.344C437.12 225.112 437.824 225.88 438.528 226.648C438.72 226.84 438.88 227.064 439.008 227.32C439.2 227.576 439.36 227.832 439.488 228.088C439.616 228.344 439.616 228.568 439.488 228.76C439.424 228.952 439.328 229.112 439.2 229.24C438.816 229.624 438.4 230.04 437.952 230.488C437.568 230.872 437.088 231.16 436.512 231.352C436.384 231.416 436.256 231.512 436.128 231.64C436 231.704 435.872 231.768 435.744 231.832C435.424 232.088 435.136 232.376 434.88 232.696C434.688 232.952 434.624 233.304 434.688 233.752C434.496 234.008 434.304 234.2 434.112 234.328L431.808 236.344C431.808 236.344 431.744 236.408 431.616 236.536C430.656 236.984 429.76 237.528 428.928 238.168C428.16 238.744 427.328 239.288 426.432 239.8C425.472 240.248 424.576 240.792 423.744 241.432C422.976 242.072 422.304 242.84 421.728 243.736C421.6 244.056 421.376 244.312 421.056 244.504C420.736 244.696 420.512 244.984 420.384 245.368C420.384 245.688 420.448 245.88 420.576 245.944C420.704 246.008 420.864 246.104 421.056 246.232C421.248 246.36 421.44 246.488 421.632 246.616C422.208 246.872 422.72 247.224 423.168 247.672C423.616 248.056 424.032 248.504 424.416 249.016C424.864 249.656 425.376 250.264 425.952 250.84C426.592 251.352 427.264 251.864 427.968 252.376C428.16 252.504 428.384 252.696 428.64 252.952C428.896 253.144 429.152 253.336 429.408 253.528C429.856 254.168 430.368 254.712 430.944 255.16C431.584 255.608 432.192 256.056 432.768 256.504C433.152 256.76 433.536 257.048 433.92 257.368C434.368 257.688 434.816 258.008 435.264 258.328C435.584 258.776 435.872 259.288 436.128 259.864C436.384 260.44 436.864 260.792 437.568 260.92C437.952 261.624 438.304 262.296 438.624 262.936C438.944 263.576 439.52 263.96 440.352 264.088ZM503.902 218.968C503.646 219.672 503.55 220.376 503.614 221.08C503.678 221.784 503.742 222.488 503.806 223.192V223.672C503.742 223.992 503.646 224.344 503.518 224.728C503.39 225.112 503.262 225.496 503.134 225.88C503.326 226.968 503.422 228.056 503.422 229.144C503.422 230.168 503.422 231.192 503.422 232.216C503.422 232.728 503.39 233.24 503.326 233.752C503.326 234.2 503.358 234.648 503.422 235.096C503.422 235.544 503.454 235.992 503.518 236.44C503.582 236.888 503.646 237.368 503.71 237.88C503.582 238.52 503.454 239.256 503.326 240.088C503.262 240.856 503.07 241.624 502.75 242.392C502.75 243.16 502.622 243.928 502.366 244.696C502.174 245.464 502.174 246.232 502.366 247C502.302 247.64 502.238 248.28 502.174 248.92C502.174 249.56 502.142 250.232 502.078 250.936C502.014 251.512 501.95 252.088 501.886 252.664C501.886 253.24 501.95 253.816 502.078 254.392C502.078 254.968 501.982 255.608 501.79 256.312C501.47 257.08 501.406 257.784 501.598 258.424C501.534 259.64 501.438 260.888 501.31 262.168C501.246 263.448 500.99 264.696 500.542 265.912C500.478 266.168 500.446 266.488 500.446 266.872C500.446 267.192 500.478 267.416 500.542 267.544L499.87 268.216C499.358 268.28 498.846 268.344 498.334 268.408C497.886 268.472 497.406 268.536 496.894 268.6C496.702 268.664 496.478 268.792 496.222 268.984C496.03 269.112 495.742 269.304 495.358 269.56C494.462 269.816 493.566 270.04 492.67 270.232C491.774 270.36 490.878 270.52 489.982 270.712C489.534 270.584 489.118 270.52 488.734 270.52C488.414 270.52 488.094 270.488 487.774 270.424C487.518 270.36 487.23 270.328 486.91 270.328C486.654 270.264 486.366 270.2 486.046 270.136C485.918 270.2 485.758 270.264 485.566 270.328C485.374 270.392 485.214 270.456 485.086 270.52L484.126 269.656C483.87 269.144 483.742 268.664 483.742 268.216C483.806 267.768 483.806 267.32 483.742 266.872C483.486 266.488 483.166 266.232 482.782 266.104C482.398 265.976 482.046 265.784 481.726 265.528C481.278 265.016 480.926 264.472 480.67 263.896C480.414 263.32 480.03 262.808 479.518 262.36C479.07 261.976 478.686 261.528 478.366 261.016C478.11 260.504 477.758 260.056 477.31 259.672C476.99 258.968 476.638 258.296 476.254 257.656C475.87 257.016 475.518 256.376 475.198 255.736C474.878 255.16 474.526 254.648 474.142 254.2C473.758 253.88 473.374 253.528 472.99 253.144C472.67 252.696 472.318 252.28 471.934 251.896C471.87 251.448 471.71 251.064 471.454 250.744C471.198 250.424 470.942 250.072 470.686 249.688C470.174 248.792 469.566 247.96 468.862 247.192C468.158 246.424 467.518 245.592 466.942 244.696C466.814 244.76 466.686 244.792 466.558 244.792C466.43 244.792 466.334 244.856 466.27 244.984C465.886 245.56 465.694 246.296 465.694 247.192C465.694 247.384 465.726 247.576 465.79 247.768C465.854 247.96 465.822 248.152 465.694 248.344C465.566 248.472 465.406 248.6 465.214 248.728C465.022 248.856 464.83 248.984 464.638 249.112C464.382 249.752 464.286 250.424 464.35 251.128C464.414 251.832 464.382 252.536 464.254 253.24C464.19 253.88 464.158 254.552 464.158 255.256C464.158 255.96 464.158 256.632 464.158 257.272L463.198 259C462.942 259.896 462.878 260.792 463.006 261.688C463.134 262.584 463.358 263.48 463.678 264.376C463.486 264.824 463.326 265.336 463.198 265.912C463.134 266.36 463.07 266.84 463.006 267.352C462.942 267.8 462.942 268.28 463.006 268.792C463.07 270.072 462.43 270.968 461.086 271.48C460.958 271.48 460.766 271.512 460.51 271.576C459.934 271.256 459.294 271.064 458.59 271C457.886 270.872 457.182 270.648 456.478 270.328C455.838 270.008 455.198 269.848 454.558 269.848C453.918 269.784 453.31 269.752 452.734 269.752C452.414 269.624 452.062 269.464 451.678 269.272C451.358 269.016 451.038 268.856 450.718 268.792C450.398 268.664 450.078 268.568 449.758 268.504C449.438 268.44 449.118 268.344 448.798 268.216C448.734 268.088 448.67 267.928 448.606 267.736C448.606 267.544 448.574 267.416 448.51 267.352C448.446 266.264 448.414 265.24 448.414 264.28C448.478 263.256 448.478 262.264 448.414 261.304C448.414 260.6 448.414 259.896 448.414 259.192C448.478 258.488 448.51 257.784 448.51 257.08V256.12C448.446 255.8 448.318 255.48 448.126 255.16C447.934 254.776 447.87 254.392 447.934 254.008C447.998 253.624 448.03 253.24 448.03 252.856C448.03 252.472 448.03 252.12 448.03 251.8C448.158 251.416 448.158 251.032 448.03 250.648C447.966 250.264 447.934 249.912 447.934 249.592C448.062 248.952 448.222 248.312 448.414 247.672C448.606 247.032 448.862 246.456 449.182 245.944V235.96C449.182 235.704 449.15 235.512 449.086 235.384C448.766 234.744 448.638 234.136 448.702 233.56C448.766 233.24 448.798 232.92 448.798 232.6C448.862 232.216 448.926 231.864 448.99 231.544C448.862 231.096 448.734 230.648 448.606 230.2C448.478 229.752 448.35 229.304 448.222 228.856C448.35 228.472 448.318 228.056 448.126 227.608C447.998 227.16 447.966 226.712 448.03 226.264C448.158 225.88 448.382 225.56 448.702 225.304C449.022 224.984 449.214 224.6 449.278 224.152C449.214 223.64 448.99 223.16 448.606 222.712C448.222 222.2 448.03 221.624 448.03 220.984C448.35 220.472 448.67 220.184 448.99 220.12C449.694 219.992 450.334 219.8 450.91 219.544C451.55 219.224 452.158 218.872 452.734 218.488C452.798 218.424 453.054 218.328 453.502 218.2C453.758 218.264 454.014 218.328 454.27 218.392C454.59 218.456 454.942 218.52 455.326 218.584C455.838 218.392 456.35 218.264 456.862 218.2C457.438 218.136 458.046 218.104 458.686 218.104C459.198 218.104 459.678 218.072 460.126 218.008C460.638 217.944 461.214 217.88 461.854 217.816C462.174 217.88 462.494 217.944 462.814 218.008C463.198 218.072 463.582 218.136 463.966 218.2C464.478 218.456 464.926 218.776 465.31 219.16C465.758 219.48 466.078 219.896 466.27 220.408C466.654 221.304 467.134 222.136 467.71 222.904C468.286 223.672 468.734 224.472 469.054 225.304C469.374 225.56 469.694 225.784 470.014 225.976C470.398 226.168 470.686 226.424 470.878 226.744C471.39 227.256 471.966 227.704 472.606 228.088C473.246 228.472 473.886 228.824 474.526 229.144C475.102 229.912 475.614 230.68 476.062 231.448C476.574 232.216 477.182 232.856 477.886 233.368C478.142 233.88 478.366 234.392 478.558 234.904C478.75 235.416 478.942 235.864 479.134 236.248C479.39 236.632 479.678 236.856 479.998 236.92C480.382 236.92 480.702 236.952 480.958 237.016C481.086 237.08 481.182 237.144 481.246 237.208C481.374 237.208 481.47 237.24 481.534 237.304C482.046 237.752 482.462 238.264 482.782 238.84C483.102 239.352 483.422 239.928 483.742 240.568C484.062 240.76 484.35 240.984 484.606 241.24C484.862 241.432 485.15 241.624 485.47 241.816C485.598 241.88 485.726 241.912 485.854 241.912C486.046 241.848 486.174 241.816 486.238 241.816C486.558 241.368 486.814 240.952 487.006 240.568C487.262 240.12 487.358 239.64 487.294 239.128C487.23 238.936 487.23 238.744 487.294 238.552C487.358 238.36 487.39 238.136 487.39 237.88C487.518 237.112 487.678 236.344 487.87 235.576C488.062 234.808 488.19 234.008 488.254 233.176C488.318 232.6 488.382 232.024 488.446 231.448C488.51 230.808 488.478 230.232 488.35 229.72C488.414 228.696 488.414 227.736 488.35 226.84C488.286 225.88 488.222 224.92 488.158 223.96C488.094 222.552 488.126 221.176 488.254 219.832C488.382 218.488 488.638 217.112 489.022 215.704C489.022 215.64 489.022 215.608 489.022 215.608C489.086 215.608 489.118 215.576 489.118 215.512C489.374 215.192 489.63 215 489.886 214.936C490.206 214.808 490.494 214.648 490.75 214.456C491.07 214.264 491.39 214.168 491.71 214.168C492.03 214.168 492.35 214.232 492.67 214.36C493.054 214.68 493.47 215 493.918 215.32C494.046 215.32 494.142 215.352 494.206 215.416C494.334 215.48 494.462 215.512 494.59 215.512H497.758C498.206 215.576 498.654 215.672 499.102 215.8C499.55 215.864 499.998 216.056 500.446 216.376C500.574 216.44 500.67 216.472 500.734 216.472C500.862 216.408 500.958 216.408 501.022 216.472C501.342 216.344 501.63 216.216 501.886 216.088C502.206 215.896 502.526 215.768 502.846 215.704C502.974 215.768 503.07 215.864 503.134 215.992C503.262 216.056 503.39 216.184 503.518 216.376C503.774 216.76 503.934 217.176 503.998 217.624C504.126 218.072 504.094 218.52 503.902 218.968ZM554.21 264.952C554.146 264.888 554.082 264.856 554.018 264.856L554.114 264.952C553.858 265.08 553.666 265.368 553.538 265.816C553.474 266.264 553.314 266.584 553.058 266.776C552.994 266.968 552.77 267.256 552.386 267.64C552.002 268.024 551.714 268.184 551.522 268.12C550.626 267.928 549.57 267.928 548.354 268.12C548.162 268.312 547.97 268.504 547.778 268.696C547.586 268.888 547.33 269.112 547.01 269.368C546.946 269.368 546.882 269.4 546.818 269.464C546.754 269.464 546.658 269.464 546.53 269.464C546.338 269.528 546.05 269.56 545.666 269.56C543.618 269.496 541.602 269.88 539.618 270.712C539.17 270.84 538.69 270.936 538.178 271C537.666 271 537.154 270.904 536.642 270.712C536.258 270.52 535.874 270.424 535.49 270.424C535.17 270.36 534.818 270.36 534.434 270.424C533.602 270.424 532.802 270.296 532.034 270.04C531.714 270.104 531.362 270.168 530.978 270.232C530.658 270.296 530.338 270.392 530.018 270.52C529.698 270.648 529.378 270.808 529.058 271C528.738 271.256 528.386 271.352 528.002 271.288C527.938 271.16 527.842 271.032 527.714 270.904C527.586 270.712 527.458 270.488 527.33 270.232C527.202 270.168 527.042 270.104 526.85 270.04C526.658 269.912 526.498 269.816 526.37 269.752C525.538 269.624 524.77 269.336 524.066 268.888C523.106 268.248 522.178 267.768 521.282 267.448C520.834 267.32 520.45 267.096 520.13 266.776C519.874 266.392 519.586 266.072 519.266 265.816C519.01 265.176 518.786 264.568 518.594 263.992C518.402 263.416 518.274 262.808 518.21 262.168C518.018 262.04 517.858 261.912 517.73 261.784C517.602 261.592 517.474 261.432 517.346 261.304C516.962 261.048 516.77 260.824 516.77 260.632C516.706 260.056 516.514 259.608 516.194 259.288C515.874 258.968 515.586 258.52 515.33 257.944C515.33 257.816 515.298 257.624 515.234 257.368C515.234 257.112 515.202 256.856 515.138 256.6C515.138 256.472 515.138 256.312 515.138 256.12C515.138 255.864 515.106 255.672 515.042 255.544C514.786 255.032 514.53 254.552 514.273 254.104C514.018 253.592 513.794 253.112 513.602 252.664C513.602 252.344 513.666 251.864 513.794 251.224C514.114 249.88 514.082 248.568 513.698 247.288C513.506 246.84 513.378 246.392 513.314 245.944C513.25 245.496 513.154 245.048 513.026 244.6C513.09 244.472 513.154 244.312 513.218 244.12C513.346 243.864 513.474 243.672 513.602 243.544L512.93 241.528C512.802 241.208 512.61 240.92 512.354 240.664C512.162 240.344 511.97 240.056 511.778 239.8C511.714 239.288 511.81 238.808 512.066 238.36C512.386 237.912 512.578 237.464 512.642 237.016C512.642 236.824 512.61 236.632 512.546 236.44C512.546 236.248 512.546 236.056 512.546 235.864C513.058 235.16 513.378 234.424 513.506 233.656C513.698 232.888 513.826 232.088 513.89 231.256C514.338 231 514.722 230.712 515.042 230.392C515.362 230.072 515.586 229.656 515.714 229.144C515.778 228.952 515.81 228.728 515.81 228.472C515.874 228.216 515.938 227.96 516.002 227.704C516.322 227.192 516.642 226.68 516.962 226.168C517.346 225.592 517.698 225.08 518.018 224.632C518.146 224.312 518.242 223.96 518.306 223.576C518.434 223.192 518.626 222.872 518.882 222.616C519.202 222.424 519.426 222.168 519.554 221.848C519.746 221.528 519.906 221.208 520.034 220.888C520.482 220.824 520.866 220.728 521.186 220.6C521.506 220.472 521.794 220.376 522.049 220.312C522.37 220.12 522.53 219.928 522.53 219.736C522.722 218.84 523.106 218.2 523.682 217.816C524.322 217.368 525.026 217.048 525.794 216.856C526.05 216.792 526.274 216.76 526.466 216.76C526.658 216.696 526.914 216.632 527.234 216.568C527.362 216.44 527.522 216.28 527.714 216.088C527.906 215.832 528.098 215.576 528.29 215.32C528.674 215.192 529.026 215.064 529.346 214.936C529.73 214.808 530.05 214.68 530.306 214.552H530.978C531.49 214.744 532.002 214.936 532.514 215.128C533.09 215.256 533.698 215.416 534.338 215.608C534.85 215.544 535.362 215.448 535.874 215.32C536.45 215.128 536.994 215.096 537.506 215.224C537.57 215.224 537.634 215.256 537.698 215.32C537.762 215.32 537.826 215.288 537.89 215.224C538.338 215.224 538.786 215.16 539.234 215.032C539.682 214.904 540.13 214.872 540.578 214.936C540.962 214.936 541.346 214.904 541.73 214.84C542.178 214.776 542.594 214.648 542.978 214.456C543.298 214.392 543.586 214.36 543.842 214.36C544.162 214.296 544.482 214.328 544.802 214.456C544.994 214.648 545.186 214.84 545.378 215.032C545.57 215.16 545.794 215.352 546.05 215.608C546.562 215.672 547.106 215.8 547.682 215.992C548.322 216.12 548.962 216.28 549.602 216.472C549.922 216.536 550.21 216.696 550.466 216.952C550.786 217.208 551.17 217.4 551.618 217.528C552.002 217.656 552.386 217.752 552.77 217.816C553.218 217.816 553.666 217.816 554.114 217.816C555.138 218.84 556.354 219.544 557.762 219.928C557.89 219.992 558.018 220.056 558.146 220.12C558.274 220.184 558.402 220.248 558.53 220.312C559.042 220.76 559.522 221.24 559.97 221.752C560.482 222.2 560.962 222.648 561.41 223.096C561.858 223.608 562.114 224.152 562.177 224.728C562.69 225.176 562.978 225.528 563.042 225.784C563.17 225.976 563.234 226.584 563.234 227.608C563.618 227.8 563.97 228.024 564.29 228.28C564.61 228.472 564.802 228.792 564.866 229.24C564.994 229.496 565.122 229.752 565.25 230.008C565.378 230.2 565.474 230.424 565.538 230.68C565.73 230.936 565.922 231.16 566.114 231.352C566.37 231.48 566.626 231.672 566.882 231.928C567.074 232.376 567.234 232.824 567.362 233.272C567.49 233.656 567.49 234.104 567.362 234.616C567.234 235.064 567.202 235.544 567.266 236.056C567.33 236.568 567.33 237.112 567.266 237.688C567.202 238.2 567.202 238.744 567.266 239.32C567.33 239.896 567.394 240.44 567.458 240.952C567.522 241.208 567.554 241.496 567.554 241.816C567.554 242.072 567.586 242.296 567.65 242.488C567.906 242.936 568.034 243.384 568.034 243.832C568.098 244.28 568.098 244.728 568.034 245.176C568.034 245.432 568.034 245.688 568.034 245.944C568.098 246.136 568.13 246.392 568.13 246.712C567.874 247.544 567.65 248.408 567.458 249.304C567.266 250.136 566.978 250.936 566.594 251.704C566.21 252.408 565.826 253.112 565.442 253.816C565.058 254.52 564.61 255.192 564.098 255.832V257.464C563.778 257.656 563.458 257.88 563.138 258.136C562.882 258.328 562.658 258.488 562.466 258.616C562.018 259.384 561.73 260.088 561.602 260.728C561.538 261.304 561.41 261.848 561.218 262.36C560.962 262.616 560.706 262.872 560.45 263.128C560.194 263.384 559.906 263.64 559.586 263.896C559.266 264.152 558.882 264.376 558.434 264.568C558.05 264.696 557.602 264.664 557.09 264.472C556.514 264.344 556.034 264.376 555.65 264.568C555.394 264.632 555.138 264.696 554.882 264.76C554.626 264.824 554.402 264.888 554.21 264.952ZM552.674 243.256C552.546 242.936 552.45 242.648 552.386 242.392C552.386 242.072 552.354 241.752 552.29 241.432C552.29 240.92 552.258 240.504 552.194 240.184C552.066 239.672 551.874 239.128 551.618 238.552C551.426 237.912 551.202 237.304 550.946 236.728C550.882 236.472 550.754 236.216 550.562 235.96C550.434 235.64 550.306 235.352 550.178 235.096C549.666 234.072 548.866 233.464 547.778 233.272C547.586 233.208 547.362 233.144 547.106 233.08C546.85 232.952 546.626 232.824 546.434 232.696C546.05 232.44 545.666 232.248 545.282 232.12C544.898 231.992 544.514 231.896 544.13 231.832C543.618 231.704 543.074 231.576 542.498 231.448C541.922 231.256 541.378 231.128 540.866 231.064C540.226 230.744 539.618 230.776 539.042 231.16C537.314 231.864 535.746 232.792 534.338 233.944C532.93 235.032 531.714 236.536 530.69 238.456C530.498 238.712 530.306 239 530.114 239.32C529.986 239.64 529.858 239.96 529.73 240.28C529.474 240.6 529.25 240.952 529.058 241.336C528.866 241.656 528.706 241.976 528.578 242.296C528.642 242.808 528.866 243.224 529.25 243.544C529.634 243.864 529.858 244.28 529.922 244.792C529.922 245.048 529.826 245.304 529.634 245.56C529.442 245.752 529.314 245.976 529.25 246.232C529.378 246.488 529.538 246.776 529.73 247.096C529.922 247.416 530.082 247.736 530.21 248.056C530.402 248.376 530.53 248.728 530.594 249.112C530.722 249.432 530.818 249.784 530.882 250.168C531.01 250.488 531.106 250.808 531.17 251.128C531.298 251.448 531.394 251.768 531.458 252.088L532.802 253.144C532.994 253.272 533.186 253.464 533.378 253.72C533.634 253.912 533.89 254.072 534.146 254.2C534.914 254.392 535.586 254.584 536.161 254.776C536.674 254.904 537.122 254.968 537.506 254.968C537.89 254.968 538.306 254.968 538.754 254.968C538.754 254.968 538.722 254.968 538.658 254.968C538.658 254.968 538.658 255 538.658 255.064H538.85C538.786 255.064 538.754 255.032 538.754 254.968C538.882 254.84 539.042 254.776 539.234 254.776C539.426 254.712 539.586 254.68 539.714 254.68C540.098 254.68 540.482 254.712 540.866 254.776C541.314 254.776 541.762 254.744 542.21 254.68C542.338 254.552 542.498 254.552 542.69 254.68C542.946 254.744 543.17 254.808 543.362 254.872C543.618 254.872 543.81 254.808 543.938 254.68C543.938 254.424 543.906 254.2 543.842 254.008C543.842 253.816 543.938 253.656 544.13 253.528C544.962 253.08 545.762 252.728 546.53 252.472C546.85 252.216 547.106 251.992 547.298 251.8C547.554 251.608 547.778 251.384 547.97 251.128C548.226 251 548.418 250.84 548.546 250.648C548.738 250.456 548.962 250.328 549.218 250.264C549.794 250.072 550.274 249.816 550.658 249.496C551.106 249.112 551.522 248.728 551.906 248.344C551.97 248.216 552.002 248.12 552.002 248.056C552.066 247.928 552.13 247.8 552.194 247.672C552.898 246.2 553.058 244.728 552.674 243.256ZM625.633 222.52C625.569 222.904 625.473 223.288 625.345 223.672C625.217 224.056 625.089 224.44 624.961 224.824C624.897 225.08 624.865 225.464 624.865 225.976C624.673 226.168 624.481 226.392 624.289 226.648C624.161 226.84 623.969 227.096 623.713 227.416C623.713 227.672 623.649 228.056 623.521 228.568C623.265 228.76 623.009 228.952 622.753 229.144C622.497 229.336 622.209 229.528 621.889 229.72C621.825 229.976 621.729 230.232 621.601 230.488C621.473 230.68 621.345 230.936 621.217 231.256C620.513 231.896 619.873 232.6 619.297 233.368C618.785 234.136 618.177 234.872 617.473 235.576C617.089 235.704 616.705 235.576 616.321 235.192C615.937 234.808 615.521 234.456 615.073 234.136C614.689 233.752 614.241 233.432 613.729 233.176C613.537 233.048 613.409 232.952 613.345 232.888C613.281 232.824 613.185 232.728 613.057 232.6C612.801 232.6 612.513 232.536 612.193 232.408C611.937 232.28 611.681 232.184 611.425 232.12C611.105 232.056 610.817 231.928 610.561 231.736C610.305 231.544 610.049 231.352 609.793 231.16L608.737 230.008C608.097 230.136 607.489 230.072 606.913 229.816C606.401 229.56 605.825 229.304 605.185 229.048C604.737 229.112 604.289 229.144 603.841 229.144C603.393 229.144 602.913 229.176 602.401 229.24C601.953 229.496 601.505 229.784 601.057 230.104C600.609 230.424 600.161 230.744 599.713 231.064C599.137 231.512 598.561 231.928 597.985 232.312C597.473 232.632 596.865 232.856 596.161 232.984C596.097 232.984 596.001 233.048 595.873 233.176C595.745 233.24 595.617 233.304 595.489 233.368C595.233 233.624 594.945 233.944 594.625 234.328C594.369 234.712 594.113 235.064 593.857 235.384C593.537 236.344 593.281 237.208 593.089 237.976C593.153 238.232 593.185 238.456 593.185 238.648C593.249 238.84 593.313 239.032 593.377 239.224C593.377 239.608 593.185 239.96 592.801 240.28C592.609 240.536 592.385 240.76 592.129 240.952C591.937 241.08 591.777 241.336 591.649 241.72L592.321 242.776C592.385 243.032 592.289 243.288 592.033 243.544C591.841 243.8 591.681 244.088 591.553 244.408C591.553 244.472 591.521 244.504 591.457 244.504C591.393 244.504 591.361 244.536 591.361 244.6C591.489 245.048 591.585 245.56 591.649 246.136C591.777 246.648 591.873 247.16 591.937 247.672C592.577 248.184 593.121 248.728 593.569 249.304C594.081 249.88 594.561 250.488 595.009 251.128C595.329 251.512 595.649 251.864 595.969 252.184C596.353 252.504 596.705 252.824 597.025 253.144C597.665 253.464 598.305 253.784 598.945 254.104C599.649 254.36 600.321 254.552 600.961 254.68C601.473 254.744 601.921 254.904 602.305 255.16C602.753 255.352 603.265 255.544 603.841 255.736C604.417 255.736 605.057 255.768 605.761 255.832C606.465 255.832 607.169 255.832 607.873 255.832C608.321 255.832 608.609 255.8 608.737 255.736C609.441 255.544 610.113 255.448 610.753 255.448C611.393 255.384 612.033 255.256 612.673 255.064C613.377 254.936 614.049 254.84 614.689 254.776C615.393 254.712 616.065 254.648 616.705 254.584C616.833 254.584 616.993 254.52 617.185 254.392C617.441 254.264 617.665 254.264 617.857 254.392C618.113 254.648 618.305 254.904 618.433 255.16C618.561 255.416 618.721 255.704 618.913 256.024C618.849 256.216 618.817 256.472 618.817 256.792C618.817 257.048 618.817 257.336 618.817 257.656C620.225 260.024 621.281 262.744 621.985 265.816C621.025 266.52 620.065 267.256 619.105 268.024C618.209 268.728 617.249 269.496 616.225 270.328C615.777 270.52 615.265 270.648 614.689 270.712C614.177 270.712 613.761 270.968 613.441 271.48C613.185 271.352 612.929 271.256 612.673 271.192C612.481 271.128 612.321 271.064 612.193 271C611.937 271.064 611.777 271.192 611.713 271.384C611.649 271.576 611.553 271.736 611.425 271.864C611.041 271.672 610.689 271.48 610.369 271.288C610.305 271.352 610.145 271.416 609.889 271.48C609.697 271.544 609.537 271.608 609.409 271.672C608.769 271.8 608.161 271.928 607.585 272.056C607.009 272.248 606.401 272.344 605.761 272.344C605.313 272.344 604.801 272.344 604.225 272.344C603.649 272.408 603.105 272.472 602.593 272.536C602.465 272.536 602.305 272.504 602.113 272.44C601.921 272.44 601.697 272.408 601.441 272.344C600.609 272.088 600.065 271.896 599.809 271.768C599.553 271.64 599.009 271.32 598.177 270.808C597.665 270.744 597.281 270.904 597.025 271.288C596.833 271.736 596.577 271.96 596.257 271.96H595.105C594.593 271.768 594.081 271.576 593.569 271.384C593.057 271.192 592.513 271.064 591.937 271C591.489 270.936 591.073 270.84 590.689 270.712C590.369 270.52 589.985 270.36 589.537 270.232C589.089 269.848 588.609 269.464 588.097 269.08C587.649 268.632 587.169 268.28 586.657 268.024C586.209 267.832 585.761 267.576 585.313 267.256C584.929 266.872 584.577 266.488 584.257 266.104C584.001 265.72 583.713 265.432 583.393 265.24C583.073 264.984 582.785 264.696 582.529 264.376C582.081 263.672 581.537 263.032 580.897 262.456C580.577 262.136 580.289 261.816 580.033 261.496C579.841 261.112 579.585 260.76 579.265 260.44C579.073 259.544 578.881 258.648 578.689 257.752C578.561 256.856 578.433 255.928 578.305 254.968C578.177 254.84 578.017 254.648 577.825 254.392C577.697 254.072 577.505 253.784 577.249 253.528C577.185 253.016 577.089 252.472 576.961 251.896C576.833 251.256 576.609 250.68 576.289 250.168C576.353 249.912 576.449 249.592 576.577 249.208C576.577 248.888 576.577 248.728 576.577 248.728C576.065 247.32 575.905 245.976 576.097 244.696C576.225 243.8 576.321 242.872 576.385 241.912C576.513 240.888 576.609 239.896 576.673 238.936C576.865 238.808 577.025 238.68 577.153 238.552C577.345 238.424 577.537 238.296 577.729 238.168C576.961 236.952 576.961 235.608 577.729 234.136C577.409 233.496 577.249 232.984 577.249 232.6C577.249 232.216 577.249 232.024 577.249 232.024C577.505 231.768 577.729 231.512 577.921 231.256C578.113 231 578.337 230.744 578.593 230.488C579.105 230.04 579.553 229.496 579.937 228.856C580.129 228.536 580.289 228.184 580.417 227.8C580.609 227.416 580.673 227.064 580.609 226.744C581.121 226.424 581.633 226.2 582.145 226.072C582.721 225.88 583.169 225.592 583.489 225.208C583.553 225.144 583.617 225.016 583.681 224.824C583.681 224.632 583.649 224.408 583.585 224.152C583.585 223.896 583.585 223.608 583.585 223.288C583.777 223.032 583.937 222.68 584.065 222.232C584.513 221.976 584.897 221.784 585.217 221.656C585.537 221.528 585.857 221.368 586.177 221.176C586.305 221.048 586.401 220.92 586.465 220.792C586.593 220.664 586.689 220.536 586.753 220.408C587.393 219.384 588.193 218.648 589.153 218.2C589.537 218.072 589.921 217.912 590.305 217.72C590.689 217.528 591.041 217.368 591.361 217.24C591.553 217.112 591.713 216.984 591.841 216.856C592.033 216.664 592.225 216.504 592.417 216.376C592.865 216.248 593.345 216.088 593.857 215.896C594.305 215.704 594.753 215.512 595.201 215.32C595.713 215.128 596.225 215 596.737 214.936C597.185 214.808 597.601 214.648 597.985 214.456C598.433 214.264 598.849 214.136 599.233 214.072C599.553 213.944 599.809 213.976 600.001 214.168C600.257 214.296 600.513 214.424 600.769 214.552H602.785C603.105 214.424 603.329 214.264 603.457 214.072C603.585 213.816 603.777 213.656 604.033 213.592C604.929 213.4 605.601 213.272 606.049 213.208C606.497 213.144 607.073 213.144 607.777 213.208C608.481 213.208 609.537 213.272 610.945 213.4C611.265 213.464 611.521 213.592 611.713 213.784C611.969 213.976 612.257 214.104 612.577 214.168C613.025 214.168 613.441 214.232 613.825 214.36C614.273 214.424 614.721 214.52 615.169 214.648C615.745 215.096 616.353 215.512 616.993 215.896C617.633 216.216 618.369 216.408 619.201 216.472C619.585 217.112 620.065 217.624 620.641 218.008C621.281 218.392 621.921 218.744 622.561 219.064C623.137 219.384 623.681 219.768 624.193 220.216C624.705 220.664 625.185 221.144 625.633 221.656C625.633 221.784 625.633 221.944 625.633 222.136C625.697 222.264 625.697 222.392 625.633 222.52ZM685.977 264.088C685.913 264.28 685.881 264.472 685.881 264.664C685.945 264.792 685.913 264.888 685.785 264.952C685.017 265.848 684.217 266.776 683.385 267.736C682.617 268.696 681.849 269.688 681.081 270.712L680.217 271.576C679.897 271.64 679.545 271.672 679.161 271.672C678.841 271.672 678.489 271.704 678.105 271.768C677.849 271.832 677.561 271.896 677.241 271.96C676.985 272.088 676.729 272.216 676.473 272.344C675.897 272.152 675.385 271.928 674.937 271.672C674.489 271.48 674.105 271.16 673.785 270.712C673.721 270.456 673.529 270.232 673.209 270.04C672.249 269.336 671.289 268.632 670.329 267.928C669.369 267.16 668.345 266.52 667.257 266.008C667.001 265.88 666.745 265.752 666.489 265.624C666.233 265.496 665.945 265.336 665.625 265.144C665.305 265.016 664.953 264.856 664.569 264.664C664.185 264.472 663.737 264.28 663.225 264.088C662.969 263.832 662.649 263.576 662.265 263.32C661.945 263 661.625 262.68 661.305 262.36C660.729 261.72 659.993 261.176 659.097 260.728C658.713 260.6 658.361 260.408 658.041 260.152C657.721 259.832 657.401 259.544 657.081 259.288C656.249 258.84 655.449 258.488 654.681 258.232C654.169 257.592 653.753 257.048 653.433 256.6C652.921 256.28 652.345 256.216 651.705 256.408C651.641 256.472 651.577 256.568 651.513 256.696C651.449 256.76 651.417 256.856 651.417 256.984C651.225 258.392 651.001 259.864 650.745 261.4C650.553 262.872 650.329 264.344 650.073 265.816C650.201 265.944 650.297 266.104 650.361 266.296C650.489 266.488 650.617 266.68 650.745 266.872C650.873 267.448 650.873 268.056 650.745 268.696C650.681 269.272 650.713 269.848 650.841 270.424C650.905 271 650.905 271.576 650.841 272.152C650.841 272.728 650.841 273.304 650.841 273.88C650.841 274.52 650.553 274.84 649.977 274.84C649.273 274.776 648.601 274.776 647.961 274.84C647.321 274.968 646.649 275.096 645.945 275.224C644.921 275.288 643.865 275.32 642.777 275.32C641.753 275.384 640.761 275.448 639.801 275.512C639.161 275.512 638.553 275.416 637.977 275.224C637.401 275.032 636.825 274.808 636.249 274.552C635.481 274.296 635.065 273.848 635.001 273.208C634.937 272.696 634.873 272.152 634.809 271.576C634.809 271.064 634.745 270.584 634.617 270.136C634.553 269.624 634.585 269.144 634.713 268.696C634.841 268.248 634.937 267.8 635.001 267.352C634.873 266.84 634.713 266.36 634.521 265.912C634.393 265.464 634.329 264.952 634.329 264.376C634.457 264.12 634.489 263.896 634.425 263.704C634.361 263.512 634.297 263.32 634.233 263.128C633.977 262.616 633.817 262.072 633.753 261.496C633.753 260.92 633.785 260.376 633.849 259.864C633.913 259.16 633.913 258.488 633.849 257.848C633.785 257.208 633.625 256.632 633.369 256.12C633.433 255.544 633.497 255.032 633.561 254.584C633.689 254.072 633.753 253.592 633.753 253.144C633.753 252.76 633.817 252.376 633.945 251.992C634.073 251.544 634.105 251.096 634.041 250.648C633.977 250.2 633.913 249.752 633.849 249.304C633.849 248.856 633.849 248.408 633.849 247.96C633.849 246.296 633.817 244.696 633.753 243.16C633.753 241.56 633.753 239.96 633.753 238.36C633.881 237.272 633.753 236.28 633.369 235.384C633.753 234.872 634.041 234.392 634.233 233.944C634.489 233.432 634.873 232.984 635.385 232.6C635.577 232.408 635.385 232.216 634.809 232.024C634.745 232.024 634.681 232.024 634.617 232.024C634.617 231.96 634.585 231.928 634.521 231.928C634.265 231.48 634.201 231.032 634.329 230.584C634.457 230.072 634.457 229.592 634.329 229.144C634.265 228.632 634.329 228.184 634.521 227.8C634.777 227.416 634.905 227 634.905 226.552C634.841 226.232 634.777 225.944 634.713 225.688C634.713 225.432 634.681 225.176 634.617 224.92C634.681 224.728 634.713 224.504 634.713 224.248C634.777 223.928 634.841 223.64 634.905 223.384C634.521 221.912 634.297 220.44 634.233 218.968C634.233 217.496 634.233 216.024 634.233 214.552C634.233 214.168 634.329 213.784 634.521 213.4C634.521 213.144 634.585 212.952 634.713 212.824C634.841 212.632 634.969 212.472 635.097 212.344C636.057 211.96 637.017 211.608 637.977 211.288C638.937 210.904 639.929 210.744 640.953 210.808C641.465 210.872 642.009 210.808 642.585 210.616C643.289 210.296 643.993 210.168 644.697 210.232C645.401 210.232 646.105 210.296 646.809 210.424C647.321 210.552 647.801 210.712 648.249 210.904C648.697 211.032 649.113 211.288 649.497 211.672C650.009 211.736 650.457 211.672 650.841 211.48C651.289 211.224 651.737 211.096 652.185 211.096C652.249 211.16 652.313 211.192 652.377 211.192C652.505 211.192 652.569 211.256 652.569 211.384C653.081 212.216 653.337 213.112 653.337 214.072C653.273 214.456 653.273 214.872 653.337 215.32C653.465 215.704 653.593 216.152 653.721 216.664C653.593 217.048 653.497 217.496 653.433 218.008C653.369 218.456 653.273 218.936 653.145 219.448C653.081 220.152 653.081 220.888 653.145 221.656C653.209 222.168 653.241 222.712 653.241 223.288C653.241 223.864 653.241 224.408 653.241 224.92C653.241 225.112 653.209 225.304 653.145 225.496C653.081 225.624 653.049 225.752 653.049 225.88C652.729 226.584 652.537 227.16 652.473 227.608C652.473 227.992 652.473 228.376 652.473 228.76C652.473 229.08 652.505 229.432 652.569 229.816C652.569 229.88 652.537 230.008 652.473 230.2C652.409 230.392 652.409 230.552 652.473 230.68C652.601 231.32 652.665 231.992 652.665 232.696C652.665 233.336 652.697 234.008 652.761 234.712C652.761 235.16 652.953 235.48 653.337 235.672C653.721 235.608 654.073 235.448 654.393 235.192C654.713 234.936 655.097 234.808 655.545 234.808C656.249 234.232 656.921 233.752 657.561 233.368C657.817 233.24 658.041 233.144 658.233 233.08C658.489 233.016 658.745 232.952 659.001 232.888C659.385 232.696 659.641 232.408 659.769 232.024C659.961 231.576 660.185 231.224 660.441 230.968C661.849 229.944 663.097 228.856 664.185 227.704C664.505 227.384 664.857 227.064 665.241 226.744C665.689 226.36 666.105 226.04 666.489 225.784C666.617 225.656 666.745 225.56 666.873 225.496C667.001 225.368 667.097 225.272 667.161 225.208C667.993 224.12 668.985 223.224 670.137 222.52C671.289 221.816 672.313 221.08 673.209 220.312C673.913 220.184 674.585 220.056 675.225 219.928C675.865 219.736 676.473 219.608 677.049 219.544C678.137 219.672 678.809 220.088 679.065 220.792C679.193 221.048 679.321 221.272 679.449 221.464C679.641 221.656 679.801 221.88 679.929 222.136C680.633 222.84 681.337 223.576 682.041 224.344C682.745 225.112 683.449 225.88 684.153 226.648C684.345 226.84 684.505 227.064 684.633 227.32C684.825 227.576 684.985 227.832 685.113 228.088C685.241 228.344 685.241 228.568 685.113 228.76C685.049 228.952 684.953 229.112 684.825 229.24C684.441 229.624 684.025 230.04 683.577 230.488C683.193 230.872 682.713 231.16 682.137 231.352C682.009 231.416 681.881 231.512 681.753 231.64C681.625 231.704 681.497 231.768 681.369 231.832C681.049 232.088 680.761 232.376 680.505 232.696C680.313 232.952 680.249 233.304 680.313 233.752C680.121 234.008 679.929 234.2 679.737 234.328L677.433 236.344C677.433 236.344 677.369 236.408 677.241 236.536C676.281 236.984 675.385 237.528 674.553 238.168C673.785 238.744 672.953 239.288 672.057 239.8C671.097 240.248 670.201 240.792 669.369 241.432C668.601 242.072 667.929 242.84 667.353 243.736C667.225 244.056 667.001 244.312 666.681 244.504C666.361 244.696 666.137 244.984 666.009 245.368C666.009 245.688 666.073 245.88 666.201 245.944C666.329 246.008 666.489 246.104 666.681 246.232C666.873 246.36 667.065 246.488 667.257 246.616C667.833 246.872 668.345 247.224 668.793 247.672C669.241 248.056 669.657 248.504 670.041 249.016C670.489 249.656 671.001 250.264 671.577 250.84C672.217 251.352 672.889 251.864 673.593 252.376C673.785 252.504 674.009 252.696 674.265 252.952C674.521 253.144 674.777 253.336 675.033 253.528C675.481 254.168 675.993 254.712 676.569 255.16C677.209 255.608 677.817 256.056 678.393 256.504C678.777 256.76 679.161 257.048 679.545 257.368C679.993 257.688 680.441 258.008 680.889 258.328C681.209 258.776 681.497 259.288 681.753 259.864C682.009 260.44 682.489 260.792 683.193 260.92C683.577 261.624 683.929 262.296 684.249 262.936C684.569 263.576 685.145 263.96 685.977 264.088Z" fill="#343575"/>
</svg>
