<svg width="45" height="45" viewBox="0 0 45 45" fill="none" xmlns="http://www.w3.org/2000/svg">
<path d="M22.5 2.8125C11.5312 2.8125 2.8125 11.5312 2.8125 22.5C2.8125 33.4688 11.5312 42.1875 22.5 42.1875C33.4688 42.1875 42.1875 33.4688 42.1875 22.5C42.1875 11.5312 33.4688 2.8125 22.5 2.8125ZM22.5 39.375C13.2188 39.375 5.625 31.7812 5.625 22.5C5.625 13.2188 13.2188 5.625 22.5 5.625C31.7812 5.625 39.375 13.2188 39.375 22.5C39.375 31.7812 31.7812 39.375 22.5 39.375Z" fill="#343575"/>
<path d="M30.0938 32.3438L22.5 24.75L14.9063 32.3438L12.6562 30.0938L20.25 22.5L12.6562 14.9063L14.9063 12.6562L22.5 20.25L30.0938 12.6562L32.3438 14.9063L24.75 22.5L32.3438 30.0938L30.0938 32.3438Z" fill="#343575"/>
</svg>
