<svg width="19" height="27" viewBox="0 0 19 27" fill="none" xmlns="http://www.w3.org/2000/svg">
<path fill-rule="evenodd" clip-rule="evenodd" d="M0 8.96476C0 3.9734 4.24349 0 9.375 0C14.5065 0 18.75 3.9734 18.75 8.96476C18.75 11.7787 17.2286 15.2601 15.5619 18.2693C13.8703 21.3235 11.9222 24.0752 10.8774 25.4861C10.705 25.7217 10.4796 25.9136 10.2194 26.046C9.95781 26.1791 9.66848 26.2485 9.375 26.2485C9.08152 26.2485 8.79219 26.1791 8.53062 26.046C8.27034 25.9135 8.0449 25.7217 7.87251 25.486C6.8278 24.0746 4.87966 21.3219 3.18804 18.2672C1.52149 15.2579 0 11.7767 0 8.96476ZM9.375 1.87498C5.19011 1.87498 1.875 5.09565 1.875 8.96476C1.875 11.2505 3.16601 14.3572 4.82832 17.3589C6.46109 20.3073 8.3523 22.9822 9.375 24.3643C10.3977 22.9829 12.2889 20.3089 13.9217 17.3608C15.5839 14.3596 16.875 11.2526 16.875 8.96476C16.875 5.09565 13.5599 1.87498 9.375 1.87498Z" fill="#343575"/>
<path fill-rule="evenodd" clip-rule="evenodd" d="M9.75 7.12493C8.71447 7.12493 7.875 7.96439 7.875 8.99991C7.875 10.0354 8.71447 10.8749 9.75 10.8749C10.7855 10.8749 11.625 10.0354 11.625 8.99991C11.625 7.96439 10.7855 7.12493 9.75 7.12493ZM6 8.99991C6 6.92886 7.67893 5.24995 9.75 5.24995C11.8211 5.24995 13.5 6.92886 13.5 8.99991C13.5 11.071 11.8211 12.7499 9.75 12.7499C7.67893 12.7499 6 11.071 6 8.99991Z" fill="#343575"/>
</svg>
