<svg width="29" height="24" viewBox="0 0 29 24" fill="none" xmlns="http://www.w3.org/2000/svg">
<path d="M8.4375 11.25C9.92934 11.25 11.3601 10.6574 12.415 9.60248C13.4699 8.54758 14.0625 7.11684 14.0625 5.625C14.0625 4.13316 13.4699 2.70242 12.415 1.64752C11.3601 0.592632 9.92934 0 8.4375 0C6.94566 0 5.51492 0.592632 4.46002 1.64752C3.40513 2.70242 2.8125 4.13316 2.8125 5.625C2.8125 7.11684 3.40513 8.54758 4.46002 9.60248C5.51492 10.6574 6.94566 11.25 8.4375 11.25ZM21.0938 11.25C22.2126 11.25 23.2857 10.8055 24.0769 10.0144C24.868 9.22319 25.3125 8.15013 25.3125 7.03125C25.3125 5.91237 24.868 4.83931 24.0769 4.04814C23.2857 3.25697 22.2126 2.8125 21.0938 2.8125C19.9749 2.8125 18.9018 3.25697 18.1106 4.04814C17.3195 4.83931 16.875 5.91237 16.875 7.03125C16.875 8.15013 17.3195 9.22319 18.1106 10.0144C18.9018 10.8055 19.9749 11.25 21.0938 11.25ZM3.16406 14.0625C2.3249 14.0625 1.52011 14.3959 0.926732 14.9892C0.333356 15.5826 0 16.3874 0 17.2266V17.5781C0 17.5781 0 23.9062 8.4375 23.9062C16.875 23.9062 16.875 17.5781 16.875 17.5781V17.2266C16.875 16.3874 16.5416 15.5826 15.9483 14.9892C15.3549 14.3959 14.5501 14.0625 13.7109 14.0625H3.16406ZM21.0938 21.7969C19.447 21.7969 18.1856 21.5423 17.2195 21.1528C17.7818 20.2039 18.1347 19.1457 18.2545 18.0492C18.2682 17.916 18.2771 17.7823 18.2812 17.6484V17.2266C18.283 16.0485 17.8284 14.9154 17.0128 14.0653C17.0606 14.0633 17.1084 14.0624 17.1562 14.0625H25.0312C25.8518 14.0625 26.6387 14.3884 27.2189 14.9686C27.7991 15.5488 28.125 16.3357 28.125 17.1563C28.125 17.1563 28.125 21.7969 21.0938 21.7969Z" fill="#343575"/>
</svg>
