<svg width="29" height="25" viewBox="0 0 29 25" fill="none" xmlns="http://www.w3.org/2000/svg">
<path d="M27.9106 9.30966H19.7258C19.5851 9.30966 19.47 9.42476 19.47 9.56544V11.1001C19.47 11.2408 19.5851 11.3559 19.7258 11.3559H27.9106C28.0513 11.3559 28.1664 11.2408 28.1664 11.1001V9.56544C28.1664 9.42476 28.0513 9.30966 27.9106 9.30966ZM23.6264 13.6579H19.7258C19.5851 13.6579 19.47 13.773 19.47 13.9137V15.4483C19.47 15.589 19.5851 15.7041 19.7258 15.7041H23.6264C23.767 15.7041 23.8821 15.589 23.8821 15.4483V13.9137C23.8821 13.773 23.767 13.6579 23.6264 13.6579ZM12.9572 6.44815H11.5729C11.3746 6.44815 11.2148 6.60801 11.2148 6.80624V14.7353C11.2148 14.8504 11.2691 14.9559 11.3618 15.0231L16.1225 18.4953C16.2823 18.6104 16.5062 18.5784 16.6213 18.4185L17.4429 17.2963V17.2931C17.558 17.1332 17.5229 16.9094 17.363 16.7943L13.3121 13.8657V6.80624C13.3153 6.60801 13.1523 6.44815 12.9572 6.44815Z" fill="#343575"/>
<path d="M23.4292 17.6752H21.5812C21.4022 17.6752 21.2327 17.7679 21.1368 17.9214C20.7302 18.566 20.253 19.1633 19.7141 19.7022C18.7862 20.6331 17.6862 21.3748 16.4753 21.8859C15.2188 22.4166 13.8855 22.6852 12.5107 22.6852C11.1327 22.6852 9.79949 22.4166 8.54618 21.8859C7.33443 21.3744 6.24418 20.639 5.3074 19.7022C4.37062 18.7654 3.63526 17.6752 3.1237 16.4634C2.59296 15.2101 2.3244 13.8769 2.3244 12.4989C2.3244 11.1209 2.59296 9.79085 3.1237 8.53434C3.63526 7.3226 4.37062 6.23235 5.3074 5.29556C6.24418 4.35878 7.33443 3.62342 8.54618 3.11187C9.79949 2.58113 11.1359 2.31256 12.5107 2.31256C13.8887 2.31256 15.222 2.58113 16.4753 3.11187C17.687 3.62342 18.7773 4.35878 19.7141 5.29556C20.253 5.83451 20.7302 6.43181 21.1368 7.07641C21.2327 7.22988 21.4022 7.3226 21.5812 7.3226H23.4292C23.6498 7.3226 23.7905 7.0924 23.6914 6.89737C21.6068 2.75058 17.3801 0.0553279 12.661 0.000975235C5.75181 -0.0853496 0.0128107 5.57052 2.18428e-05 12.4733C-0.012767 19.3889 5.59195 25 12.5075 25C17.2874 25 21.5844 22.2952 23.6914 18.1004C23.7139 18.0557 23.7245 18.0059 23.7223 17.9559C23.7201 17.9059 23.7052 17.8573 23.6789 17.8146C23.6527 17.772 23.6159 17.7368 23.5722 17.7124C23.5285 17.688 23.4793 17.6752 23.4292 17.6752Z" fill="#343575"/>
</svg>
