<svg width="14" height="25" viewBox="0 0 14 25" fill="none" xmlns="http://www.w3.org/2000/svg">
<path d="M7.03463 10.9722C4.12065 10.1528 3.18356 9.30556 3.18356 7.98611C3.18356 6.47222 4.48009 5.41667 6.64953 5.41667C8.9345 5.41667 9.78173 6.59722 9.85876 8.33333H12.6957C12.6059 5.94444 11.258 3.75 8.57506 3.04167V0H4.72399V3C2.23362 3.58333 0.231064 5.33333 0.231064 8.01389C0.231064 11.2222 2.68292 12.8194 6.26442 13.75C9.47365 14.5833 10.1155 15.8056 10.1155 17.0972C10.1155 18.0556 9.48649 19.5833 6.64953 19.5833C4.00512 19.5833 2.96533 18.3056 2.82412 16.6667H0C0.154043 19.7083 2.2593 21.4167 4.72399 21.9861V25H8.57506V22.0139C11.0783 21.5 13.068 19.9306 13.068 17.0833C13.068 13.1389 9.94862 11.7917 7.03463 10.9722Z" fill="#343575"/>
</svg>
