<svg width="30" height="30" viewBox="0 0 30 30" fill="none" xmlns="http://www.w3.org/2000/svg">
<path d="M29.694 14.5442L0.800227 0.0575908C0.682787 -0.00112931 0.548076 -0.0149457 0.420274 0.0161414C0.278432 0.0512069 0.156263 0.141049 0.0805187 0.265995C0.00477414 0.390941 -0.0183746 0.54081 0.0161413 0.682787L2.99359 12.8482C3.0385 13.0313 3.17321 13.1798 3.35282 13.2385L8.45456 14.9898L3.35628 16.741C3.17666 16.8032 3.04195 16.9482 3.0005 17.1313L0.0161413 29.314C-0.0149458 29.4418 -0.00112912 29.5765 0.057591 29.6905C0.192302 29.9634 0.523897 30.0739 0.800227 29.9392L29.694 15.5355C29.801 15.4837 29.8874 15.3939 29.9427 15.2903C30.0774 15.0139 29.9668 14.6823 29.694 14.5442ZM3.42191 25.853L5.15933 18.7513L15.3559 15.2523C15.4353 15.2246 15.501 15.1625 15.5286 15.0796C15.577 14.9345 15.501 14.7791 15.3559 14.7272L5.15933 11.2317L3.42881 4.15763L25.1207 15.0347L3.42191 25.853Z" fill="#343575"/>
</svg>
