<svg width="39" height="36" viewBox="0 0 39 36" fill="none" xmlns="http://www.w3.org/2000/svg">
<path d="M37.6171 0.430006L0.768823 8.44073C0.619169 8.47343 0.486726 8.55956 0.393448 8.68141C0.290336 8.81715 0.245213 8.98822 0.267959 9.15716C0.290705 9.3261 0.379466 9.47914 0.514808 9.58278L12.1298 18.4484C12.3047 18.5818 12.5358 18.6179 12.7419 18.5397L18.6573 16.3928L15.3107 21.7175C15.1931 21.9056 15.1771 22.136 15.2735 22.3326L21.4876 35.581C21.553 35.7198 21.6642 35.832 21.801 35.8925C22.1232 36.0416 22.5053 35.8991 22.6575 35.5744L38.3432 1.33017C38.4025 1.20469 38.4151 1.05989 38.3894 0.925312C38.3093 0.575717 37.9661 0.35558 37.6171 0.430006ZM22.0449 29.9435L18.4205 22.2222L25.1163 11.5758C25.1682 11.4925 25.1822 11.388 25.1466 11.2925C25.0842 11.1253 24.9014 11.0399 24.7317 11.0991L12.9122 15.3941L6.15902 10.2382L33.8237 4.22537L22.0449 29.9435V29.9435Z" fill="#343575"/>
</svg>
